<?xml version="1.0" encoding="UTF-8"?>
<!DOCTYPE svg PUBLIC "-//W3C//DTD SVG 1.1//EN" "http://www.w3.org/Graphics/SVG/1.1/DTD/svg11.dtd">
<!-- Creator: CorelDRAW 2020 (64 Bit) -->
<svg xmlns="http://www.w3.org/2000/svg" xml:space="preserve" width="755.05mm" height="381.398mm" version="1.1" style="shape-rendering:geometricPrecision; text-rendering:geometricPrecision; image-rendering:optimizeQuality; fill-rule:evenodd; clip-rule:evenodd"
viewBox="0 0 75568.47 38171.86"
 xmlns:xlink="http://www.w3.org/1999/xlink"
 xmlns:xodm="http://www.corel.com/coreldraw/odm/2003">
 <defs>
  <style type="text/css">
   <![CDATA[
    .fil0 {fill:#FEFEFE}
   ]]>
  </style>
 </defs>
 <g id="Camada_x0020_1">
  <metadata id="CorelCorpID_0Corel-Layer"/>
  <g id="_2223190709920">
   <path class="fil0" d="M5534.05 25813.16c-320.78,0 -582.34,8.03 -775.43,19.13 -198.02,5.55 -352.86,27.76 -464.51,66.01 -106.72,32.7 -185.69,80.82 -239.35,152.37 -48.12,62.31 -90.07,148.05 -130.17,256.02l-3775.95 10860.26c-75.87,225.16 -122.76,399.75 -142.5,530.53 -17.89,133.25 3.08,238.12 66.63,312.76 63.54,71.56 177.66,113.51 341.14,133.86 161.63,17.89 389.87,27.76 681.66,27.76 269.58,0 487.96,-5.55 650.82,-20.98 172.73,-11.1 301.65,-31.46 389.87,-63.54 94.38,-37.01 160.39,-85.75 199.26,-143.73 43.8,-63.54 79.58,-138.19 106.11,-226.4l774.19 -2394.13 4598.87 0 823.54 2460.14c22.21,83.28 55.52,148.05 94.38,199.26 38.24,52.43 104.87,91.3 198.64,121.52 91.3,30.23 229.48,41.33 405.29,46.88 183.83,15.42 434.91,20.98 758.77,20.98 307.83,0 552.73,-9.87 728.54,-27.76 175.2,-9.87 298.57,-51.2 368.9,-112.89 67.86,-70.94 95.62,-173.35 74.64,-302.89 -17.89,-134.48 -67.86,-315.22 -143.73,-539.16l-3783.36 -10855.93c-38.24,-120.29 -85.75,-213.44 -139.42,-282.54 -53.05,-71.55 -139.42,-119.67 -268.35,-152.37 -118.44,-38.24 -288.7,-60.45 -509.55,-66.01 -217.14,-11.1 -518.8,-19.13 -888.93,-19.13l0 0zm-1769.24 7596.95l1740.23 -5200.35 1731.59 5200.35 -3471.83 0zm19433.73 -7577.83c-229.48,0 -413.32,11.1 -558.9,27.76 -141.88,14.19 -262.79,38.24 -349.77,77.11 -91.3,38.86 -153.61,82.05 -187.54,133.25 -38.86,49.35 -58.6,107.34 -58.6,165.94l0 5746.91c0,437.37 3.08,893.25 11.1,1374.42 8.64,478.08 28.99,939.52 35.78,1378.12 -114.74,-250.46 -228.86,-502.14 -347.92,-753.83l-370.13 -768.64c-124.61,-265.26 -260.33,-527.43 -400.98,-786.53l-400.98 -805.66 -2388.58 -4473.04c-120.29,-244.29 -235.04,-450.33 -348.54,-613.19 -111.65,-171.49 -240.58,-304.13 -368.9,-400.98 -127.08,-94.38 -272.66,-157.92 -437.99,-196.79 -163.48,-43.8 -362.72,-66.01 -602.7,-66.01l-1335.55 -0.01c-254.15,0 -468.21,74.64 -644.03,223.93 -168.41,146.2 -257.25,367.66 -257.25,666.24l0 11002.77c0,64.77 16.65,120.29 46.88,171.49 33.31,52.43 91.3,95.62 173.35,132.63 83.9,32.7 197.41,55.52 339.91,75.87 147.43,17.89 328.8,27.76 548.41,27.76 229.48,0 413.93,-9.87 558.9,-27.76 146.2,-20.36 259.71,-43.19 342.37,-75.87 87.59,-37.01 146.82,-80.2 180.13,-132.63 35.78,-51.2 53.67,-106.72 53.67,-171.49l0 -6405.74c0,-478.08 -4.31,-943.83 -17.89,-1392.93 -12.34,-452.18 -30.23,-903.74 -35.78,-1360.23 143.73,371.98 306.59,756.31 490.42,1155.43 182.59,391.11 362.11,757.54 540.39,1096.2l3043.72 5725.32c161.63,315.22 302.89,574.93 428.74,776.66 123.99,196.16 255.39,352.86 385.55,471.92 140.65,115.36 288.7,193.08 446.63,237.5 164.09,41.33 356.56,66.01 577.41,66.01l1060.43 0c120.29,0 235.04,-14.8 349.77,-46.88 121.52,-37.01 222.7,-96.85 303.5,-170.26 86.36,-75.87 155.45,-172.11 207.89,-285.62 51.2,-112.27 74.64,-239.35 74.64,-387.41l0 -11007.71c0,-58.6 -14.8,-116.59 -44.42,-165.94 -33.31,-51.2 -91.3,-94.38 -171.49,-133.25 -80.2,-38.86 -186.3,-62.92 -330.04,-77.11 -146.82,-16.65 -326.33,-27.76 -541.63,-27.76l0 0.01zm9043.55 38.86l-3077.65 0c-207.27,0 -383.08,64.15 -528.05,188.15 -136.95,120.29 -210.36,317.7 -210.36,595.29l0 10677.06c0,275.13 73.41,479.32 210.36,603.93 144.97,121.52 320.78,179.51 528.05,179.51l3257.78 0.01c487.96,0 937.05,-27.76 1334.94,-83.9 402.83,-62.3 782.83,-161.01 1133.83,-286.23 354.71,-124.61 676.11,-288.08 966.04,-481.17 294.26,-196.16 550.26,-428.74 756.31,-699.55 215.29,-272.66 381.24,-583.57 500.29,-935.82 120.29,-352.25 182.59,-747.67 182.59,-1184.43 0,-417.63 -64.77,-790.84 -192.47,-1127.67 -122.76,-333.73 -297.34,-622.43 -518.19,-871.04 -214.68,-249.22 -470.06,-455.26 -768.64,-615.04 -289.93,-153.61 -608.25,-267.11 -954.94,-329.42 270.82,-100.55 511.4,-233.19 718.67,-399.13 215.91,-160.39 396.65,-351 540.39,-566.92 146.82,-212.83 257.25,-450.33 331.27,-707.56 76.49,-267.11 114.13,-544.71 114.13,-843.28 0,-529.28 -94.38,-990.1 -285,-1382.44 -189.38,-388.03 -464.51,-711.89 -822.31,-966.04 -352.25,-258.48 -790.84,-449.1 -1314.58,-576.17 -516.95,-123.99 -1152.96,-188.15 -1902.48,-188.15l0.01 0zm-1371.95 5042.43l0 -3179.43 1259.06 0c384.32,0 690.91,35.16 916.08,105.49 235.65,66.01 424.42,168.41 578.03,304.13 152.37,123.99 265.26,284.39 341.76,479.32 72.79,194.93 112.89,416.4 112.89,663.77 0,219.61 -34.55,432.43 -106.11,634.16 -67.86,193.7 -173.97,370.75 -319.55,520.04 -139.42,146.2 -314.61,260.94 -530.53,349.77 -215.91,81.43 -500.29,122.76 -863.03,122.76l-1388.61 -0.01zm0 5299.66l0 -3483.56 1474.36 0c456.49,0 826.62,44.42 1108.54,124.61 282.54,81.43 516.95,198.02 702.63,348.54 179.51,154.84 317.7,342.99 412.08,568.77 96.23,220.23 141.88,470.69 141.88,756.92 0,272.05 -48.12,512.63 -150.52,729.16 -92.54,206.04 -228.25,384.32 -403.44,531.14 -173.35,136.95 -378.77,243.05 -619.35,318.93 -230.71,69.09 -520.04,105.49 -867.96,105.49l-1798.22 0zm10951.57 -10400.08c-241.82,0 -437.99,11.11 -597.15,30.23 -156.07,16.66 -288.7,44.42 -388.02,72.18 -95.62,33.31 -163.48,74.64 -209.13,123.99 -37.01,51.2 -54.91,106.72 -54.91,172.11l0 11563.52c0,62.3 17.89,118.44 54.91,168.41 45.65,52.43 113.51,94.38 209.13,124.61 98.08,32.7 219.61,55.52 378.15,75.87 163.48,17.89 365.2,27.76 607.02,27.76 244.91,0 447.86,-9.87 603.93,-27.76 157.92,-20.36 285,-43.19 379.39,-75.87 96.85,-30.23 162.86,-72.17 198.64,-124.61 45.65,-49.97 66.63,-106.11 66.63,-168.41l0 -11563.52c0,-65.38 -20.98,-120.91 -66.63,-172.11 -35.78,-49.35 -101.79,-90.69 -198.64,-123.99 -94.38,-27.76 -221.47,-55.52 -379.39,-72.17 -156.07,-19.13 -359.02,-30.24 -603.93,-30.24l0 0zm18625.62 57.99l-1674.23 0c-235.04,0 -436.76,25.91 -616.27,74.64 -175.81,44.42 -331.89,124.61 -461.43,238.12 -128.31,114.13 -243.67,259.71 -341.14,441.69 -95.62,185.69 -186.92,409.61 -264.64,674.88l-2785.24 7274.31 -2648.28 -7295.29c-77.73,-264.03 -164.71,-484.87 -265.26,-661.92 -101.16,-179.51 -227.01,-326.33 -378.77,-433.67 -150.52,-113.51 -330.04,-193.7 -537.92,-238.12 -208.51,-48.73 -458.97,-74.64 -747.67,-74.64l-1627.97 0c-282.54,0 -512.01,85.75 -680.42,254.15 -170.26,172.73 -255.39,417.63 -255.39,738.41l0 10911.48c0,62.3 15.42,118.44 43.8,168.41 41.33,52.43 105.49,94.38 191.23,124.61 96.23,32.7 217.14,55.52 367.66,75.87 151.76,17.89 343.61,27.76 567.54,27.76 236.27,0 424.42,-9.87 568.77,-27.76 151.76,-20.36 274.51,-43.19 368.28,-75.87 94.38,-30.23 159.15,-72.17 191.23,-124.61 34.55,-49.97 59.22,-106.11 59.22,-168.41l18.51 -9965.78 3423.72 9954.68c19.13,71.56 57.99,129.55 112.89,179.51 56.76,52.43 132.63,96.85 228.25,133.86 98.08,32.08 228.25,56.76 377.54,66.63 149.29,17.89 331.89,27.76 550.26,27.76 214.06,0 396.04,-5.55 547.18,-20.98 151.76,-5.55 276.36,-22.21 367.66,-53.67 103.64,-32.08 182.59,-73.41 238.73,-125.85 55.52,-54.29 95.62,-123.37 122.14,-207.27l3568.68 -9954.68 0 9965.78c0,62.3 19.74,118.44 55.52,168.41 38.24,52.43 100.55,94.38 189.38,124.61 89.45,32.7 206.04,55.52 359.03,75.87 152.37,17.89 341.14,27.76 566.92,27.76 233.8,0 426.89,-9.87 577.41,-27.76 152.37,-20.36 271.43,-43.19 360.87,-75.87 92.54,-30.23 159.15,-72.17 189.38,-124.61 41.95,-49.97 59.84,-106.11 59.84,-168.41l0 -10911.48c-4.31,-157.92 -27.76,-294.87 -69.71,-415.17 -38.24,-126.47 -97.47,-231.94 -179.51,-314.61 -75.87,-85.75 -175.2,-154.84 -301.04,-196.79 -121.52,-43.8 -267.11,-66.01 -436.76,-66.01l0.03 0.01zm9381.59 -57.99c-323.86,0 -578.03,8.02 -778.51,19.13 -193.7,5.55 -348.54,27.76 -462.05,66.01 -107.34,32.7 -187.54,80.81 -236.27,152.37 -49.35,62.3 -93.77,148.05 -132.63,256.01l-3775.95 10860.27c-74.64,225.16 -121.52,399.75 -138.8,530.53 -19.13,133.25 0,238.12 64.15,312.76 63.54,71.56 177.05,113.51 341.14,133.86 164.09,17.89 389.87,27.76 682.89,27.76 269.58,0 487.96,-5.55 650.82,-20.98 169.02,-11.1 301.65,-31.46 387.41,-63.54 93.77,-37.01 160.39,-85.75 198.64,-143.73 44.42,-63.54 78.97,-138.19 105.49,-226.4l773.57 -2394.13 4601.97 0 821.07 2460.14c25.91,83.28 59.22,148.05 95,199.26 37.63,52.43 103.64,91.3 199.26,121.52 92.54,30.23 229.48,41.33 407.14,46.88 181.36,15.42 436.14,20.98 755.06,20.98 310.91,0 554.58,-9.87 728.54,-27.76 177.05,-9.87 302.89,-51.2 369.51,-112.89 70.33,-70.94 95,-173.35 75.87,-302.89 -16.65,-134.48 -66.63,-315.22 -139.42,-539.16l-3786.44 -10855.95c-40.09,-120.29 -85.75,-213.44 -142.5,-282.54 -52.43,-71.56 -138.19,-119.68 -264.03,-152.37 -121.52,-38.24 -292.41,-60.45 -512.63,-66.01 -219.59,-11.08 -516.93,-19.11 -888.3,-19.11l0 0zm-1769.85 7596.95l1743.31 -5200.35 1727.89 5200.35 -3471.21 0z"/>
   <path class="fil0" d="M47894.31 19929.09l-1199.84 0c0,0 -3105.4,347.92 -4972.1,-2343.55 -359.64,-560.45 -2070.14,-3122.51 -3963.12,-5950.32l2360.62 -3527.69 7774.43 11821.56zm-20288.56 0l1201.08 0c0,0 3106.02,347.92 4975.18,-2343.55 360.88,-560.41 2071.11,-3122.04 3963.55,-5949.67l-2360.97 -3529.15 5.31 -8.07 2362.05 -3591.7 0 -0.01 0.24 -0.37 2362.69 3591.73c1886.34,-2814.74 3455.86,-5153.31 3455.86,-5153.31l6218.82 16984.1 4069.59 0 -7019.54 -19929.09 -6123.2 0 -2964.72 4506.58 -2963.74 -4506.58 -6126.29 0.01 -7015.84 19929.08 4068.98 0 6217.59 -16984.1c0,0 1570,2338.15 3456.84,5152.67l-7783.5 11831.43z"/>
  </g>
 </g>
</svg>
