<svg width="189" height="9" viewBox="0 0 189 9" fill="none" xmlns="http://www.w3.org/2000/svg">
<path d="M0.120909 8.56494L3.15573 0.476124H4.42527L7.448 8.56494H6.23891L5.62227 6.79967H1.94664L1.33 8.56494H0.120909ZM2.29727 5.82031H5.27164L3.78445 1.62476L2.29727 5.82031ZM11.1475 8.71003C10.7042 8.71003 10.273 8.64152 9.85381 8.50449C9.43466 8.36746 9.06387 8.15788 8.74144 7.87576C8.42708 7.59364 8.19735 7.23494 8.05226 6.79967L9.10417 6.48531C9.2009 6.77549 9.35808 7.01731 9.57572 7.21076C9.79335 7.39615 10.0432 7.53318 10.3254 7.62185C10.6155 7.71052 10.9057 7.75485 11.1959 7.75485C11.5183 7.75485 11.8246 7.70246 12.1148 7.59767C12.405 7.49288 12.6387 7.3357 12.8161 7.12612C13.0015 6.90849 13.0942 6.63846 13.0942 6.31603C13.0942 5.98555 12.9733 5.72358 12.7314 5.53012C12.4896 5.33667 12.0705 5.16337 11.474 5.01021L10.4463 4.78049C10.0755 4.68376 9.70872 4.55479 9.34599 4.39358C8.99132 4.23237 8.69711 4.00264 8.46335 3.7044C8.23766 3.40615 8.12481 3.00715 8.12481 2.5074C8.12481 2.04794 8.26587 1.657 8.54799 1.33458C8.83817 1.01215 9.20896 0.766305 9.66035 0.597033C10.1198 0.42776 10.5954 0.343124 11.0871 0.343124C11.4659 0.343124 11.8367 0.399548 12.1994 0.512397C12.5702 0.617184 12.9007 0.782426 13.1909 1.00812C13.4891 1.22576 13.7229 1.50788 13.8922 1.85449L12.8524 2.15676C12.6992 1.87464 12.4493 1.66103 12.1027 1.51594C11.7642 1.37085 11.4095 1.29831 11.0387 1.29831C10.7485 1.29831 10.4704 1.34667 10.2044 1.4434C9.93844 1.53206 9.72081 1.66909 9.55153 1.85449C9.38226 2.03988 9.29762 2.27364 9.29762 2.55576C9.29762 2.82176 9.3742 3.03537 9.52735 3.19658C9.68856 3.35779 9.89814 3.48676 10.1561 3.58349C10.4221 3.67215 10.7123 3.75276 11.0266 3.82531L11.9093 4.01876C12.3204 4.11549 12.7073 4.24849 13.07 4.41776C13.4327 4.58703 13.7269 4.82482 13.9526 5.13112C14.1783 5.43743 14.2912 5.84852 14.2912 6.3644C14.2912 6.73518 14.2025 7.0697 14.0252 7.36794C13.8478 7.65812 13.61 7.90397 13.3118 8.10549C13.0136 8.29894 12.675 8.44806 12.2962 8.55285C11.9254 8.65764 11.5425 8.71003 11.1475 8.71003ZM18.3501 8.71003C17.9068 8.71003 17.4756 8.64152 17.0564 8.50449C16.6372 8.36746 16.2665 8.15788 15.944 7.87576C15.6297 7.59364 15.3999 7.23494 15.2549 6.79967L16.3068 6.48531C16.4035 6.77549 16.5607 7.01731 16.7783 7.21076C16.9959 7.39615 17.2458 7.53318 17.5279 7.62185C17.8181 7.71052 18.1083 7.75485 18.3985 7.75485C18.7209 7.75485 19.0272 7.70246 19.3174 7.59767C19.6076 7.49288 19.8413 7.3357 20.0187 7.12612C20.2041 6.90849 20.2968 6.63846 20.2968 6.31603C20.2968 5.98555 20.1759 5.72358 19.934 5.53012C19.6922 5.33667 19.2731 5.16337 18.6766 5.01021L17.6489 4.78049C17.2781 4.68376 16.9113 4.55479 16.5486 4.39358C16.1939 4.23237 15.8997 4.00264 15.6659 3.7044C15.4402 3.40615 15.3274 3.00715 15.3274 2.5074C15.3274 2.04794 15.4685 1.657 15.7506 1.33458C16.0408 1.01215 16.4116 0.766305 16.8629 0.597033C17.3224 0.42776 17.798 0.343124 18.2897 0.343124C18.6685 0.343124 19.0393 0.399548 19.402 0.512397C19.7728 0.617184 20.1033 0.782426 20.3935 1.00812C20.6917 1.22576 20.9255 1.50788 21.0948 1.85449L20.0549 2.15676C19.9018 1.87464 19.6519 1.66103 19.3053 1.51594C18.9668 1.37085 18.6121 1.29831 18.2413 1.29831C17.9511 1.29831 17.673 1.34667 17.407 1.4434C17.141 1.53206 16.9234 1.66909 16.7541 1.85449C16.5849 2.03988 16.5002 2.27364 16.5002 2.55576C16.5002 2.82176 16.5768 3.03537 16.7299 3.19658C16.8912 3.35779 17.1007 3.48676 17.3587 3.58349C17.6247 3.67215 17.9149 3.75276 18.2292 3.82531L19.1119 4.01876C19.5229 4.11549 19.9099 4.24849 20.2726 4.41776C20.6353 4.58703 20.9295 4.82482 21.1552 5.13112C21.3809 5.43743 21.4938 5.84852 21.4938 6.3644C21.4938 6.73518 21.4051 7.0697 21.2278 7.36794C21.0504 7.65812 20.8126 7.90397 20.5144 8.10549C20.2162 8.29894 19.8776 8.44806 19.4988 8.55285C19.128 8.65764 18.7451 8.71003 18.3501 8.71003ZM22.8927 8.56494V0.488214H28.3699V1.46758H24.0293V3.92203H27.2334V4.9014H24.0293V7.58558H28.3699V8.56494H22.8927ZM32.4129 8.71003C31.9696 8.71003 31.5383 8.64152 31.1192 8.50449C30.7 8.36746 30.3292 8.15788 30.0068 7.87576C29.6924 7.59364 29.4627 7.23494 29.3176 6.79967L30.3695 6.48531C30.4663 6.77549 30.6234 7.01731 30.8411 7.21076C31.0587 7.39615 31.3086 7.53318 31.5907 7.62185C31.8809 7.71052 32.1711 7.75485 32.4613 7.75485C32.7837 7.75485 33.09 7.70246 33.3802 7.59767C33.6703 7.49288 33.9041 7.3357 34.0814 7.12612C34.2668 6.90849 34.3595 6.63846 34.3595 6.31603C34.3595 5.98555 34.2386 5.72358 33.9968 5.53012C33.755 5.33667 33.3358 5.16337 32.7393 5.01021L31.7116 4.78049C31.3408 4.68376 30.9741 4.55479 30.6113 4.39358C30.2567 4.23237 29.9625 4.00264 29.7287 3.7044C29.503 3.40615 29.3902 3.00715 29.3902 2.5074C29.3902 2.04794 29.5312 1.657 29.8133 1.33458C30.1035 1.01215 30.4743 0.766305 30.9257 0.597033C31.3852 0.42776 31.8607 0.343124 32.3524 0.343124C32.7313 0.343124 33.1021 0.399548 33.4648 0.512397C33.8356 0.617184 34.1661 0.782426 34.4563 1.00812C34.7545 1.22576 34.9883 1.50788 35.1575 1.85449L34.1177 2.15676C33.9646 1.87464 33.7147 1.66103 33.3681 1.51594C33.0295 1.37085 32.6749 1.29831 32.3041 1.29831C32.0139 1.29831 31.7358 1.34667 31.4698 1.4434C31.2038 1.53206 30.9862 1.66909 30.8169 1.85449C30.6476 2.03988 30.563 2.27364 30.563 2.55576C30.563 2.82176 30.6396 3.03537 30.7927 3.19658C30.9539 3.35779 31.1635 3.48676 31.4214 3.58349C31.6874 3.67215 31.9776 3.75276 32.292 3.82531L33.1746 4.01876C33.5857 4.11549 33.9726 4.24849 34.3353 4.41776C34.6981 4.58703 34.9923 4.82482 35.218 5.13112C35.4437 5.43743 35.5565 5.84852 35.5565 6.3644C35.5565 6.73518 35.4679 7.0697 35.2905 7.36794C35.1132 7.65812 34.8754 7.90397 34.5772 8.10549C34.2789 8.29894 33.9404 8.44806 33.5615 8.55285C33.1907 8.65764 32.8079 8.71003 32.4129 8.71003ZM39.6155 8.71003C39.1722 8.71003 38.7409 8.64152 38.3218 8.50449C37.9026 8.36746 37.5318 8.15788 37.2094 7.87576C36.895 7.59364 36.6653 7.23494 36.5202 6.79967L37.5721 6.48531C37.6688 6.77549 37.826 7.01731 38.0437 7.21076C38.2613 7.39615 38.5112 7.53318 38.7933 7.62185C39.0835 7.71052 39.3737 7.75485 39.6638 7.75485C39.9863 7.75485 40.2926 7.70246 40.5828 7.59767C40.8729 7.49288 41.1067 7.3357 41.284 7.12612C41.4694 6.90849 41.5621 6.63846 41.5621 6.31603C41.5621 5.98555 41.4412 5.72358 41.1994 5.53012C40.9576 5.33667 40.5384 5.16337 39.9419 5.01021L38.9142 4.78049C38.5434 4.68376 38.1767 4.55479 37.8139 4.39358C37.4593 4.23237 37.1651 4.00264 36.9313 3.7044C36.7056 3.40615 36.5928 3.00715 36.5928 2.5074C36.5928 2.04794 36.7338 1.657 37.0159 1.33458C37.3061 1.01215 37.6769 0.766305 38.1283 0.597033C38.5878 0.42776 39.0633 0.343124 39.555 0.343124C39.9339 0.343124 40.3047 0.399548 40.6674 0.512397C41.0382 0.617184 41.3687 0.782426 41.6588 1.00812C41.9571 1.22576 42.1908 1.50788 42.3601 1.85449L41.3203 2.15676C41.1672 1.87464 40.9173 1.66103 40.5707 1.51594C40.2321 1.37085 39.8775 1.29831 39.5067 1.29831C39.2165 1.29831 38.9384 1.34667 38.6724 1.4434C38.4064 1.53206 38.1888 1.66909 38.0195 1.85449C37.8502 2.03988 37.7656 2.27364 37.7656 2.55576C37.7656 2.82176 37.8422 3.03537 37.9953 3.19658C38.1565 3.35779 38.3661 3.48676 38.624 3.58349C38.89 3.67215 39.1802 3.75276 39.4946 3.82531L40.3772 4.01876C40.7883 4.11549 41.1752 4.24849 41.5379 4.41776C41.9007 4.58703 42.1949 4.82482 42.4206 5.13112C42.6463 5.43743 42.7591 5.84852 42.7591 6.3644C42.7591 6.73518 42.6705 7.0697 42.4931 7.36794C42.3158 7.65812 42.078 7.90397 41.7798 8.10549C41.4815 8.29894 41.143 8.44806 40.7641 8.55285C40.3933 8.65764 40.0105 8.71003 39.6155 8.71003ZM47.6282 8.71003C46.8543 8.71003 46.1853 8.5327 45.6211 8.17803C45.0568 7.81531 44.6175 7.31958 44.3032 6.69085C43.9969 6.05406 43.8437 5.32861 43.8437 4.51449C43.8437 3.70037 43.9969 2.98297 44.3032 2.36231C44.6175 1.73358 45.0568 1.24188 45.6211 0.887214C46.1853 0.524487 46.8543 0.343124 47.6282 0.343124C48.41 0.343124 49.0831 0.524487 49.6473 0.887214C50.2116 1.24188 50.6469 1.73358 50.9532 2.36231C51.2675 2.98297 51.4247 3.70037 51.4247 4.51449C51.4247 5.32861 51.2675 6.05406 50.9532 6.69085C50.6469 7.31958 50.2116 7.81531 49.6473 8.17803C49.0831 8.5327 48.41 8.71003 47.6282 8.71003ZM47.6282 7.75485C48.1199 7.75485 48.5632 7.62991 48.9582 7.38003C49.3612 7.13015 49.6796 6.76743 49.9133 6.29185C50.1471 5.80821 50.264 5.21576 50.264 4.51449C50.264 3.82127 50.1471 3.23688 49.9133 2.76131C49.6796 2.27767 49.3612 1.91494 48.9582 1.67312C48.5632 1.42324 48.1199 1.29831 47.6282 1.29831C47.1445 1.29831 46.7012 1.42324 46.2982 1.67312C45.9032 1.91494 45.5888 2.27767 45.3551 2.76131C45.1213 3.23688 45.0044 3.82127 45.0044 4.51449C45.0044 5.21576 45.1213 5.80821 45.3551 6.29185C45.5888 6.76743 45.9032 7.13015 46.2982 7.38003C46.7012 7.62991 47.1445 7.75485 47.6282 7.75485ZM52.9429 8.56494V0.488214H55.5061C56.1671 0.488214 56.7475 0.548669 57.2472 0.669578C57.7551 0.782426 58.15 1.00812 58.4321 1.34667C58.7223 1.67715 58.8674 2.16482 58.8674 2.80967C58.8674 3.1724 58.811 3.51094 58.6981 3.82531C58.5853 4.13967 58.3677 4.40567 58.0452 4.62331C57.7309 4.84094 57.2593 4.99409 56.6306 5.08276L59.1334 8.56494H57.743L55.2885 5.1674H54.0794V8.56494H52.9429ZM54.0794 4.21221H55.5908C55.9858 4.21221 56.3404 4.184 56.6548 4.12758C56.9772 4.07115 57.2311 3.94621 57.4165 3.75276C57.61 3.55124 57.7067 3.24494 57.7067 2.83385C57.7067 2.4147 57.61 2.1084 57.4165 1.91494C57.2311 1.72149 56.9772 1.59655 56.6548 1.54012C56.3404 1.47564 55.9858 1.4434 55.5908 1.4434H54.0794V4.21221ZM60.2961 8.56494V7.67021H61.4327V1.38294H60.2961V0.488214H63.7058V1.38294H62.5692V7.67021H63.7058V8.56494H60.2961ZM64.6254 8.56494L67.6603 0.476124H68.9298L71.9525 8.56494H70.7434L70.1268 6.79967H66.4512L65.8345 8.56494H64.6254ZM66.8018 5.82031H69.7762L68.289 1.62476L66.8018 5.82031ZM76.3808 8.56494V0.488214H81.858V1.46758H77.5174V3.92203H80.7215V4.9014H77.5174V7.58558H81.858V8.56494H76.3808ZM83.241 8.56494V0.488214H85.1272L87.2794 7.08985L89.4315 0.488214H91.3177V8.56494H90.1812V1.67312L87.8476 8.56494H86.7232L84.3775 1.67312V8.56494H83.241ZM96.4272 8.56494V7.67021H97.5637V1.38294H96.4272V0.488214H99.8368V1.38294H98.7003V7.67021H99.8368V8.56494H96.4272ZM101.554 8.56494V0.488214H103.235L106.911 7.35585V0.488214H108.047V8.56494H106.379L102.691 1.66103V8.56494H101.554ZM111.861 8.56494L109.093 0.488214H110.338L112.526 7.23494L114.727 0.488214H115.972L113.191 8.56494H111.861ZM117.011 8.56494V0.488214H122.488V1.46758H118.147V3.92203H121.351V4.9014H118.147V7.58558H122.488V8.56494H117.011ZM126.531 8.71003C126.087 8.71003 125.656 8.64152 125.237 8.50449C124.818 8.36746 124.447 8.15788 124.125 7.87576C123.81 7.59364 123.581 7.23494 123.435 6.79967L124.487 6.48531C124.584 6.77549 124.741 7.01731 124.959 7.21076C125.177 7.39615 125.426 7.53318 125.709 7.62185C125.999 7.71052 126.289 7.75485 126.579 7.75485C126.901 7.75485 127.208 7.70246 127.498 7.59767C127.788 7.49288 128.022 7.3357 128.199 7.12612C128.385 6.90849 128.477 6.63846 128.477 6.31603C128.477 5.98555 128.356 5.72358 128.115 5.53012C127.873 5.33667 127.454 5.16337 126.857 5.01021L125.829 4.78049C125.459 4.68376 125.092 4.55479 124.729 4.39358C124.374 4.23237 124.08 4.00264 123.847 3.7044C123.621 3.40615 123.508 3.00715 123.508 2.5074C123.508 2.04794 123.649 1.657 123.931 1.33458C124.221 1.01215 124.592 0.766305 125.044 0.597033C125.503 0.42776 125.979 0.343124 126.47 0.343124C126.849 0.343124 127.22 0.399548 127.583 0.512397C127.953 0.617184 128.284 0.782426 128.574 1.00812C128.872 1.22576 129.106 1.50788 129.275 1.85449L128.236 2.15676C128.082 1.87464 127.832 1.66103 127.486 1.51594C127.147 1.37085 126.793 1.29831 126.422 1.29831C126.132 1.29831 125.854 1.34667 125.588 1.4434C125.322 1.53206 125.104 1.66909 124.935 1.85449C124.765 2.03988 124.681 2.27364 124.681 2.55576C124.681 2.82176 124.757 3.03537 124.911 3.19658C125.072 3.35779 125.281 3.48676 125.539 3.58349C125.805 3.67215 126.095 3.75276 126.41 3.82531L127.292 4.01876C127.704 4.11549 128.09 4.24849 128.453 4.41776C128.816 4.58703 129.11 4.82482 129.336 5.13112C129.561 5.43743 129.674 5.84852 129.674 6.3644C129.674 6.73518 129.586 7.0697 129.408 7.36794C129.231 7.65812 128.993 7.90397 128.695 8.10549C128.397 8.29894 128.058 8.44806 127.679 8.55285C127.309 8.65764 126.926 8.71003 126.531 8.71003ZM132.959 8.56494V1.46758H130.275V0.488214H136.78V1.46758H134.096V8.56494H132.959ZM137.694 8.56494V7.67021H138.831V1.38294H137.694V0.488214H141.104V1.38294H139.968V7.67021H141.104V8.56494H137.694ZM142.822 8.56494V0.488214H144.708L146.86 7.08985L149.012 0.488214H150.898V8.56494H149.762V1.67312L147.428 8.56494H146.304L143.958 1.67312V8.56494H142.822ZM152.74 8.56494V0.488214H158.217V1.46758H153.877V3.92203H157.081V4.9014H153.877V7.58558H158.217V8.56494H152.74ZM159.6 8.56494V0.488214H161.281L164.957 7.35585V0.488214H166.093V8.56494H164.425L160.737 1.66103V8.56494H159.6ZM169.823 8.56494V1.46758H167.138V0.488214H173.643V1.46758H170.959V8.56494H169.823ZM177.688 8.71003C176.914 8.71003 176.245 8.5327 175.681 8.17803C175.117 7.81531 174.677 7.31958 174.363 6.69085C174.057 6.05406 173.904 5.32861 173.904 4.51449C173.904 3.70037 174.057 2.98297 174.363 2.36231C174.677 1.73358 175.117 1.24188 175.681 0.887214C176.245 0.524487 176.914 0.343124 177.688 0.343124C178.47 0.343124 179.143 0.524487 179.707 0.887214C180.271 1.24188 180.707 1.73358 181.013 2.36231C181.327 2.98297 181.485 3.70037 181.485 4.51449C181.485 5.32861 181.327 6.05406 181.013 6.69085C180.707 7.31958 180.271 7.81531 179.707 8.17803C179.143 8.5327 178.47 8.71003 177.688 8.71003ZM177.688 7.75485C178.18 7.75485 178.623 7.62991 179.018 7.38003C179.421 7.13015 179.739 6.76743 179.973 6.29185C180.207 5.80821 180.324 5.21576 180.324 4.51449C180.324 3.82127 180.207 3.23688 179.973 2.76131C179.739 2.27767 179.421 1.91494 179.018 1.67312C178.623 1.42324 178.18 1.29831 177.688 1.29831C177.204 1.29831 176.761 1.42324 176.358 1.67312C175.963 1.91494 175.649 2.27767 175.415 2.76131C175.181 3.23688 175.064 3.82127 175.064 4.51449C175.064 5.21576 175.181 5.80821 175.415 6.29185C175.649 6.76743 175.963 7.13015 176.358 7.38003C176.761 7.62991 177.204 7.75485 177.688 7.75485ZM185.663 8.71003C185.219 8.71003 184.788 8.64152 184.369 8.50449C183.95 8.36746 183.579 8.15788 183.257 7.87576C182.942 7.59364 182.713 7.23494 182.568 6.79967L183.619 6.48531C183.716 6.77549 183.873 7.01731 184.091 7.21076C184.309 7.39615 184.558 7.53318 184.841 7.62185C185.131 7.71052 185.421 7.75485 185.711 7.75485C186.034 7.75485 186.34 7.70246 186.63 7.59767C186.92 7.49288 187.154 7.3357 187.331 7.12612C187.517 6.90849 187.609 6.63846 187.609 6.31603C187.609 5.98555 187.489 5.72358 187.247 5.53012C187.005 5.33667 186.586 5.16337 185.989 5.01021L184.962 4.78049C184.591 4.68376 184.224 4.55479 183.861 4.39358C183.507 4.23237 183.212 4.00264 182.979 3.7044C182.753 3.40615 182.64 3.00715 182.64 2.5074C182.64 2.04794 182.781 1.657 183.063 1.33458C183.353 1.01215 183.724 0.766305 184.176 0.597033C184.635 0.42776 185.111 0.343124 185.602 0.343124C185.981 0.343124 186.352 0.399548 186.715 0.512397C187.085 0.617184 187.416 0.782426 187.706 1.00812C188.004 1.22576 188.238 1.50788 188.407 1.85449L187.368 2.15676C187.214 1.87464 186.965 1.66103 186.618 1.51594C186.279 1.37085 185.925 1.29831 185.554 1.29831C185.264 1.29831 184.986 1.34667 184.72 1.4434C184.454 1.53206 184.236 1.66909 184.067 1.85449C183.898 2.03988 183.813 2.27364 183.813 2.55576C183.813 2.82176 183.889 3.03537 184.043 3.19658C184.204 3.35779 184.413 3.48676 184.671 3.58349C184.937 3.67215 185.228 3.75276 185.542 3.82531L186.425 4.01876C186.836 4.11549 187.223 4.24849 187.585 4.41776C187.948 4.58703 188.242 4.82482 188.468 5.13112C188.694 5.43743 188.806 5.84852 188.806 6.3644C188.806 6.73518 188.718 7.0697 188.54 7.36794C188.363 7.65812 188.125 7.90397 187.827 8.10549C187.529 8.29894 187.19 8.44806 186.811 8.55285C186.441 8.65764 186.058 8.71003 185.663 8.71003Z" fill="black"/>
</svg>
