<svg width="795" height="430" viewBox="0 0 795 430" fill="none" xmlns="http://www.w3.org/2000/svg">
<path fill-rule="evenodd" clip-rule="evenodd" d="M715.251 0.240024H124.08V0.23938C108.4 0.23938 109.121 2.05547 112.282 10.0102C114.437 15.4322 117.725 23.706 117.725 36.2005C117.725 78.6304 83.3287 113.027 40.8988 113.027C16.2336 113.027 6.73764 102.556 3.10537 104.299C0.518463 105.541 0.905815 112.979 0.905815 134.807V354.868C0.905815 394.259 37.368 428.276 76.7551 428.276H435.494C452.048 428.276 460.976 409.317 463.705 385.252C464.843 375.222 464.874 362.841 464.905 350.599C464.93 340.758 464.955 331.006 465.554 322.638C467.149 300.35 493.025 276.487 521.517 276.252L740.912 274.449C773.941 274.178 793.013 253.243 793.013 231.328V76.3743C793.013 36.9839 754.64 0.240024 715.251 0.240024ZM533.27 292.237H742.102C771.317 292.237 795 315.483 795 344.159V378.016C795 406.691 771.317 429.938 742.102 429.938H533.27C504.056 429.938 480.373 406.691 480.373 378.016V344.159C480.373 315.483 504.056 292.237 533.27 292.237Z" fill="white"/>
</svg>
