<svg width="814" height="455" viewBox="0 0 814 455" fill="none" xmlns="http://www.w3.org/2000/svg">
<path fill-rule="evenodd" clip-rule="evenodd" d="M734.251 25.24H143.08C127.4 25.24 128.121 27.0558 131.282 35.0103C133.437 40.4322 136.725 48.7059 136.725 61.2005C136.725 103.63 102.329 138.027 59.8988 138.027C35.2336 138.027 25.7377 127.556 22.1054 129.299C19.5185 130.541 19.9058 137.979 19.9058 159.807V379.868C19.9058 419.259 56.368 453.276 95.7551 453.276H454.494C471.048 453.276 479.976 434.317 482.705 410.252C483.843 400.222 483.874 387.841 483.905 375.599C483.93 365.758 483.955 356.006 484.554 347.638C486.149 325.35 512.025 301.486 540.517 301.252L759.912 299.449C792.941 299.178 812.013 278.243 812.013 256.328V101.374C812.013 61.9839 773.64 25.24 734.251 25.24ZM552.27 317.237H761.102C790.317 317.237 814 340.483 814 369.159V403.016C814 431.691 790.317 454.938 761.102 454.938H552.27C523.056 454.938 499.373 431.691 499.373 403.016V369.159C499.373 340.483 523.056 317.237 552.27 317.237Z" fill="white"/>
<path d="M533.479 381.161L540.967 364.361H544.807L552.319 381.161H548.239L542.095 366.329H543.631L537.463 381.161H533.479ZM537.223 377.561L538.255 374.609H546.895L547.951 377.561H537.223ZM558.025 381.353C556.921 381.353 555.857 381.225 554.833 380.969C553.825 380.697 553.025 380.361 552.433 379.961L553.681 377.273C554.273 377.641 554.969 377.945 555.769 378.185C556.585 378.409 557.385 378.521 558.169 378.521C559.033 378.521 559.641 378.417 559.993 378.209C560.361 378.001 560.545 377.713 560.545 377.345C560.545 377.041 560.401 376.817 560.113 376.673C559.841 376.513 559.473 376.393 559.009 376.313C558.545 376.233 558.033 376.153 557.473 376.073C556.929 375.993 556.377 375.889 555.817 375.761C555.257 375.617 554.745 375.409 554.281 375.137C553.817 374.865 553.441 374.497 553.153 374.033C552.881 373.569 552.745 372.969 552.745 372.233C552.745 371.417 552.977 370.697 553.441 370.073C553.921 369.449 554.609 368.961 555.505 368.609C556.401 368.241 557.473 368.057 558.721 368.057C559.601 368.057 560.497 368.153 561.409 368.345C562.321 368.537 563.081 368.817 563.689 369.185L562.441 371.849C561.817 371.481 561.185 371.233 560.545 371.105C559.921 370.961 559.313 370.889 558.721 370.889C557.889 370.889 557.281 371.001 556.897 371.225C556.513 371.449 556.321 371.737 556.321 372.089C556.321 372.409 556.457 372.649 556.729 372.809C557.017 372.969 557.393 373.097 557.857 373.193C558.321 373.289 558.825 373.377 559.369 373.457C559.929 373.521 560.489 373.625 561.049 373.769C561.609 373.913 562.113 374.121 562.561 374.393C563.025 374.649 563.401 375.009 563.689 375.473C563.977 375.921 564.121 376.513 564.121 377.249C564.121 378.049 563.881 378.761 563.401 379.385C562.921 379.993 562.225 380.473 561.313 380.825C560.417 381.177 559.321 381.353 558.025 381.353ZM570.775 381.353C569.671 381.353 568.607 381.225 567.583 380.969C566.575 380.697 565.775 380.361 565.183 379.961L566.431 377.273C567.023 377.641 567.719 377.945 568.519 378.185C569.335 378.409 570.135 378.521 570.919 378.521C571.783 378.521 572.391 378.417 572.743 378.209C573.111 378.001 573.295 377.713 573.295 377.345C573.295 377.041 573.151 376.817 572.863 376.673C572.591 376.513 572.223 376.393 571.759 376.313C571.295 376.233 570.783 376.153 570.223 376.073C569.679 375.993 569.127 375.889 568.567 375.761C568.007 375.617 567.495 375.409 567.031 375.137C566.567 374.865 566.191 374.497 565.903 374.033C565.631 373.569 565.495 372.969 565.495 372.233C565.495 371.417 565.727 370.697 566.191 370.073C566.671 369.449 567.359 368.961 568.255 368.609C569.151 368.241 570.223 368.057 571.471 368.057C572.351 368.057 573.247 368.153 574.159 368.345C575.071 368.537 575.831 368.817 576.439 369.185L575.191 371.849C574.567 371.481 573.935 371.233 573.295 371.105C572.671 370.961 572.063 370.889 571.471 370.889C570.639 370.889 570.031 371.001 569.647 371.225C569.263 371.449 569.071 371.737 569.071 372.089C569.071 372.409 569.207 372.649 569.479 372.809C569.767 372.969 570.143 373.097 570.607 373.193C571.071 373.289 571.575 373.377 572.119 373.457C572.679 373.521 573.239 373.625 573.799 373.769C574.359 373.913 574.863 374.121 575.311 374.393C575.775 374.649 576.151 375.009 576.439 375.473C576.727 375.921 576.871 376.513 576.871 377.249C576.871 378.049 576.631 378.761 576.151 379.385C575.671 379.993 574.975 380.473 574.063 380.825C573.167 381.177 572.071 381.353 570.775 381.353ZM579.181 381.161V368.249H582.925V381.161H579.181ZM581.053 366.449C580.365 366.449 579.805 366.249 579.373 365.849C578.941 365.449 578.725 364.953 578.725 364.361C578.725 363.769 578.941 363.273 579.373 362.873C579.805 362.473 580.365 362.273 581.053 362.273C581.741 362.273 582.301 362.465 582.733 362.849C583.165 363.217 583.381 363.697 583.381 364.289C583.381 364.913 583.165 365.433 582.733 365.849C582.317 366.249 581.757 366.449 581.053 366.449ZM590.743 381.353C589.639 381.353 588.575 381.225 587.551 380.969C586.543 380.697 585.743 380.361 585.151 379.961L586.399 377.273C586.991 377.641 587.687 377.945 588.487 378.185C589.303 378.409 590.103 378.521 590.887 378.521C591.751 378.521 592.359 378.417 592.711 378.209C593.079 378.001 593.263 377.713 593.263 377.345C593.263 377.041 593.119 376.817 592.831 376.673C592.559 376.513 592.191 376.393 591.727 376.313C591.263 376.233 590.751 376.153 590.191 376.073C589.647 375.993 589.095 375.889 588.535 375.761C587.975 375.617 587.463 375.409 586.999 375.137C586.535 374.865 586.159 374.497 585.871 374.033C585.599 373.569 585.463 372.969 585.463 372.233C585.463 371.417 585.695 370.697 586.159 370.073C586.639 369.449 587.327 368.961 588.223 368.609C589.119 368.241 590.191 368.057 591.439 368.057C592.319 368.057 593.215 368.153 594.127 368.345C595.039 368.537 595.799 368.817 596.407 369.185L595.159 371.849C594.535 371.481 593.903 371.233 593.263 371.105C592.639 370.961 592.031 370.889 591.439 370.889C590.607 370.889 589.999 371.001 589.615 371.225C589.231 371.449 589.039 371.737 589.039 372.089C589.039 372.409 589.175 372.649 589.447 372.809C589.735 372.969 590.111 373.097 590.575 373.193C591.039 373.289 591.543 373.377 592.087 373.457C592.647 373.521 593.207 373.625 593.767 373.769C594.327 373.913 594.831 374.121 595.279 374.393C595.743 374.649 596.119 375.009 596.407 375.473C596.695 375.921 596.839 376.513 596.839 377.249C596.839 378.049 596.599 378.761 596.119 379.385C595.639 379.993 594.943 380.473 594.031 380.825C593.135 381.177 592.039 381.353 590.743 381.353ZM604.429 381.353C602.909 381.353 601.725 380.969 600.877 380.201C600.029 379.417 599.605 378.257 599.605 376.721V365.393H603.349V376.673C603.349 377.217 603.493 377.641 603.781 377.945C604.069 378.233 604.461 378.377 604.957 378.377C605.549 378.377 606.053 378.217 606.469 377.897L607.477 380.537C607.093 380.809 606.629 381.017 606.085 381.161C605.557 381.289 605.005 381.353 604.429 381.353ZM597.613 371.417V368.537H606.565V371.417H597.613ZM617.499 381.161V378.641L617.259 378.089V373.577C617.259 372.777 617.011 372.153 616.515 371.705C616.035 371.257 615.291 371.033 614.283 371.033C613.595 371.033 612.915 371.145 612.243 371.369C611.587 371.577 611.027 371.865 610.563 372.233L609.219 369.617C609.923 369.121 610.771 368.737 611.763 368.465C612.755 368.193 613.763 368.057 614.787 368.057C616.755 368.057 618.283 368.521 619.371 369.449C620.459 370.377 621.003 371.825 621.003 373.793V381.161H617.499ZM613.563 381.353C612.555 381.353 611.691 381.185 610.971 380.849C610.251 380.497 609.699 380.025 609.315 379.433C608.931 378.841 608.739 378.177 608.739 377.441C608.739 376.673 608.923 376.001 609.291 375.425C609.675 374.849 610.275 374.401 611.091 374.081C611.907 373.745 612.971 373.577 614.283 373.577H617.715V375.761H614.691C613.811 375.761 613.203 375.905 612.867 376.193C612.547 376.481 612.387 376.841 612.387 377.273C612.387 377.753 612.571 378.137 612.939 378.425C613.323 378.697 613.843 378.833 614.499 378.833C615.123 378.833 615.683 378.689 616.179 378.401C616.675 378.097 617.035 377.657 617.259 377.081L617.835 378.809C617.563 379.641 617.067 380.273 616.347 380.705C615.627 381.137 614.699 381.353 613.563 381.353ZM637.596 381.353C636.124 381.353 634.828 381.065 633.708 380.489C632.604 379.913 631.748 379.129 631.14 378.137C630.532 377.129 630.228 375.985 630.228 374.705C630.228 373.409 630.524 372.265 631.116 371.273C631.724 370.265 632.548 369.481 633.588 368.921C634.628 368.345 635.804 368.057 637.116 368.057C638.38 368.057 639.516 368.329 640.524 368.873C641.548 369.401 642.356 370.169 642.948 371.177C643.54 372.169 643.836 373.361 643.836 374.753C643.836 374.897 643.828 375.065 643.812 375.257C643.796 375.433 643.78 375.601 643.764 375.761H633.276V373.577H641.796L640.356 374.225C640.356 373.553 640.22 372.969 639.948 372.473C639.676 371.977 639.3 371.593 638.82 371.321C638.34 371.033 637.78 370.889 637.14 370.889C636.5 370.889 635.932 371.033 635.436 371.321C634.956 371.593 634.58 371.985 634.308 372.497C634.036 372.993 633.9 373.585 633.9 374.273V374.849C633.9 375.553 634.052 376.177 634.356 376.721C634.676 377.249 635.116 377.657 635.676 377.945C636.252 378.217 636.924 378.353 637.692 378.353C638.38 378.353 638.98 378.249 639.492 378.041C640.02 377.833 640.5 377.521 640.932 377.105L642.924 379.265C642.332 379.937 641.588 380.457 640.692 380.825C639.796 381.177 638.764 381.353 637.596 381.353ZM659.366 381.353C657.974 381.353 656.734 381.073 655.646 380.513C654.558 379.937 653.702 379.145 653.078 378.137C652.47 377.129 652.166 375.985 652.166 374.705C652.166 373.409 652.47 372.265 653.078 371.273C653.702 370.265 654.558 369.481 655.646 368.921C656.734 368.345 657.974 368.057 659.366 368.057C660.726 368.057 661.91 368.345 662.918 368.921C663.926 369.481 664.67 370.289 665.15 371.345L662.246 372.905C661.91 372.297 661.486 371.849 660.974 371.561C660.478 371.273 659.934 371.129 659.342 371.129C658.702 371.129 658.126 371.273 657.614 371.561C657.102 371.849 656.694 372.257 656.39 372.785C656.102 373.313 655.958 373.953 655.958 374.705C655.958 375.457 656.102 376.097 656.39 376.625C656.694 377.153 657.102 377.561 657.614 377.849C658.126 378.137 658.702 378.281 659.342 378.281C659.934 378.281 660.478 378.145 660.974 377.873C661.486 377.585 661.91 377.129 662.246 376.505L665.15 378.089C664.67 379.129 663.926 379.937 662.918 380.513C661.91 381.073 660.726 381.353 659.366 381.353ZM673.285 381.353C671.909 381.353 670.685 381.065 669.613 380.489C668.557 379.913 667.717 379.129 667.093 378.137C666.485 377.129 666.181 375.985 666.181 374.705C666.181 373.409 666.485 372.265 667.093 371.273C667.717 370.265 668.557 369.481 669.613 368.921C670.685 368.345 671.909 368.057 673.285 368.057C674.645 368.057 675.861 368.345 676.933 368.921C678.005 369.481 678.845 370.257 679.453 371.249C680.061 372.241 680.365 373.393 680.365 374.705C680.365 375.985 680.061 377.129 679.453 378.137C678.845 379.129 678.005 379.913 676.933 380.489C675.861 381.065 674.645 381.353 673.285 381.353ZM673.285 378.281C673.909 378.281 674.469 378.137 674.965 377.849C675.461 377.561 675.853 377.153 676.141 376.625C676.429 376.081 676.573 375.441 676.573 374.705C676.573 373.953 676.429 373.313 676.141 372.785C675.853 372.257 675.461 371.849 674.965 371.561C674.469 371.273 673.909 371.129 673.285 371.129C672.661 371.129 672.101 371.273 671.605 371.561C671.109 371.849 670.709 372.257 670.405 372.785C670.117 373.313 669.973 373.953 669.973 374.705C669.973 375.441 670.117 376.081 670.405 376.625C670.709 377.153 671.109 377.561 671.605 377.849C672.101 378.137 672.661 378.281 673.285 378.281ZM690.716 368.057C691.74 368.057 692.652 368.265 693.452 368.681C694.268 369.081 694.908 369.705 695.372 370.553C695.836 371.385 696.068 372.457 696.068 373.769V381.161H692.324V374.345C692.324 373.305 692.092 372.537 691.628 372.041C691.18 371.545 690.54 371.297 689.708 371.297C689.116 371.297 688.58 371.425 688.1 371.681C687.636 371.921 687.268 372.297 686.996 372.809C686.74 373.321 686.612 373.977 686.612 374.777V381.161H682.868V368.249H686.444V371.825L685.772 370.745C686.236 369.881 686.9 369.217 687.764 368.753C688.628 368.289 689.612 368.057 690.716 368.057ZM707.31 368.057C708.334 368.057 709.246 368.265 710.046 368.681C710.862 369.081 711.502 369.705 711.966 370.553C712.43 371.385 712.662 372.457 712.662 373.769V381.161H708.918V374.345C708.918 373.305 708.686 372.537 708.222 372.041C707.774 371.545 707.134 371.297 706.302 371.297C705.71 371.297 705.174 371.425 704.694 371.681C704.23 371.921 703.862 372.297 703.59 372.809C703.334 373.321 703.206 373.977 703.206 374.777V381.161H699.462V363.353H703.206V371.825L702.366 370.745C702.83 369.881 703.494 369.217 704.358 368.753C705.222 368.289 706.206 368.057 707.31 368.057ZM722.557 381.353C721.085 381.353 719.789 381.065 718.669 380.489C717.565 379.913 716.709 379.129 716.101 378.137C715.493 377.129 715.189 375.985 715.189 374.705C715.189 373.409 715.485 372.265 716.077 371.273C716.685 370.265 717.509 369.481 718.549 368.921C719.589 368.345 720.765 368.057 722.077 368.057C723.341 368.057 724.477 368.329 725.485 368.873C726.509 369.401 727.317 370.169 727.909 371.177C728.501 372.169 728.797 373.361 728.797 374.753C728.797 374.897 728.789 375.065 728.773 375.257C728.757 375.433 728.741 375.601 728.725 375.761H718.237V373.577H726.757L725.317 374.225C725.317 373.553 725.181 372.969 724.909 372.473C724.637 371.977 724.261 371.593 723.781 371.321C723.301 371.033 722.741 370.889 722.101 370.889C721.461 370.889 720.893 371.033 720.397 371.321C719.917 371.593 719.541 371.985 719.269 372.497C718.997 372.993 718.861 373.585 718.861 374.273V374.849C718.861 375.553 719.013 376.177 719.317 376.721C719.637 377.249 720.077 377.657 720.637 377.945C721.213 378.217 721.885 378.353 722.653 378.353C723.341 378.353 723.941 378.249 724.453 378.041C724.981 377.833 725.461 377.521 725.893 377.105L727.885 379.265C727.293 379.937 726.549 380.457 725.653 380.825C724.757 381.177 723.725 381.353 722.557 381.353ZM737.53 381.353C736.138 381.353 734.898 381.073 733.81 380.513C732.722 379.937 731.866 379.145 731.242 378.137C730.634 377.129 730.33 375.985 730.33 374.705C730.33 373.409 730.634 372.265 731.242 371.273C731.866 370.265 732.722 369.481 733.81 368.921C734.898 368.345 736.138 368.057 737.53 368.057C738.89 368.057 740.074 368.345 741.082 368.921C742.09 369.481 742.834 370.289 743.314 371.345L740.41 372.905C740.074 372.297 739.65 371.849 739.138 371.561C738.642 371.273 738.098 371.129 737.506 371.129C736.866 371.129 736.29 371.273 735.778 371.561C735.266 371.849 734.858 372.257 734.554 372.785C734.266 373.313 734.122 373.953 734.122 374.705C734.122 375.457 734.266 376.097 734.554 376.625C734.858 377.153 735.266 377.561 735.778 377.849C736.29 378.137 736.866 378.281 737.506 378.281C738.098 378.281 738.642 378.145 739.138 377.873C739.65 377.585 740.074 377.129 740.41 376.505L743.314 378.089C742.834 379.129 742.09 379.937 741.082 380.513C740.074 381.073 738.89 381.353 737.53 381.353ZM736.162 386.729C735.746 386.729 735.338 386.681 734.938 386.585C734.554 386.489 734.218 386.369 733.93 386.225L734.506 384.617C734.746 384.729 734.994 384.817 735.25 384.881C735.506 384.945 735.778 384.977 736.066 384.977C736.514 384.977 736.834 384.905 737.026 384.761C737.218 384.617 737.314 384.433 737.314 384.209C737.314 384.001 737.218 383.833 737.026 383.705C736.85 383.577 736.554 383.513 736.138 383.513H735.322L735.946 380.969H737.938L737.602 382.361C738.322 382.441 738.85 382.665 739.186 383.033C739.522 383.417 739.69 383.857 739.69 384.353C739.69 385.073 739.37 385.649 738.73 386.081C738.09 386.513 737.234 386.729 736.162 386.729ZM753.39 381.161V378.641L753.15 378.089V373.577C753.15 372.777 752.902 372.153 752.406 371.705C751.926 371.257 751.182 371.033 750.174 371.033C749.486 371.033 748.806 371.145 748.134 371.369C747.478 371.577 746.918 371.865 746.454 372.233L745.11 369.617C745.814 369.121 746.662 368.737 747.654 368.465C748.646 368.193 749.654 368.057 750.678 368.057C752.646 368.057 754.174 368.521 755.262 369.449C756.35 370.377 756.894 371.825 756.894 373.793V381.161H753.39ZM749.454 381.353C748.446 381.353 747.582 381.185 746.862 380.849C746.142 380.497 745.59 380.025 745.206 379.433C744.822 378.841 744.63 378.177 744.63 377.441C744.63 376.673 744.814 376.001 745.182 375.425C745.566 374.849 746.166 374.401 746.982 374.081C747.798 373.745 748.862 373.577 750.174 373.577H753.606V375.761H750.582C749.702 375.761 749.094 375.905 748.758 376.193C748.438 376.481 748.278 376.841 748.278 377.273C748.278 377.753 748.462 378.137 748.83 378.425C749.214 378.697 749.734 378.833 750.39 378.833C751.014 378.833 751.574 378.689 752.07 378.401C752.566 378.097 752.926 377.657 753.15 377.081L753.726 378.809C753.454 379.641 752.958 380.273 752.238 380.705C751.518 381.137 750.59 381.353 749.454 381.353ZM774.999 381.161V378.641L774.759 378.089V373.577C774.759 372.777 774.511 372.153 774.015 371.705C773.535 371.257 772.791 371.033 771.783 371.033C771.095 371.033 770.415 371.145 769.743 371.369C769.087 371.577 768.527 371.865 768.063 372.233L766.719 369.617C767.423 369.121 768.271 368.737 769.263 368.465C770.255 368.193 771.263 368.057 772.287 368.057C774.255 368.057 775.783 368.521 776.871 369.449C777.959 370.377 778.503 371.825 778.503 373.793V381.161H774.999ZM771.063 381.353C770.055 381.353 769.191 381.185 768.471 380.849C767.751 380.497 767.199 380.025 766.815 379.433C766.431 378.841 766.239 378.177 766.239 377.441C766.239 376.673 766.423 376.001 766.791 375.425C767.175 374.849 767.775 374.401 768.591 374.081C769.407 373.745 770.471 373.577 771.783 373.577H775.215V375.761H772.191C771.311 375.761 770.703 375.905 770.367 376.193C770.047 376.481 769.887 376.841 769.887 377.273C769.887 377.753 770.071 378.137 770.439 378.425C770.823 378.697 771.343 378.833 771.999 378.833C772.623 378.833 773.183 378.689 773.679 378.401C774.175 378.097 774.535 377.657 774.759 377.081L775.335 378.809C775.063 379.641 774.567 380.273 773.847 380.705C773.127 381.137 772.199 381.353 771.063 381.353ZM608.513 397.057C609.537 397.057 610.441 397.265 611.225 397.681C612.025 398.081 612.649 398.705 613.097 399.553C613.561 400.385 613.793 401.457 613.793 402.769V410.161H610.049V403.345C610.049 402.305 609.833 401.537 609.401 401.041C608.969 400.545 608.361 400.297 607.577 400.297C607.033 400.297 606.545 400.425 606.113 400.681C605.681 400.921 605.345 401.289 605.105 401.785C604.865 402.281 604.745 402.913 604.745 403.681V410.161H601.001V403.345C601.001 402.305 600.785 401.537 600.353 401.041C599.937 400.545 599.337 400.297 598.553 400.297C598.009 400.297 597.521 400.425 597.089 400.681C596.657 400.921 596.321 401.289 596.081 401.785C595.841 402.281 595.721 402.913 595.721 403.681V410.161H591.977V397.249H595.553V400.777L594.881 399.745C595.329 398.865 595.961 398.201 596.777 397.753C597.609 397.289 598.553 397.057 599.609 397.057C600.793 397.057 601.825 397.361 602.705 397.969C603.601 398.561 604.193 399.473 604.481 400.705L603.161 400.345C603.593 399.337 604.281 398.537 605.225 397.945C606.185 397.353 607.281 397.057 608.513 397.057ZM623.651 410.353C622.179 410.353 620.883 410.065 619.763 409.489C618.659 408.913 617.803 408.129 617.195 407.137C616.587 406.129 616.283 404.985 616.283 403.705C616.283 402.409 616.579 401.265 617.171 400.273C617.779 399.265 618.603 398.481 619.643 397.921C620.683 397.345 621.859 397.057 623.171 397.057C624.435 397.057 625.571 397.329 626.579 397.873C627.603 398.401 628.411 399.169 629.003 400.177C629.595 401.169 629.891 402.361 629.891 403.753C629.891 403.897 629.883 404.065 629.867 404.257C629.851 404.433 629.835 404.601 629.819 404.761H619.331V402.577H627.851L626.411 403.225C626.411 402.553 626.275 401.969 626.003 401.473C625.731 400.977 625.355 400.593 624.875 400.321C624.395 400.033 623.835 399.889 623.195 399.889C622.555 399.889 621.987 400.033 621.491 400.321C621.011 400.593 620.635 400.985 620.363 401.497C620.091 401.993 619.955 402.585 619.955 403.273V403.849C619.955 404.553 620.107 405.177 620.411 405.721C620.731 406.249 621.171 406.657 621.731 406.945C622.307 407.217 622.979 407.353 623.747 407.353C624.435 407.353 625.035 407.249 625.547 407.041C626.075 406.833 626.555 406.521 626.987 406.105L628.979 408.265C628.387 408.937 627.643 409.457 626.747 409.825C625.851 410.177 624.819 410.353 623.651 410.353ZM637.664 410.353C636.144 410.353 634.96 409.969 634.112 409.201C633.264 408.417 632.84 407.257 632.84 405.721V394.393H636.584V405.673C636.584 406.217 636.728 406.641 637.016 406.945C637.304 407.233 637.696 407.377 638.192 407.377C638.784 407.377 639.288 407.217 639.704 406.897L640.712 409.537C640.328 409.809 639.864 410.017 639.32 410.161C638.792 410.289 638.24 410.353 637.664 410.353ZM630.848 400.417V397.537H639.8V400.417H630.848ZM650.733 410.161V407.641L650.493 407.089V402.577C650.493 401.777 650.245 401.153 649.749 400.705C649.269 400.257 648.525 400.033 647.517 400.033C646.829 400.033 646.149 400.145 645.477 400.369C644.821 400.577 644.261 400.865 643.797 401.233L642.453 398.617C643.157 398.121 644.005 397.737 644.997 397.465C645.989 397.193 646.997 397.057 648.021 397.057C649.989 397.057 651.517 397.521 652.605 398.449C653.693 399.377 654.237 400.825 654.237 402.793V410.161H650.733ZM646.797 410.353C645.789 410.353 644.925 410.185 644.205 409.849C643.485 409.497 642.933 409.025 642.549 408.433C642.165 407.841 641.973 407.177 641.973 406.441C641.973 405.673 642.157 405.001 642.525 404.425C642.909 403.849 643.509 403.401 644.325 403.081C645.141 402.745 646.205 402.577 647.517 402.577H650.949V404.761H647.925C647.045 404.761 646.437 404.905 646.101 405.193C645.781 405.481 645.621 405.841 645.621 406.273C645.621 406.753 645.805 407.137 646.173 407.425C646.557 407.697 647.077 407.833 647.733 407.833C648.357 407.833 648.917 407.689 649.413 407.401C649.909 407.097 650.269 406.657 650.493 406.081L651.069 407.809C650.797 408.641 650.301 409.273 649.581 409.705C648.861 410.137 647.933 410.353 646.797 410.353ZM660.895 410.161L655.471 397.249H659.335L663.847 408.361H661.927L666.607 397.249H670.207L664.759 410.161H660.895ZM677.792 410.353C676.32 410.353 675.024 410.065 673.904 409.489C672.8 408.913 671.944 408.129 671.336 407.137C670.728 406.129 670.424 404.985 670.424 403.705C670.424 402.409 670.72 401.265 671.312 400.273C671.92 399.265 672.744 398.481 673.784 397.921C674.824 397.345 676 397.057 677.312 397.057C678.576 397.057 679.712 397.329 680.72 397.873C681.744 398.401 682.552 399.169 683.144 400.177C683.736 401.169 684.032 402.361 684.032 403.753C684.032 403.897 684.024 404.065 684.008 404.257C683.992 404.433 683.976 404.601 683.96 404.761H673.472V402.577H681.992L680.552 403.225C680.552 402.553 680.416 401.969 680.144 401.473C679.872 400.977 679.496 400.593 679.016 400.321C678.536 400.033 677.976 399.889 677.336 399.889C676.696 399.889 676.128 400.033 675.632 400.321C675.152 400.593 674.776 400.985 674.504 401.497C674.232 401.993 674.096 402.585 674.096 403.273V403.849C674.096 404.553 674.248 405.177 674.552 405.721C674.872 406.249 675.312 406.657 675.872 406.945C676.448 407.217 677.12 407.353 677.888 407.353C678.576 407.353 679.176 407.249 679.688 407.041C680.216 406.833 680.696 406.521 681.128 406.105L683.12 408.265C682.528 408.937 681.784 409.457 680.888 409.825C679.992 410.177 678.96 410.353 677.792 410.353ZM686.524 410.161V397.249H690.1V400.897L689.596 399.841C689.98 398.929 690.596 398.241 691.444 397.777C692.292 397.297 693.324 397.057 694.54 397.057V400.513C694.38 400.497 694.236 400.489 694.108 400.489C693.98 400.473 693.844 400.465 693.7 400.465C692.676 400.465 691.844 400.761 691.204 401.353C690.58 401.929 690.268 402.833 690.268 404.065V410.161H686.524ZM701.204 410.353C700.1 410.353 699.036 410.225 698.012 409.969C697.004 409.697 696.204 409.361 695.612 408.961L696.86 406.273C697.452 406.641 698.148 406.945 698.948 407.185C699.764 407.409 700.564 407.521 701.348 407.521C702.212 407.521 702.82 407.417 703.172 407.209C703.54 407.001 703.724 406.713 703.724 406.345C703.724 406.041 703.58 405.817 703.292 405.673C703.02 405.513 702.652 405.393 702.188 405.313C701.724 405.233 701.212 405.153 700.652 405.073C700.108 404.993 699.556 404.889 698.996 404.761C698.436 404.617 697.924 404.409 697.46 404.137C696.996 403.865 696.62 403.497 696.332 403.033C696.06 402.569 695.924 401.969 695.924 401.233C695.924 400.417 696.156 399.697 696.62 399.073C697.1 398.449 697.788 397.961 698.684 397.609C699.58 397.241 700.652 397.057 701.9 397.057C702.78 397.057 703.676 397.153 704.588 397.345C705.5 397.537 706.26 397.817 706.868 398.185L705.62 400.849C704.996 400.481 704.364 400.233 703.724 400.105C703.1 399.961 702.492 399.889 701.9 399.889C701.068 399.889 700.46 400.001 700.076 400.225C699.692 400.449 699.5 400.737 699.5 401.089C699.5 401.409 699.636 401.649 699.908 401.809C700.196 401.969 700.572 402.097 701.036 402.193C701.5 402.289 702.004 402.377 702.548 402.457C703.108 402.521 703.668 402.625 704.228 402.769C704.788 402.913 705.292 403.121 705.74 403.393C706.204 403.649 706.58 404.009 706.868 404.473C707.156 404.921 707.3 405.513 707.3 406.249C707.3 407.049 707.06 407.761 706.58 408.385C706.1 408.993 705.404 409.473 704.492 409.825C703.596 410.177 702.5 410.353 701.204 410.353ZM715.754 410.353C714.378 410.353 713.154 410.065 712.082 409.489C711.026 408.913 710.186 408.129 709.562 407.137C708.954 406.129 708.65 404.985 708.65 403.705C708.65 402.409 708.954 401.265 709.562 400.273C710.186 399.265 711.026 398.481 712.082 397.921C713.154 397.345 714.378 397.057 715.754 397.057C717.114 397.057 718.33 397.345 719.402 397.921C720.474 398.481 721.314 399.257 721.922 400.249C722.53 401.241 722.834 402.393 722.834 403.705C722.834 404.985 722.53 406.129 721.922 407.137C721.314 408.129 720.474 408.913 719.402 409.489C718.33 410.065 717.114 410.353 715.754 410.353ZM715.754 407.281C716.378 407.281 716.938 407.137 717.434 406.849C717.93 406.561 718.322 406.153 718.61 405.625C718.898 405.081 719.042 404.441 719.042 403.705C719.042 402.953 718.898 402.313 718.61 401.785C718.322 401.257 717.93 400.849 717.434 400.561C716.938 400.273 716.378 400.129 715.754 400.129C715.13 400.129 714.57 400.273 714.074 400.561C713.578 400.849 713.178 401.257 712.874 401.785C712.586 402.313 712.442 402.953 712.442 403.705C712.442 404.441 712.586 405.081 712.874 405.625C713.178 406.153 713.578 406.561 714.074 406.849C714.57 407.137 715.13 407.281 715.754 407.281Z" fill="#0195FF"/>
<path d="M59.8982 119.796C92.979 119.796 119.796 92.979 119.796 59.8982C119.796 26.8173 92.979 0 59.8982 0C26.8173 0 0 26.8173 0 59.8982C0 92.979 26.8173 119.796 59.8982 119.796Z" fill="white"/>
<g filter="url(#filter0_d_347_342)">
<path fill-rule="evenodd" clip-rule="evenodd" d="M84.718 59.8982L67.2799 72.2542L49.8418 84.6102V59.8982V35.1862L67.2799 47.5422L84.718 59.8982Z" fill="#0195FF"/>
</g>
<defs>
<filter id="filter0_d_347_342" x="45.8418" y="35.1862" width="42.876" height="57.424" filterUnits="userSpaceOnUse" color-interpolation-filters="sRGB">
<feFlood flood-opacity="0" result="BackgroundImageFix"/>
<feColorMatrix in="SourceAlpha" type="matrix" values="0 0 0 0 0 0 0 0 0 0 0 0 0 0 0 0 0 0 127 0" result="hardAlpha"/>
<feOffset dy="4"/>
<feGaussianBlur stdDeviation="2"/>
<feComposite in2="hardAlpha" operator="out"/>
<feColorMatrix type="matrix" values="0 0 0 0 0 0 0 0 0 0 0 0 0 0 0 0 0 0 0.25 0"/>
<feBlend mode="normal" in2="BackgroundImageFix" result="effect1_dropShadow_347_342"/>
<feBlend mode="normal" in="SourceGraphic" in2="effect1_dropShadow_347_342" result="shape"/>
</filter>
</defs>
</svg>
