<?xml version="1.0" encoding="UTF-8"?>
<!DOCTYPE svg PUBLIC "-//W3C//DTD SVG 1.1//EN" "http://www.w3.org/Graphics/SVG/1.1/DTD/svg11.dtd">
<!-- Creator: CorelDRAW 2020 (64 Bit) -->
<svg xmlns="http://www.w3.org/2000/svg" xml:space="preserve" width="193.348mm" height="88.6831mm" version="1.1" style="shape-rendering:geometricPrecision; text-rendering:geometricPrecision; image-rendering:optimizeQuality; fill-rule:evenodd; clip-rule:evenodd"
viewBox="0 0 26009.22 11929.66"
 xmlns:xlink="http://www.w3.org/1999/xlink"
 xmlns:xodm="http://www.corel.com/coreldraw/odm/2003">
 <defs>
  <style type="text/css">
   <![CDATA[
    .fil0 {fill:#FEFEFE}
    .fil1 {fill:#FEFEFE;fill-rule:nonzero}
   ]]>
  </style>
 </defs>
 <g id="Camada_x0020_1">
  <metadata id="CorelCorpID_0Corel-Layer"/>
  <path class="fil0" d="M185.96 3743.31l3701.54 -3743.31 3701.55 3743.31 0 5933.35 -7403.09 0 0 -5933.35zm3701.42 3748.15l-3438.59 -3499.03 0 1747.07 3438.59 3503.66 3438.83 -3503.66 0 -1747.07 -3438.83 3499.03zm-1944.84 -3748.13l1916.08 -1916.08 1916.06 1916.08 -1916.06 1916.06 -1916.08 -1916.06z"/>
  <g>
   <path class="fil1" d="M1213.17 10642.86c8.66,4.33 12.99,8.66 21.66,8.66 -8.66,12.99 -17.33,26 -21.66,39l0 -47.66zm8258.12 -121.32l0 -60.66c4.33,-4.33 12.99,-4.33 17.33,-4.33 -4.32,21.66 -12.99,43.33 -17.33,64.99l0 0zm13136.76 307.62l0 21.66 -17.34 0.01 17.34 -21.67zm-21394.89 524.27c-12.99,51.99 -21.66,108.32 -21.66,160.31 0,56.32 8.66,103.98 21.66,147.31l0 -307.62zm-69.33 -524.27c-34.67,-56.32 -86.66,-103.98 -147.31,-134.32 -60.66,-30.33 -129.99,-43.33 -216.63,-43.33 -90.99,0 -168.97,17.33 -246.97,56.32 -73.65,39 -138.65,95.32 -186.31,164.64 -47.66,64.99 -82.33,142.98 -108.32,229.64 -26,82.33 -39,173.3 -39,259.96 0,147.31 39,268.62 112.65,350.95 77.99,86.66 181.98,129.99 311.95,129.99 82.33,0 160.31,-17.33 238.3,-51.99 73.65,-30.33 147.31,-82.33 216.63,-151.64l12.99 17.33c-30.33,56.32 -51.99,121.31 -60.66,181.98 -69.32,30.33 -138.65,51.99 -212.3,69.32 -69.32,12.99 -134.32,21.66 -199.31,21.66 -190.64,0 -342.29,-51.99 -454.93,-155.98 -108.32,-103.98 -164.64,-246.97 -164.64,-433.28 0,-99.65 17.33,-194.97 51.99,-290.29 39,-90.99 86.66,-173.3 155.98,-246.97 73.65,-77.99 164.64,-142.98 264.29,-181.98 99.65,-39 212.3,-60.66 342.29,-60.66 77.99,0 151.64,8.66 220.96,26 60.66,12.99 121.31,34.67 173.3,60.66l0 51.99c-8.66,12.99 -12.99,30.33 -21.66,43.33 -8.66,30.33 -17.33,60.66 -21.66,90.99l-21.66 0.01 0 -4.33zm532.93 129.99l0 77.99c-77.99,17.33 -147.31,69.32 -203.64,151.64 -69.32,103.98 -108.32,229.64 -108.32,381.28 0,90.99 21.66,160.31 60.66,207.97 43.33,47.66 99.65,73.65 177.65,73.65 26,0 47.66,-4.33 73.65,-8.66l0 77.99c-21.66,0 -39,4.33 -60.66,4.33 -129.99,0 -229.64,-39 -307.62,-112.65 -43.33,-43.33 -77.99,-90.99 -95.32,-151.64l0 -307.62c26,-86.66 64.99,-164.64 129.99,-233.97 86.64,-95.33 207.95,-151.66 333.61,-160.32l0 0zm3509.48 688.9l30.33 0c8.66,60.66 34.67,108.32 73.65,147.31 39,34.67 90.99,51.99 147.31,51.99 56.32,0 103.98,-17.33 142.98,-51.99 34.67,-34.67 51.99,-82.33 51.99,-129.99 0,-64.99 -60.66,-125.64 -177.65,-173.3 -4.33,0 -12.99,-4.33 -17.33,-8.66 -73.65,-30.33 -125.64,-64.99 -155.98,-103.98 -30.33,-39 -47.66,-90.99 -43.33,-138.65 0,-82.33 30.33,-155.98 90.99,-207.97 60.66,-56.32 134.32,-82.33 229.64,-82.33 51.99,0 99.65,4.33 142.98,17.33 43.33,12.99 86.66,30.33 121.31,51.99 -12.99,21.66 -21.66,47.66 -30.33,73.65 -8.66,26 -12.99,56.32 -21.66,82.33l-26 0c-17.33,-51.99 -39,-90.99 -73.65,-112.65 -30.33,-26 -73.65,-39 -116.98,-39 -51.99,0 -90.99,12.99 -121.31,47.66 -30.33,30.33 -47.66,69.32 -47.66,112.65 0,60.66 51.99,116.98 168.97,160.31 8.66,4.33 12.99,4.33 17.33,8.66 77.99,34.67 134.32,64.99 164.64,103.98 30.33,39 47.66,82.33 47.66,142.98 0,95.32 -34.67,173.3 -103.98,229.64 -64.99,60.66 -155.98,90.99 -264.29,90.99 -56.32,0 -108.32,-8.66 -160.31,-26 -47.66,-17.33 -90.99,-43.33 -129.99,-73.65 8.66,-30.33 17.33,-64.99 26,-95.32 8.66,-21.66 21.66,-51.99 34.65,-77.98l0 0zm-749.55 0l30.32 0c8.66,60.66 34.67,108.32 73.65,147.31 39,34.67 86.66,51.99 147.31,51.99 60.66,0 103.98,-17.33 142.98,-51.99 34.67,-34.67 51.99,-82.33 51.99,-129.99 0,-64.99 -56.32,-125.64 -177.65,-173.3 -4.33,0 -12.99,-4.33 -17.33,-8.66 -73.65,-30.33 -125.64,-64.99 -155.98,-103.98 -30.33,-39 -47.66,-90.99 -43.33,-138.65 0,-82.33 30.33,-155.98 90.99,-207.97 60.66,-56.32 134.32,-82.33 229.64,-82.33 51.99,0 99.65,4.33 142.98,17.33 43.33,12.99 82.33,30.33 121.31,51.99 -8.66,21.66 -21.66,47.66 -30.33,73.65 -8.66,26 -12.99,56.32 -21.66,82.33l-25.99 0c-12.99,-51.99 -39,-90.99 -73.65,-112.65 -30.33,-26 -69.32,-39 -116.98,-39 -51.99,0 -90.99,12.99 -121.31,47.66 -30.33,30.33 -47.66,69.32 -47.66,112.65 0,60.66 56.32,116.98 168.97,160.31 4.33,0 12.99,4.33 17.33,8.66 82.33,34.67 134.32,64.99 164.64,103.98 30.33,39 47.66,82.33 47.66,142.98 0,95.32 -34.67,173.3 -103.98,229.64 -64.99,60.66 -155.98,90.99 -264.29,90.99 -56.32,0 -108.32,-8.66 -160.31,-26 -47.66,-17.33 -95.32,-43.33 -134.32,-73.65 8.66,-30.33 17.33,-64.99 26,-95.32 17.31,-25.99 30.31,-51.99 38.98,-77.98l0 0zm-480.94 251.3c51.99,-199.31 95.32,-376.94 121.31,-537.26 30.33,-160.31 47.66,-290.29 47.66,-385.62l51.99 8.66 95.32 0c12.99,-4.33 34.67,-4.33 51.99,-8.66 -47.66,168.97 -86.66,337.95 -121.31,511.26 -26,134.32 -43.33,272.95 -51.99,411.6 -21.66,0 -43.33,-4.33 -64.99,-8.66l-73.66 0c-8.66,4.33 -30.33,8.68 -56.32,8.68l0 0zm220.96 -1256.49c0,-30.33 8.66,-51.99 26,-69.32 17.33,-17.33 43.33,-26 69.32,-26 30.33,0 51.99,8.66 69.32,26 12.99,12.99 21.66,39 21.66,69.32 0,26 -8.66,47.66 -26,64.99 -17.33,17.33 -39,26 -69.32,26 -26,0 -51.99,-8.66 -64.99,-26 -17.31,-17.33 -25.99,-39 -25.99,-64.99l0 0zm-1295.47 1256.49c39,-142.98 69.32,-277.29 90.99,-398.61 21.66,-121.31 34.67,-207.97 34.67,-264.29 0,-56.32 -17.33,-95.32 -39,-125.64 -26,-26 -69.32,-39 -116.98,-39 -121.31,0 -212.3,60.66 -272.95,181.98 -60.66,121.31 -103.98,337.95 -129.99,645.58 -17.33,0 -34.67,-4.33 -51.99,-4.33 -17.33,0 -30.33,0 -43.33,0l-30.33 -0.03c-12.99,0 -30.33,4.33 -56.32,8.66 47.66,-177.65 82.33,-346.62 112.65,-506.93 30.33,-160.31 47.66,-298.96 56.32,-415.94 17.33,0 34.67,4.33 47.66,8.66l77.98 0.01 51.99 -8.66c-12.99,30.33 -21.66,64.99 -30.33,95.32 -8.66,30.33 -12.99,60.66 -21.66,90.99 51.99,-73.65 108.32,-125.64 164.64,-155.98 60.66,-30.33 125.64,-51.99 194.97,-47.66 82.33,0 138.65,17.33 181.98,51.99 43.33,34.67 64.99,82.33 69.32,151.64 47.66,-60.66 108.32,-112.65 177.65,-155.98 60.66,-30.33 125.64,-51.99 199.31,-51.99 82.33,0 147.31,21.66 190.64,60.66 47.66,43.33 69.32,99.65 69.32,173.3 0,43.33 -12.99,142.98 -43.33,303.29 -30.33,155.98 -51.99,294.63 -69.32,411.6 -12.99,-4.33 -30.33,-4.33 -47.66,-4.33 -12.99,-4.33 -26,-4.33 -43.33,-4.33l-43.33 0c-12.99,4.33 -30.33,4.33 -51.99,8.66 39,-142.98 69.32,-277.29 90.99,-398.61 21.66,-121.31 30.33,-207.97 30.33,-264.29 0,-56.32 -12.99,-95.32 -39,-125.64 -26,-26 -64.99,-39 -116.98,-39 -121.31,0 -212.3,60.66 -272.95,186.31 -60.66,121.31 -103.98,337.95 -129.99,645.58 -12.99,-4.33 -30.33,-4.33 -47.66,-8.66l-82.33 -0.01c-17.33,-8.68 -34.67,-4.33 -60.66,-4.33l0 0zm-1204.49 21.66l0 -77.99c73.65,-21.66 134.32,-69.32 194.97,-151.64 77.99,-108.32 112.65,-238.3 112.65,-389.95 0,-82.33 -21.66,-147.31 -64.99,-199.31 -43.33,-51.99 -103.98,-73.65 -177.65,-73.65l-4.33 0c-21.66,0 -43.33,4.33 -60.66,8.66l0 -77.99 39 0.01c142.98,0 251.3,34.67 329.29,108.32 77.99,73.65 116.98,173.3 116.98,298.96 0,155.98 -51.99,290.29 -160.31,398.61 -82.33,86.66 -199.32,142.98 -324.96,155.98l0 0zm4584 -541.59l0 82.33c-64.99,21.66 -112.65,43.33 -147.31,73.65 -43.33,34.67 -64.99,86.66 -64.99,142.98 0,43.33 17.33,77.99 39,103.98 26,26 56.32,39 99.65,39 26,0 47.66,0 73.65,-12.99l0 86.66c-43.33,17.33 -86.66,26 -134.32,26 -73.65,0 -129.99,-21.66 -173.3,-60.66 -43.33,-43.33 -64.99,-95.32 -64.99,-164.64 0,-90.99 26,-155.98 86.66,-207.97 56.31,-43.34 147.3,-78.01 285.95,-108.34l0 0zm0 -415.94l0 77.99c-21.66,8.66 -43.33,17.33 -60.66,26 -43.33,26 -82.33,64.99 -103.98,112.65l-30.33 -4.33c4.33,-17.33 8.66,-34.67 8.66,-56.32 4.33,-17.33 4.33,-34.67 4.33,-51.99l0 -17.33c-4.33,-8.66 -4.33,-12.99 -4.33,-17.33 47.66,-30.33 95.32,-51.99 142.98,-60.66 17.33,-4.36 30.32,-8.69 43.33,-8.69l0 0zm0 -320.62l0 108.32c-8.66,4.33 -17.33,8.66 -21.66,12.99 -12.99,12.99 -21.66,34.67 -26,56.32l-60.66 0c8.66,-60.66 26,-108.32 56.32,-142.98 12.99,-12.99 30.32,-25.99 51.99,-34.65l0 0zm0 112.65l0 -108.32c17.33,-8.66 39,-8.66 60.66,-8.66 8.66,0 17.33,0 26,4.33 8.66,0 21.66,4.33 39,8.66l125.64 30.33 30.33 8.66c8.66,0 21.66,4.33 26,4.33 26,0 47.66,-4.33 60.66,-17.33 12.99,-8.66 26,-30.33 30.33,-56.32l51.98 -0.01c-12.99,60.66 -30.33,108.32 -64.99,142.98 -30.33,34.67 -69.32,51.99 -112.65,51.99 -8.66,0 -21.66,0 -34.67,-4.33 -8.66,0 -26,-4.33 -39,-8.66l-121.31 -30.33c-8.66,-4.33 -21.66,-4.33 -30.33,-4.33 -8.66,0 -17.33,0 -26,0 -4.33,-17.33 -12.99,-17.33 -21.66,-12.99l0 0zm0 1139.49l0 -86.66c30.33,-8.66 56.32,-26 82.33,-43.33 47.66,-39 77.99,-82.33 90.99,-134.32l39 -212.3 -160.31 39c-17.33,4.33 -34.67,8.66 -51.99,12.99l0 -82.33c8.66,0 12.99,0 21.66,-4.33l160.31 -30.33c26,-4.33 47.66,-21.66 56.32,-47.66 12.99,-26 21.66,-64.99 21.66,-112.65 0,-47.66 -12.99,-86.66 -43.33,-112.65 -30.33,-26 -69.32,-39 -116.98,-39 -30.33,0 -64.99,0 -90.99,8.66l0 -77.99c34.67,-8.66 73.65,-8.66 112.65,-8.66 95.32,0 164.64,21.66 216.63,60.66 51.99,39 77.99,99.65 77.99,173.3 0,21.66 0,47.66 -4.33,82.33 -4.33,30.33 -8.66,69.32 -17.33,103.98l-64.99 324.95c-4.33,12.99 -4.33,26 -4.33,39 -4.33,12.99 -4.33,26 -4.33,34.67 0,21.66 4.33,30.33 17.33,43.33 8.66,8.66 21.66,12.99 43.33,12.99 8.66,0 17.33,0 26,0 8.66,0 21.66,-4.33 39,-8.66l26 47.66c-26,17.33 -56.32,30.33 -86.66,39 -26,8.66 -56.32,12.99 -82.33,12.99 -34.67,0 -69.32,-12.99 -95.32,-39 -21.66,-26 -34.67,-60.66 -39,-108.32 -43.33,51.99 -86.66,86.66 -134.32,112.65l-34.67 0.03 0 0zm1048.5 -935.86l0 77.99c-77.99,17.33 -142.98,69.32 -199.31,151.64 -69.32,103.98 -108.32,229.64 -108.32,381.28 0,90.99 21.66,160.31 60.66,207.97 43.33,47.66 99.65,73.65 173.3,73.65 26,0 51.99,-4.33 73.65,-8.66l0 77.99c-17.33,0 -39,4.33 -60.66,4.33 -129.99,0 -229.64,-39 -307.62,-112.65 -77.99,-73.65 -112.65,-173.3 -112.65,-298.96 0,-155.98 51.99,-285.96 151.64,-394.28 86.67,-95.33 199.32,-151.66 329.29,-160.32l0 0zm0 961.86l0 -77.99c73.65,-21.66 138.65,-69.32 194.97,-151.64 77.99,-108.32 112.65,-238.3 112.65,-389.95 0,-82.33 -21.66,-147.31 -69.32,-199.31 -43.33,-51.99 -103.98,-73.65 -177.65,-73.65l-4.32 0c-21.66,0 -43.33,4.33 -60.66,8.66l0 -77.99 38.98 0.01c138.65,0 246.97,34.67 329.29,108.32 82.33,73.65 116.98,173.3 116.98,298.96 0,155.98 -51.99,290.29 -155.98,398.61 -86.66,86.66 -199.31,142.98 -324.96,155.98l0 0zm1533.79 -961.86l0 112.65c-69.32,17.33 -129.99,60.66 -181.98,134.32 -64.99,95.32 -95.32,216.63 -95.32,359.61 0,82.33 17.33,147.31 51.99,190.64 34.67,43.33 86.66,64.99 155.98,64.99 26,0 47.66,-4.33 73.65,-8.66l0 86.66c-43.33,12.99 -82.33,17.33 -125.64,17.33 -99.65,0 -177.65,-34.67 -242.63,-108.32 -60.66,-69.32 -90.99,-164.64 -90.99,-281.63 0,-164.64 47.66,-303.29 142.98,-411.6 82.33,-90.99 186.31,-147.31 311.97,-155.98l0 0zm628.24 402.94c-12.99,51.99 -17.33,103.98 -17.33,155.98 0,47.66 4.33,95.32 17.33,134.32l0 -290.29zm0 -901.2l0 60.66c-60.66,216.63 -112.65,433.28 -155.98,649.91 -51.99,242.63 -90.99,485.27 -125.64,727.89 -17.33,0 -30.33,-4.33 -43.33,-4.33 -17.33,0 -26,0 -39,0 -8.66,0 -26,0 -39,0 -12.99,0 -30.33,4.33 -51.99,4.33l34.67 -134.32c-51.99,56.32 -103.98,95.32 -160.31,121.31 -12.99,8.66 -30.33,12.99 -51.99,21.66l0 -86.66c69.32,-17.33 129.99,-64.99 177.65,-134.32 64.99,-95.32 99.65,-216.63 99.65,-359.61 0,-82.33 -17.33,-147.31 -56.32,-190.64 -39,-43.33 -90.99,-64.99 -160.31,-64.99 -21.66,0 -43.33,0 -60.66,8.66l0 -112.65c12.99,-4.33 30.33,-4.33 43.33,-4.33 64.99,0 121.31,17.33 173.3,51.99 51.99,39 82.33,82.33 108.32,151.64l43.33 -212.3c17.33,-95.32 34.67,-186.31 51.99,-259.96 12.99,-77.99 26,-155.98 39,-225.29 21.66,0 43.33,8.66 51.99,8.66 17.33,4.33 26,4.33 30.33,4.33 12.99,0 26,0 43.33,0 21.64,-21.64 30.31,-21.64 47.63,-21.64l0 0zm428.94 498.26l0 77.99c-47.66,12.99 -90.99,39 -125.64,77.99 -51.99,56.32 -86.66,134.32 -108.32,238.3 17.33,0 43.33,0 73.65,0l160.31 -0.01 0 73.65 -73.66 0c-69.32,4.33 -129.99,4.33 -177.65,4.33 -4.33,21.66 -4.33,43.33 -8.66,60.66l0 60.66c0,90.99 21.66,160.31 64.99,207.97 43.33,47.66 108.32,73.65 190.64,73.65l0.01 0.01 0 95.32 -34.67 0c-125.64,0 -225.29,-39 -298.96,-108.32 -43.33,-47.66 -77.99,-103.98 -95.32,-164.64l0 -294.63c21.66,-90.99 64.99,-173.3 125.64,-246.97 86.66,-90.99 186.31,-142.98 307.63,-155.98l0 0zm0 467.93l0 -73.65 155.98 0c30.33,0 56.32,0 73.65,0 0,-21.66 4.33,-39 4.33,-51.99l0 -39c0,-73.65 -12.99,-125.64 -47.66,-168.97 -30.33,-39 -73.65,-60.66 -129.99,-60.66 -21.66,0 -39,0 -56.32,4.33l0 -77.99c21.66,-4.33 43.33,-4.33 60.66,-4.33 108.32,0 190.64,34.67 251.3,99.65 60.66,69.32 90.99,160.31 90.99,277.29 0,8.66 0,21.66 0,39 0,17.33 -4.33,39 -4.33,64.99l-43.32 0c-142.98,-4.33 -242.63,-4.33 -303.29,-4.33l-51.99 0 0 -4.33zm0 498.26l0 -95.32c51.99,0 99.65,-12.99 147.31,-34.67 51.99,-21.66 99.65,-60.66 151.64,-112.65l26 17.33c-8.66,21.66 -21.66,39 -26,60.66 -8.66,21.66 -12.99,43.33 -21.66,69.32 -47.66,30.33 -103.98,56.32 -155.98,73.65 -43.34,13.02 -82.33,21.68 -121.32,21.68l0 0zm1997.37 -463.6c-17.33,8.66 -30.33,17.33 -43.33,26 -56.32,47.66 -86.66,116.98 -86.66,207.97 0,69.32 21.66,121.31 64.99,164.64 17.33,17.33 39,30.33 64.99,39l0.01 -437.61zm0 -870.87l0 212.3c-116.98,199.31 -229.64,398.61 -346.62,602.25 -121.31,225.29 -207.97,389.95 -251.3,493.93 -17.33,0 -30.33,-4.33 -47.66,-8.66l-38.98 -0.01c-8.66,0 -21.66,4.33 -43.33,8.66 -8.66,-125.64 -39,-303.29 -82.33,-524.25 -51.99,-264.29 -108.32,-528.58 -173.3,-788.56 26,4.33 47.66,4.33 64.99,4.33 21.66,4.33 34.67,4.33 43.33,4.33 12.99,0 26,0 43.33,-4.33 17.33,0 39,0 60.66,-4.33 8.66,90.99 21.66,186.31 39,277.29 12.99,95.32 30.33,199.31 51.99,320.62l82.33 485.27 281.63 -528.58c73.65,-129.99 129.99,-238.3 164.64,-320.62 39,-82.33 73.65,-160.31 103.98,-238.3 17.33,8.68 34.65,8.68 47.65,8.68l0 0zm82.33 836.2l0 125.64c-30.33,34.67 -47.66,77.99 -47.66,125.64 0,43.33 12.99,77.99 39,103.98 4.33,4.33 8.66,8.66 8.66,8.66l0 129.99c-26,0 -56.32,-8.66 -82.33,-21.66l0 -437.61c21.67,-12.98 47.66,-25.99 82.33,-34.65l0 0zm0 -407.27l0 155.98c0,0 0,0 0,4.33l-34.67 -4.33c4.33,-21.66 8.66,-39 12.99,-56.32 4.33,-17.33 4.33,-34.67 4.33,-51.99l0 -30.33 17.34 -17.33 0 0zm0 -428.93l0 73.65c-26,47.66 -51.99,90.99 -82.33,138.65l0 -212.3c0,0 0,0 4.33,4.33l65 0c4.33,-4.33 8.66,-4.33 12.99,-4.33l0 0zm719.23 1308.48c69.32,-272.95 125.64,-528.58 173.3,-771.22 47.66,-242.63 77.99,-467.93 103.98,-671.56l4.35 -0.01c43.33,4.33 73.65,8.66 82.33,8.66l38.98 0c12.99,-4.33 34.67,-4.33 60.66,-8.66 -60.66,246.97 -112.65,498.26 -155.98,745.23 -43.33,229.64 -82.33,463.6 -112.65,697.57 -17.33,0 -39,-4.33 -56.32,-8.66l-73.65 -0.01c-13.01,4.33 -34.67,8.68 -65,8.68l0 0zm-719.23 -1234.83l0 -73.65c12.99,0 26,0 47.66,-4.33 -17.33,25.99 -34.67,51.99 -47.66,77.98l0 0zm0 1256.49l0 -129.99c26,21.66 56.32,30.33 90.99,30.33 56.32,0 108.32,-21.66 155.98,-56.32 47.66,-39 77.99,-82.33 86.66,-134.32l39 -212.3 -155.98 39c-90.99,21.66 -160.31,47.66 -199.31,82.33l-17.33 17.33 0 -125.64c51.99,-21.66 112.65,-34.67 186.31,-51.99l160.31 -30.33c26,-4.33 43.33,-21.66 56.32,-47.66 12.99,-26 17.33,-64.99 17.33,-112.65 0,-47.66 -12.99,-86.66 -43.33,-112.65 -30.33,-26 -69.32,-39 -121.31,-39 -51.99,0 -103.98,8.66 -151.64,39 -43.33,26 -77.99,60.66 -103.98,108.32l0 -155.98c39,-21.66 82.33,-34.67 121.31,-47.66 51.99,-12.99 99.65,-21.66 155.98,-21.66 95.32,0 164.64,21.66 216.63,60.66 51.99,39 73.65,99.65 73.65,173.3 0,21.66 0,47.66 -4.33,82.33 -4.33,34.67 -8.66,69.32 -17.33,103.98l-64.99 324.95 -8.66 39c0,12.99 -4.33,26 -4.33,34.67 0,21.66 4.33,30.33 12.99,43.33 12.99,8.66 26,17.33 43.33,12.99 8.66,0 17.33,0 26,0 8.66,0 21.66,-4.33 39,-8.66l26 47.66c-26,17.33 -56.32,30.33 -86.66,39 -26,8.66 -51.99,12.99 -77.99,12.99 -43.33,0 -73.65,-12.99 -95.32,-39 -21.66,-26 -39,-60.66 -39,-108.32 -39,43.33 -82.33,82.33 -134.32,112.65 -47.66,21.66 -95.32,34.67 -147.31,34.67l-34.67 -4.35zm1685.42 -961.86l0 77.99c-77.99,17.33 -142.98,69.32 -203.64,151.64 -73.65,103.98 -108.32,229.64 -108.32,381.28 0,90.99 21.66,160.31 60.66,207.97 39,47.66 99.65,73.65 173.3,73.65 26,0 51.99,-4.33 73.65,-8.66l0 77.99c-21.66,0 -39,4.33 -60.66,4.33 -129.99,0 -233.97,-39 -311.95,-112.65 -73.65,-73.65 -116.98,-173.3 -116.98,-298.96 0,-155.98 51.99,-285.96 151.64,-394.28 99.67,-95.33 212.31,-151.66 342.29,-160.32l0 0zm580.59 940.2c47.66,-177.65 86.66,-346.62 112.65,-506.93 30.33,-160.31 47.66,-298.96 56.32,-415.94 17.33,4.33 34.67,4.33 51.99,8.66l77.99 -0.01 43.33 -8.66c-8.66,30.33 -17.33,60.66 -21.66,90.99 -8.66,30.33 -12.99,60.66 -17.33,95.32 43.33,-60.66 90.99,-112.65 134.32,-147.31 51.99,-34.67 99.65,-51.99 142.98,-51.99 8.66,0 12.99,0 26,4.33 8.66,0 17.33,4.33 26,4.33 -8.66,26 -12.99,56.32 -21.66,77.99 -4.33,26 -8.66,56.32 -8.66,82.33 -21.66,-4.33 -39,-8.66 -51.99,-8.66 -12.99,0 -30.33,-4.33 -39,-4.33 -90.99,0 -155.98,56.32 -203.64,164.64 -47.66,108.32 -86.66,316.28 -121.31,619.57 -17.33,0 -34.67,-4.33 -56.32,-4.33 -12.99,0 -30.33,0 -43.33,0l-26.04 0c-17.33,-4.35 -39,0 -60.66,0l0 0zm-580.59 21.66l0 -77.99c73.65,-21.66 138.65,-69.32 194.97,-151.64 73.65,-108.32 112.65,-238.3 112.65,-389.95 0,-82.33 -21.66,-147.31 -64.99,-199.31 -43.33,-51.99 -103.98,-73.65 -177.65,-73.65l-4.32 0c-21.66,0 -39,4.33 -60.66,8.66l0 -77.99 38.98 0.01c138.65,0 246.97,34.67 324.95,108.32 82.33,73.65 121.31,173.3 121.31,298.96 0,155.98 -51.99,290.29 -160.31,398.61 -86.64,86.66 -199.29,142.98 -324.95,155.98l0 0zm1672.43 -961.86l0 77.99c-43.33,12.99 -86.66,39 -125.64,77.99 -51.99,56.32 -86.66,134.32 -108.32,238.3 17.33,0 43.33,0 73.65,0l160.31 -0.01 0 73.65 -69.33 0c-69.32,4.33 -129.99,4.33 -181.98,4.33 -4.33,21.66 -4.33,43.33 -4.33,60.66 -4.33,21.66 -4.33,39 -4.33,60.66 0,90.99 21.66,160.31 69.32,207.97 43.33,47.66 103.98,73.65 190.64,73.65l0 95.32 -30.32 0.01c-125.64,0 -225.29,-39 -298.96,-108.32 -73.65,-73.65 -112.65,-177.65 -112.65,-298.96 0,-160.31 51.99,-294.63 142.98,-402.94 77.98,-95.32 181.97,-151.64 298.96,-160.31l0 0zm1698.41 940.2c82.33,-294.63 147.31,-558.92 199.31,-788.56 51.99,-229.64 86.66,-402.94 103.98,-528.58 21.66,4.33 43.33,8.66 56.32,8.66 12.99,4.33 26,4.33 34.67,4.33 8.66,0 21.66,0 39,-4.33 12.99,0 30.33,0 56.32,-8.66 12.99,82.33 51.99,246.97 121.31,489.6 8.66,30.33 12.99,51.99 17.33,73.65l134.32 489.6 346.62 -532.93c8.66,-17.33 26,-39 43.33,-69.32 95.32,-147.31 186.31,-294.63 277.29,-446.27 26,4.33 43.33,8.66 56.32,8.66 12.99,4.33 21.66,4.33 26,4.33 8.66,0 21.66,0 39,-4.33 12.99,0 30.33,0 60.66,-8.66 -56.32,238.3 -112.65,476.59 -155.98,719.23 -39,194.97 -69.32,394.28 -90.99,593.58 -21.66,0 -43.33,-4.33 -64.99,-8.66l-86.66 -0.01c-21.66,4.33 -43.33,4.33 -69.32,8.66 26,-90.99 51.99,-181.98 73.65,-268.62 21.66,-86.66 39,-164.64 51.99,-238.3l112.65 -563.25 -433.28 693.24 -12.99 17.33c-86.66,134.32 -155.98,251.3 -216.63,363.94l-64.99 0.01c-51.99,-194.97 -103.98,-381.28 -151.64,-558.92 -47.66,-177.65 -95.32,-346.62 -142.98,-511.26l-86.66 420.27c-30.33,147.31 -51.99,272.95 -73.65,363.94 -12.99,95.32 -26,190.64 -39,285.96 -17.33,0 -34.67,-4.33 -51.99,-8.66l-25.99 -0.01c-8.66,0 -21.66,0 -30.33,4.33 -17.33,-4.33 -30.32,0.01 -51.99,0.01l0 0zm-1200.16 -251.3l30.33 0c8.66,60.66 34.67,108.32 73.65,147.31 39,34.67 86.66,51.99 147.31,51.99 60.66,0 108.32,-17.33 142.98,-51.99 34.67,-34.67 51.99,-82.33 51.99,-129.99 0,-64.99 -56.32,-125.64 -177.65,-173.3 -8.66,0 -12.99,-4.33 -17.33,-8.66 -73.65,-30.33 -125.64,-64.99 -155.98,-103.98 -30.33,-39 -43.33,-82.33 -43.33,-138.65 0,-82.33 30.33,-155.98 90.99,-207.97 60.66,-56.32 134.32,-82.33 229.64,-82.33 51.99,0 99.65,4.33 142.98,17.33 43.33,12.99 82.33,30.33 121.31,51.99 -8.66,21.66 -21.66,47.66 -30.33,73.65 -8.66,26 -12.99,56.32 -21.66,82.33l-25.99 0c-12.99,-51.99 -39,-90.99 -73.65,-112.65 -30.33,-26 -69.32,-39 -121.31,-39 -43.33,0 -90.99,12.99 -121.31,47.66 -30.33,30.33 -47.66,69.32 -47.66,112.65 0,60.66 56.32,116.98 168.97,160.31 4.33,0 12.99,4.33 17.33,8.66 82.33,34.67 134.32,64.99 168.97,103.98 30.33,39 47.66,82.33 47.66,142.98 0,95.32 -34.67,173.3 -103.98,229.64 -69.32,60.66 -155.98,90.99 -264.29,90.99 -56.32,0 -108.32,-8.66 -160.31,-26 -47.66,-17.33 -95.32,-43.33 -134.32,-73.65 8.66,-30.33 17.33,-64.99 26,-95.32 17.31,-25.99 30.31,-51.99 38.97,-77.98l0 0zm-498.25 -220.98l0 -73.65 155.98 0c30.33,0 56.32,0 73.65,0 0,-21.66 4.33,-39 4.33,-51.99 0,-12.99 0,-26 0,-39 0,-73.65 -17.33,-125.64 -47.66,-168.97 -30.33,-39 -77.99,-60.66 -134.32,-60.66 -17.33,0 -34.67,0 -56.32,4.33l0 -77.99c21.66,-4.33 43.33,-4.33 60.66,-4.33 108.32,0 190.64,34.67 251.3,99.65 60.66,69.32 90.99,160.31 90.99,277.29 0,8.66 0,21.66 -4.33,39 0,17.33 0,39 -4.33,64.99l-43.33 0c-142.98,-4.33 -242.63,-4.33 -303.29,-4.33l-43.32 0 0 -4.33zm0 498.26l0 -95.32c51.99,0 103.98,-12.99 147.31,-34.67 47.66,-21.66 95.32,-60.66 151.64,-112.65l26 17.33c-8.66,21.66 -17.33,39 -26,60.66 -8.66,21.66 -12.99,43.33 -21.66,69.32 -51.99,30.33 -103.98,56.32 -155.98,73.65 -39.01,13.02 -78.01,21.68 -121.32,21.68l0 0zm3838.77 -888.21c-77.99,17.33 -142.98,69.32 -203.64,151.64 -73.65,103.98 -108.32,229.64 -108.32,381.28 0,90.99 21.66,160.31 60.66,207.97 39,47.66 95.32,73.65 173.3,73.65 26,0 51.99,-4.33 73.65,-8.66l0 77.99c-21.66,0 -39,4.33 -60.66,4.33 -129.99,0 -233.97,-39 -311.95,-112.65 -77.99,-73.65 -112.65,-173.3 -112.65,-298.96 0,-155.98 47.66,-285.96 151.64,-394.28 90.99,-95.32 203.64,-151.64 333.62,-160.31l0 77.98 4.33 0zm1083.17 -60.66l0 90.99c-69.32,21.66 -129.99,64.99 -181.98,142.98 -64.99,99.65 -99.65,225.29 -99.65,376.94 0,82.33 17.33,142.98 56.32,186.31 39,43.33 90.99,69.32 160.31,69.32 21.66,0 43.33,-4.33 60.66,-8.66l0 90.99c-17.33,0 -26,0 -43.33,0 -60.66,0 -112.65,-8.66 -164.64,-30.33 -51.99,-26 -103.98,-60.66 -142.98,-103.98 -21.66,12.99 -43.33,30.33 -60.66,51.99 -17.33,17.33 -34.67,39 -51.99,60.66l-64.97 0.01c30.33,-108.32 73.65,-285.96 125.64,-532.93 51.99,-251.3 108.32,-550.25 168.97,-909.87 21.66,4.33 39,4.33 51.99,8.66 17.33,4.33 26,4.33 39,4.33 12.99,0 26,0 43.33,-4.33 17.33,-4.33 39,-4.33 56.32,-8.66 -39,125.64 -82.33,290.29 -121.31,485.27 -8.66,34.67 -12.99,60.66 -17.33,77.99l-17.33 90.99c47.66,-51.99 95.32,-90.99 147.31,-116.98 25.99,-8.68 38.98,-17.35 56.31,-21.68l0 0zm-1022.51 51.99c-21.66,0 -39,0 -60.66,8.66l0 -77.99 38.98 0.01c138.65,0 246.97,34.67 324.95,108.32 77.99,73.65 121.31,173.3 121.31,298.96 0,155.98 -51.99,285.96 -160.31,398.61 -86.66,90.99 -199.31,147.31 -324.95,160.31l0 -77.99c73.65,-21.66 138.65,-69.32 194.97,-151.64 73.65,-108.32 112.65,-238.3 112.65,-389.95 0,-82.33 -21.66,-147.31 -64.99,-199.31 -43.33,-47.66 -103.98,-73.65 -177.65,-73.65l-4.32 0 0 -4.33zm2556.3 870.88c51.99,-199.31 95.32,-376.94 121.31,-537.26 30.33,-164.64 43.33,-290.29 47.66,-385.62 21.66,0 39,4.33 56.32,8.66l95.32 0c17.33,0 34.67,-4.33 56.32,-8.66 -47.66,168.97 -86.66,337.95 -121.31,506.93 -30.33,155.98 -47.66,294.63 -51.99,411.6 -21.66,0 -43.33,-4.33 -64.99,-8.66l-73.66 0c-21.67,8.66 -43.33,13.01 -64.99,13.01l0 0zm220.96 -1256.49c0,-30.33 8.66,-51.99 26,-69.32 17.33,-17.33 39,-26 69.32,-26 30.33,0 51.99,8.66 69.32,26 17.33,12.99 26,39 26,69.32 0,26 -8.66,47.66 -26,64.99 -17.33,17.33 -39,26 -64.99,26 -26,0 -51.99,-8.66 -69.32,-26 -21.67,-17.33 -30.33,-39 -30.33,-64.99l0 0zm-701.9 1256.49c69.32,-272.95 125.64,-528.58 173.3,-771.22 43.33,-242.63 77.99,-467.93 99.65,-671.56l4.35 -0.01c47.66,4.33 77.99,8.66 86.66,8.66l38.98 0c21.66,-4.33 43.33,-4.33 60.66,-8.66 -60.66,246.97 -112.65,498.26 -160.31,745.23 -43.33,229.64 -82.33,463.6 -112.65,697.57 -21.66,0 -39,-4.33 -56.32,-8.66l-73.66 -0.01c-17.33,4.33 -39,8.68 -60.66,8.68l0 0zm-467.93 0c51.99,-199.31 95.32,-376.94 121.31,-537.26 30.33,-164.64 43.33,-290.29 51.99,-385.62l51.99 8.66 95.32 0c17.33,0 34.67,-4.33 51.99,-8.66 -47.66,168.97 -86.66,337.95 -116.98,506.93 -26,134.32 -43.33,272.95 -51.99,411.6 -21.66,0 -43.33,-4.33 -64.99,-8.66l-73.66 0c-21.66,8.66 -43.33,13.01 -64.99,13.01l0 0zm220.96 -1256.49c0,-30.33 8.66,-51.99 26,-69.32 17.33,-17.33 43.33,-26 69.32,-26 30.33,0 51.99,8.66 69.32,26 12.99,12.99 21.66,39 21.66,69.32 0,26 -8.66,47.66 -26,64.99 -17.33,17.33 -39,26 -64.99,26 -26,0 -51.99,-8.66 -69.32,-26 -17.33,-17.33 -25.99,-39 -25.99,-64.99l0 0zm-805.88 1278.14l0 -90.99c69.32,-17.33 134.32,-64.99 181.98,-142.98 64.99,-99.65 99.65,-225.29 99.65,-368.28 0,-82.33 -21.66,-147.31 -51.99,-194.97 -39,-43.33 -86.66,-64.99 -155.98,-64.99 -26,0 -51.99,4.33 -73.65,8.66l0 -90.99c39,-12.99 77.99,-17.33 125.64,-17.33 103.98,0 186.31,30.33 246.97,103.98 60.66,69.32 90.99,160.31 90.99,281.63 0,164.64 -51.99,307.62 -147.31,415.94 -73.66,95.32 -190.64,151.64 -316.3,160.31l0 0zm2348.33 -541.59l0 82.33c-64.99,21.66 -112.65,43.33 -147.31,73.65 -43.33,34.67 -64.99,86.66 -64.99,142.98 0,43.33 12.99,77.99 39,103.98 26,26 56.32,39 99.65,39 26,0 47.66,-4.33 73.65,-12.99l0 86.66c-43.33,17.33 -86.66,26 -134.32,26 -73.65,0 -134.32,-21.66 -173.3,-60.66 -43.33,-43.33 -64.99,-95.32 -64.99,-164.64 0,-90.99 26,-155.98 86.66,-207.97 56.31,-43.34 151.63,-78.01 285.95,-108.34l0 0zm0 -415.94l0 77.99c-21.66,8.66 -43.33,17.33 -60.66,26 -43.33,26 -82.33,64.99 -103.98,112.65l-34.67 -4.33c4.33,-21.66 8.66,-39 8.66,-56.32 4.33,-17.33 4.33,-34.67 4.33,-51.99l0 -17.33c-4.33,-8.66 -4.33,-12.99 -4.33,-17.33 47.66,-30.33 95.32,-51.99 142.98,-60.66 17.33,-4.36 34.65,-8.69 47.66,-8.69l0 0zm1200.16 935.87c51.99,-199.31 95.32,-376.94 121.31,-537.26 30.33,-164.64 43.33,-290.29 51.99,-385.62l51.99 8.66 95.32 0c17.33,0 39,-4.33 56.32,-8.66 -47.66,168.97 -86.66,337.95 -121.31,506.93 -26,138.65 -43.33,272.95 -51.99,411.6 -21.66,0 -43.33,-4.33 -64.99,-8.66l-73.66 0c-17.34,8.66 -39,13.01 -64.99,13.01l0 0zm220.96 -1256.49c0,-30.33 8.66,-51.99 26,-69.32 17.33,-17.33 43.33,-26 69.32,-26 30.33,0 51.99,8.66 69.32,26 12.99,12.99 21.66,39 21.66,69.32 0,26 -8.66,47.66 -26,64.99 -17.33,17.33 -39,26 -69.32,26 -26,0 -47.66,-8.66 -64.99,-26 -17.33,-17.33 -25.99,-39 -25.99,-64.99l0 0zm-862.21 1256.49c43.33,-177.65 82.33,-346.62 112.65,-506.93 21.66,-138.65 43.33,-277.29 51.99,-415.94 17.33,0 30.33,4.33 47.66,8.66l77.99 -0.01c12.99,0 30.33,-4.33 47.66,-8.66 -8.66,30.33 -17.33,60.66 -26,90.99 -8.66,30.33 -12.99,60.66 -12.99,95.32 43.33,-60.66 86.66,-112.65 134.32,-147.31 47.66,-34.67 95.32,-51.99 138.65,-51.99 8.66,0 17.33,0 26,0 8.66,0 17.33,4.33 26,4.33 -8.66,26 -17.33,51.99 -21.66,77.99 0,26 -8.66,51.99 -8.66,77.99 -21.66,-4.33 -39,-8.66 -56.32,-8.66 -12.99,0 -26,-4.33 -39,-4.33 -90.99,0 -155.98,56.32 -203.64,164.64 -47.66,108.32 -86.66,316.28 -116.98,623.9 -21.66,-4.33 -39,-4.33 -56.32,-4.33 -12.99,-4.33 -26,-4.33 -39,-4.33l-30.36 -0.01c-4.33,4.33 -26,8.68 -51.99,8.68l0 0zm-558.92 -1048.52l0 -21.66 255.63 -255.63c21.66,-21.66 39,-34.67 56.32,-43.33 12.99,-8.66 30.33,-12.99 47.66,-17.33 21.66,0 43.33,4.33 56.32,21.66 12.99,12.99 21.66,30.33 21.66,51.99 0,17.33 -4.33,26 -12.99,39 -8.66,12.99 -30.33,26 -56.32,43.33l-303.29 177.65 -64.99 -0.01 0 4.33zm0 1044.17l0 -86.66c30.33,-8.66 56.32,-26 82.33,-43.33 51.99,-39 77.99,-82.33 90.99,-134.32l39 -212.3 -160.31 39c-17.33,4.33 -34.67,8.66 -51.99,12.99l0 -82.33c8.66,0 12.99,0 21.66,-4.33l160.31 -30.33c26,-4.33 43.33,-21.66 51.99,-47.66 12.99,-26 21.66,-64.99 21.66,-112.65 0,-47.66 -12.99,-86.66 -43.33,-112.65 -26,-26 -69.32,-39 -121.31,-39 -30.33,0 -60.66,0 -90.99,8.66l0 -77.99c34.67,-8.66 73.65,-8.66 112.65,-8.66 95.32,0 164.64,21.66 216.63,60.66 47.66,39 73.65,99.65 73.65,173.3 0,21.66 -4.33,47.66 -4.33,82.33 -4.33,30.33 -8.66,69.32 -17.33,103.98l-64.99 324.95c-4.33,12.99 -8.66,26 -8.66,39 -4.33,12.99 -4.33,26 -4.33,34.67 0,21.66 4.33,30.33 17.33,43.33 8.66,8.66 26,17.33 43.33,12.99 8.66,0 12.99,0 26,0 8.66,0 21.66,-4.33 39,-8.66l26 47.66c-30.33,17.33 -60.66,30.33 -86.66,39 -26,8.66 -51.99,12.99 -82.33,12.99 -34.67,0 -73.65,-12.99 -95.32,-39 -21.66,-26 -34.67,-60.66 -39,-108.32 -43.33,39.02 -95.32,82.35 -151.64,112.67l0 0zm2157.68 -935.86l0 77.99c-77.99,17.33 -147.31,69.32 -203.64,151.64 -73.65,103.98 -108.32,229.64 -108.32,381.28 0,90.99 21.66,160.31 60.66,207.97 43.33,47.66 99.65,73.65 177.65,73.65 26,0 47.66,-4.33 73.65,-8.66l0 77.99c-21.66,0 -39,4.33 -60.66,4.33 -129.99,0 -229.64,-39 -307.62,-112.65 -77.99,-73.65 -112.65,-173.3 -112.65,-298.96 0,-155.98 51.99,-285.96 147.31,-394.28 86.66,-95.33 207.97,-151.66 333.61,-160.32l0 0zm602.25 688.9l30.33 0c8.66,60.66 34.67,108.32 73.65,147.31 39,34.67 86.66,51.99 147.31,51.99 60.66,0 108.32,-17.33 142.98,-51.99 34.67,-34.67 56.32,-82.33 51.99,-129.99 0,-64.99 -60.66,-125.64 -177.65,-173.3 -4.33,0 -12.99,-4.33 -17.33,-8.66 -73.65,-30.33 -125.64,-69.32 -155.98,-103.98 -30.33,-39 -47.66,-90.99 -43.33,-138.65 0,-86.66 30.33,-155.98 90.99,-207.97 60.66,-56.32 138.65,-82.33 229.64,-82.33 51.99,0 99.65,4.33 142.98,17.33 43.33,12.99 82.33,30.33 125.64,51.99 -12.99,21.66 -21.66,47.66 -30.33,73.65 -8.66,26 -12.99,56.32 -21.66,82.33l-30.32 0c-17.33,-51.99 -43.33,-90.99 -73.65,-112.65 -30.33,-26 -69.32,-39 -116.98,-39 -47.66,0 -90.99,12.99 -121.31,47.66 -30.33,30.33 -47.66,69.32 -47.66,112.65 0,60.66 56.32,116.98 168.97,160.31 8.66,0 12.99,4.33 17.33,8.66 82.33,34.67 134.32,64.99 164.64,103.98 30.33,39 47.66,82.33 47.66,142.98 0,95.32 -30.33,173.3 -99.65,229.64 -64.99,60.66 -155.98,90.99 -264.29,90.99 -56.32,0 -108.32,-8.66 -160.31,-26 -51.99,-17.33 -95.32,-43.33 -134.32,-73.65 8.66,-30.33 17.33,-64.99 30.33,-95.32 4.32,-25.99 17.31,-51.99 30.31,-77.98l0 0zm-602.25 272.95l0 -77.99c73.65,-21.66 134.32,-69.32 194.97,-151.64 77.99,-108.32 112.65,-238.3 112.65,-389.95 0,-82.33 -21.66,-147.31 -64.99,-199.31 -43.33,-47.66 -103.98,-73.65 -177.65,-73.65l-4.32 0c-21.66,0 -39,0 -60.66,8.66l0 -77.99 38.98 0.01c142.98,0 251.3,34.67 329.29,108.32 82.33,73.65 121.31,173.3 121.31,298.96 0,155.98 -56.32,285.96 -160.31,398.61 -86.66,86.66 -203.64,142.98 -329.29,155.98z"/>
  </g>
  <g>
   <path class="fil1" d="M19423.52 9148.07c-39,138.65 -77.99,277.29 -116.98,411.6 39,-12.99 82.33,-21.66 116.98,-30.33l0 -381.27zm0 -4891.62l0 164.64c-450.6,736.56 -901.2,1473.12 -1338.81,2214.01 -576.24,970.52 -1152.5,1945.39 -1715.75,2924.58 -60.66,-17.33 -121.31,-30.33 -181.98,-34.67 -56.32,-8.66 -116.98,-8.66 -173.3,-8.66 -56.32,0 -112.65,4.33 -168.97,8.66 -60.66,8.66 -121.31,17.33 -181.98,34.67 -116.98,-862.21 -251.3,-1720.08 -407.27,-2577.96 -155.98,-883.88 -337.95,-1802.41 -541.59,-2751.27 108.32,17.33 212.3,30.33 311.95,39 103.98,8.66 207.97,12.99 311.95,12.99 108.32,0 220.96,-4.33 333.62,-12.99 116.98,-8.66 233.97,-21.66 350.95,-39 69.32,723.56 147.31,1412.46 233.97,2066.7 82.33,649.91 186.31,1278.14 294.63,1871.73 428.94,-636.91 836.22,-1295.48 1217.49,-1962.72 363.94,-641.24 701.9,-1299.81 1005.19,-1975.71 64.99,17.33 125.64,30.33 186.31,39 64.99,8.66 125.64,12.99 190.64,12.99 64.99,0 129.99,-4.33 199.31,-12.99 21.66,-4.33 47.65,-4.33 73.65,-12.99l0 0zm-6230.43 5129.93c-233.97,95.32 -476.59,164.64 -723.56,216.63 -242.63,47.66 -493.93,73.65 -745.23,73.65 -779.88,0 -1390.8,-207.97 -1828.4,-623.9 -441.94,-415.94 -662.9,-987.86 -662.9,-1724.41 0,-961.86 303.29,-1737.41 909.87,-2322.33 606.58,-584.92 1408.13,-879.53 2404.65,-879.53 359.61,0 688.9,34.67 983.52,108.32 294.63,69.32 550.25,173.3 766.89,311.95 -73.65,147.31 -138.65,294.63 -194.97,441.94 -60.66,147.31 -108.32,294.63 -155.98,441.94l-60.66 -47.66c-116.98,-255.63 -311.95,-467.93 -554.59,-602.25 -246.97,-142.98 -532.93,-216.63 -853.54,-216.63 -324.95,0 -615.24,69.32 -862.21,207.97 -255.63,138.65 -480.94,350.95 -684.57,636.91 -181.98,268.62 -324.95,584.92 -424.6,940.2 -99.65,359.61 -151.64,732.23 -151.64,1109.17 0,567.58 134.32,1009.52 398.61,1321.47 264.29,311.95 636.91,467.93 1117.84,467.93 251.3,0 502.59,-47.66 753.89,-134.32 251.3,-82.33 493.93,-216.63 732.23,-385.62l69.32 60.66c-47.66,116.98 -90.99,225.29 -129.99,320.62 -39,99.65 -69.32,190.64 -103.98,277.3l0 0zm6230.43 -4965.29c39,-60.66 77.99,-125.64 121.31,-190.64 -39,8.66 -77.99,17.33 -121.31,26l0 164.64zm0 5108.27l0 -381.28c173.3,-606.58 350.95,-1278.14 532.93,-2006.04 242.63,-966.19 467.93,-1932.38 675.9,-2907.25 69.32,12.99 134.32,26 199.31,39 60.66,8.66 125.64,12.99 190.64,12.99 60.66,0 129.99,-4.33 194.97,-12.99 64.99,-8.66 129.99,-21.66 199.31,-39 160.31,632.58 333.62,1265.15 519.92,1889.05 181.98,597.92 372.61,1191.5 576.24,1785.07 446.27,-571.91 888.21,-1152.5 1317.14,-1737.41 450.6,-615.24 914.2,-1260.82 1395.14,-1941.04 64.99,17.33 125.64,30.33 190.64,39 60.66,8.66 129.99,12.99 190.64,12.99 69.32,0 138.65,-4.33 203.64,-12.99 64.99,-8.66 129.99,-21.66 194.97,-39 -281.63,1234.81 -498.26,2318 -654.24,3249.52 -155.98,931.52 -233.97,1620.43 -242.63,2079.69 -90.99,-21.66 -181.98,-30.33 -285.96,-43.33 -212.3,-21.66 -424.6,-21.66 -636.91,0 -103.98,8.66 -207.97,21.66 -307.62,43.33 77.99,-285.96 168.97,-688.9 264.29,-1217.49 103.98,-528.58 225.29,-1278.14 385.62,-2244.33 -467.93,567.58 -914.2,1152.5 -1338.81,1750.42 -415.94,576.24 -805.88,1165.5 -1174.16,1772.07l-255.63 0c-129.99,-645.58 -281.63,-1286.82 -454.93,-1923.72 -168.97,-610.91 -346.62,-1191.5 -545.92,-1741.75l-420.27 1728.75c-60.66,259.96 -112.65,524.25 -160.31,784.23 -56.32,324.95 -116.98,680.23 -177.65,1087.51 -64.99,-17.33 -134.32,-30.33 -203.64,-43.33 -51.99,-8.66 -99.65,-12.99 -151.64,-12.99 -51.99,0 -103.98,4.33 -155.98,12.99 -21.67,8.66 -43.33,13.01 -64.99,17.34z"/>
  </g>
 </g>
</svg>
