<svg width="32" height="32" viewBox="0 0 32 32" fill="none" xmlns="http://www.w3.org/2000/svg">
<path d="M22.6406 2.66077H9.33609C5.66215 2.66077 2.68384 5.63908 2.68384 9.31302V22.6175C2.68384 26.2915 5.66215 29.2698 9.33609 29.2698H22.6406C26.3145 29.2698 29.2929 26.2915 29.2929 22.6175V9.31302C29.2929 5.63908 26.3145 2.66077 22.6406 2.66077Z" stroke="white" stroke-width="2.6609" stroke-linecap="round" stroke-linejoin="round"/>
<path d="M21.3102 15.1273C21.4744 16.2345 21.2852 17.3654 20.7697 18.3589C20.2541 19.3525 19.4384 20.1582 18.4386 20.6615C17.4387 21.1648 16.3056 21.3399 15.2005 21.1621C14.0953 20.9843 13.0744 20.4625 12.2828 19.671C11.4913 18.8794 10.9696 17.8585 10.7917 16.7533C10.6139 15.6482 10.7891 14.5151 11.2923 13.5152C11.7956 12.5154 12.6013 11.6997 13.5949 11.1841C14.5884 10.6686 15.7193 10.4794 16.8266 10.6436C17.956 10.8111 19.0016 11.3374 19.809 12.1448C20.6164 12.9522 21.1427 13.9978 21.3102 15.1273Z" stroke="white" stroke-width="2.6609" stroke-linecap="round" stroke-linejoin="round"/>
<path d="M23.3059 8.64807H23.3217" stroke="white" stroke-width="2.6609" stroke-linecap="round" stroke-linejoin="round"/>
</svg>
