<svg width="40" height="40" viewBox="0 0 40 40" fill="none" xmlns="http://www.w3.org/2000/svg">
<path d="M32.6483 11.1433C30.9839 10.7873 29.4767 9.90892 28.3464 8.63626C27.2162 7.36359 26.522 5.76318 26.365 4.06833V3.33333H20.6233V26.12C20.6198 27.1288 20.3002 28.1111 19.7096 28.9289C19.119 29.7468 18.2869 30.359 17.3304 30.6795C16.3739 31.0001 15.341 31.0129 14.3768 30.7161C13.4127 30.4193 12.5657 29.8279 11.955 29.025C11.3348 28.2086 10.9908 27.2159 10.9728 26.1909C10.9548 25.1658 11.2638 24.1616 11.855 23.324C12.4461 22.4864 13.2887 21.8588 14.2606 21.5324C15.2325 21.2059 16.283 21.1975 17.26 21.5083V15.675C15.0814 15.3738 12.8632 15.7612 10.9156 16.7828C8.96799 17.8044 7.38841 19.4092 6.39781 21.3728C5.40721 23.3364 5.05513 25.5605 5.39082 27.734C5.72651 29.9075 6.73318 31.9218 8.27001 33.495C9.73561 34.9946 11.6148 36.0234 13.6678 36.4502C15.7207 36.877 17.8543 36.6823 19.7961 35.8911C21.7379 35.0998 23.3999 33.7479 24.5699 32.0078C25.7399 30.2677 26.3649 28.2185 26.365 26.1217V14.4783C28.6854 16.1372 31.4676 17.0267 34.32 17.0217V11.3167C33.7583 11.3174 33.198 11.2593 32.6483 11.1433Z" fill="#F2F2F2"/>
</svg>
