<svg width="32" height="32" viewBox="0 0 32 32" fill="none" xmlns="http://www.w3.org/2000/svg">
<path d="M3.39519 22.6177C2.46576 18.2316 2.46576 13.6994 3.39519 9.31322C3.51731 8.8678 3.75326 8.46183 4.07985 8.13524C4.40643 7.80866 4.8124 7.57271 5.25782 7.45058C12.3936 6.26842 19.6753 6.26842 26.8111 7.45058C27.2566 7.57271 27.6625 7.80866 27.9891 8.13524C28.3157 8.46183 28.5517 8.8678 28.6738 9.31322C29.6032 13.6994 29.6032 18.2316 28.6738 22.6177C28.5517 23.0632 28.3157 23.4691 27.9891 23.7957C27.6625 24.1223 27.2566 24.3582 26.8111 24.4804C19.6753 25.6628 12.3936 25.6628 5.25782 24.4804C4.8124 24.3582 4.40643 24.1223 4.07985 23.7957C3.75326 23.4691 3.51731 23.0632 3.39519 22.6177Z" stroke="white" stroke-width="2.6609" stroke-linecap="round" stroke-linejoin="round"/>
<path d="M13.3735 19.9568L20.0258 15.9655L13.3735 11.9741V19.9568Z" stroke="white" stroke-width="2.6609" stroke-linecap="round" stroke-linejoin="round"/>
</svg>
