<svg width="221" height="103" viewBox="0 0 221 103" fill="none" xmlns="http://www.w3.org/2000/svg">
<path d="M25.1082 99.3192L27.8235 92.0819H28.9595L31.664 99.3192H30.5822L30.0305 97.7398H26.7417L26.19 99.3192H25.1082ZM27.0555 96.8635H29.7167L28.3861 93.1096L27.0555 96.8635ZM34.9741 99.4491C34.5774 99.4491 34.1916 99.3878 33.8166 99.2651C33.4415 99.1425 33.1098 98.955 32.8213 98.7026C32.54 98.4502 32.3345 98.1292 32.2047 97.7398L33.1458 97.4585C33.2324 97.7181 33.373 97.9345 33.5677 98.1076C33.7625 98.2735 33.986 98.3961 34.2385 98.4754C34.4981 98.5548 34.7577 98.5944 35.0174 98.5944C35.3059 98.5944 35.5799 98.5475 35.8396 98.4538C36.0992 98.36 36.3084 98.2194 36.467 98.0319C36.6329 97.8371 36.7158 97.5955 36.7158 97.3071C36.7158 97.0114 36.6077 96.777 36.3913 96.6039C36.1749 96.4308 35.7999 96.2757 35.2662 96.1387L34.3467 95.9331C34.0149 95.8466 33.6867 95.7312 33.3622 95.587C33.0449 95.4427 32.7816 95.2372 32.5725 94.9703C32.3705 94.7035 32.2696 94.3465 32.2696 93.8993C32.2696 93.4882 32.3958 93.1384 32.6482 92.85C32.9078 92.5615 33.2396 92.3415 33.6435 92.1901C34.0546 92.0386 34.4801 91.9629 34.92 91.9629C35.259 91.9629 35.5907 92.0134 35.9153 92.1143C36.247 92.2081 36.5427 92.3559 36.8024 92.5579C37.0692 92.7526 37.2784 93.005 37.4298 93.3151L36.4995 93.5856C36.3624 93.3332 36.1389 93.1421 35.8287 93.0122C35.5258 92.8824 35.2085 92.8175 34.8767 92.8175C34.6171 92.8175 34.3683 92.8608 34.1303 92.9473C33.8923 93.0267 33.6976 93.1493 33.5461 93.3151C33.3947 93.481 33.3189 93.6902 33.3189 93.9426C33.3189 94.1806 33.3874 94.3717 33.5245 94.516C33.6687 94.6602 33.8562 94.7756 34.087 94.8621C34.325 94.9415 34.5847 95.0136 34.8659 95.0785L35.6557 95.2516C36.0235 95.3381 36.3697 95.4571 36.6942 95.6086C37.0187 95.7601 37.282 95.9728 37.4839 96.2469C37.6859 96.5209 37.7868 96.8888 37.7868 97.3503C37.7868 97.6821 37.7075 97.9814 37.5488 98.2482C37.3902 98.5079 37.1774 98.7278 36.9106 98.9081C36.6437 99.0812 36.3408 99.2147 36.0018 99.3084C35.6701 99.4022 35.3275 99.4491 34.9741 99.4491ZM41.4185 99.4491C41.0219 99.4491 40.636 99.3878 40.261 99.2651C39.886 99.1425 39.5542 98.955 39.2657 98.7026C38.9844 98.4502 38.7789 98.1292 38.6491 97.7398L39.5903 97.4585C39.6768 97.7181 39.8174 97.9345 40.0122 98.1076C40.2069 98.2735 40.4305 98.3961 40.6829 98.4754C40.9425 98.5548 41.2022 98.5944 41.4618 98.5944C41.7503 98.5944 42.0244 98.5475 42.284 98.4538C42.5436 98.36 42.7528 98.2194 42.9114 98.0319C43.0773 97.8371 43.1603 97.5955 43.1603 97.3071C43.1603 97.0114 43.0521 96.777 42.8357 96.6039C42.6194 96.4308 42.2443 96.2757 41.7106 96.1387L40.7911 95.9331C40.4593 95.8466 40.1312 95.7312 39.8066 95.587C39.4893 95.4427 39.226 95.2372 39.0169 94.9703C38.815 94.7035 38.714 94.3465 38.714 93.8993C38.714 93.4882 38.8402 93.1384 39.0926 92.85C39.3523 92.5615 39.684 92.3415 40.0879 92.1901C40.499 92.0386 40.9245 91.9629 41.3644 91.9629C41.7034 91.9629 42.0352 92.0134 42.3597 92.1143C42.6915 92.2081 42.9872 92.3559 43.2468 92.5579C43.5137 92.7526 43.7228 93.005 43.8743 93.3151L42.9439 93.5856C42.8069 93.3332 42.5833 93.1421 42.2732 93.0122C41.9703 92.8824 41.6529 92.8175 41.3212 92.8175C41.0615 92.8175 40.8127 92.8608 40.5747 92.9473C40.3367 93.0267 40.142 93.1493 39.9905 93.3151C39.8391 93.481 39.7634 93.6902 39.7634 93.9426C39.7634 94.1806 39.8319 94.3717 39.9689 94.516C40.1131 94.6602 40.3007 94.7756 40.5314 94.8621C40.7694 94.9415 41.0291 95.0136 41.3104 95.0785L42.1001 95.2516C42.4679 95.3381 42.8141 95.4571 43.1386 95.6086C43.4632 95.7601 43.7264 95.9728 43.9284 96.2469C44.1303 96.5209 44.2313 96.8888 44.2313 97.3503C44.2313 97.6821 44.1519 97.9814 43.9933 98.2482C43.8346 98.5079 43.6218 98.7278 43.355 98.9081C43.0881 99.0812 42.7852 99.2147 42.4463 99.3084C42.1145 99.4022 41.7719 99.4491 41.4185 99.4491ZM45.483 99.3192V92.0927H50.3836V92.969H46.4999V95.1651H49.3667V96.0413H46.4999V98.443H50.3836V99.3192H45.483ZM54.001 99.4491C53.6043 99.4491 53.2185 99.3878 52.8435 99.2651C52.4684 99.1425 52.1367 98.955 51.8482 98.7026C51.5669 98.4502 51.3614 98.1292 51.2316 97.7398L52.1727 97.4585C52.2593 97.7181 52.3999 97.9345 52.5946 98.1076C52.7894 98.2735 53.0129 98.3961 53.2654 98.4754C53.525 98.5548 53.7846 98.5944 54.0443 98.5944C54.3328 98.5944 54.6068 98.5475 54.8665 98.4538C55.1261 98.36 55.3353 98.2194 55.4939 98.0319C55.6598 97.8371 55.7427 97.5955 55.7427 97.3071C55.7427 97.0114 55.6346 96.777 55.4182 96.6039C55.2018 96.4308 54.8268 96.2757 54.2931 96.1387L53.3736 95.9331C53.0418 95.8466 52.7136 95.7312 52.3891 95.587C52.0718 95.4427 51.8085 95.2372 51.5994 94.9703C51.3974 94.7035 51.2965 94.3465 51.2965 93.8993C51.2965 93.4882 51.4227 93.1384 51.6751 92.85C51.9347 92.5615 52.2665 92.3415 52.6704 92.1901C53.0815 92.0386 53.507 91.9629 53.9469 91.9629C54.2859 91.9629 54.6176 92.0134 54.9422 92.1143C55.2739 92.2081 55.5696 92.3559 55.8293 92.5579C56.0961 92.7526 56.3053 93.005 56.4567 93.3151L55.5264 93.5856C55.3893 93.3332 55.1658 93.1421 54.8556 93.0122C54.5527 92.8824 54.2354 92.8175 53.9036 92.8175C53.644 92.8175 53.3952 92.8608 53.1572 92.9473C52.9192 93.0267 52.7245 93.1493 52.573 93.3151C52.4216 93.481 52.3458 93.6902 52.3458 93.9426C52.3458 94.1806 52.4143 94.3717 52.5514 94.516C52.6956 94.6602 52.8831 94.7756 53.1139 94.8621C53.3519 94.9415 53.6116 95.0136 53.8928 95.0785L54.6826 95.2516C55.0504 95.3381 55.3966 95.4571 55.7211 95.6086C56.0456 95.7601 56.3089 95.9728 56.5108 96.2469C56.7128 96.5209 56.8137 96.8888 56.8137 97.3503C56.8137 97.6821 56.7344 97.9814 56.5757 98.2482C56.4171 98.5079 56.2043 98.7278 55.9375 98.9081C55.6706 99.0812 55.3677 99.2147 55.0287 99.3084C54.697 99.4022 54.3544 99.4491 54.001 99.4491ZM60.4454 99.4491C60.0488 99.4491 59.6629 99.3878 59.2879 99.2651C58.9129 99.1425 58.5811 98.955 58.2926 98.7026C58.0113 98.4502 57.8058 98.1292 57.676 97.7398L58.6172 97.4585C58.7037 97.7181 58.8443 97.9345 59.0391 98.1076C59.2338 98.2735 59.4574 98.3961 59.7098 98.4754C59.9694 98.5548 60.2291 98.5944 60.4887 98.5944C60.7772 98.5944 61.0513 98.5475 61.3109 98.4538C61.5705 98.36 61.7797 98.2194 61.9383 98.0319C62.1042 97.8371 62.1872 97.5955 62.1872 97.3071C62.1872 97.0114 62.079 96.777 61.8626 96.6039C61.6463 96.4308 61.2712 96.2757 60.7375 96.1387L59.818 95.9331C59.4862 95.8466 59.1581 95.7312 58.8335 95.587C58.5162 95.4427 58.2529 95.2372 58.0438 94.9703C57.8419 94.7035 57.7409 94.3465 57.7409 93.8993C57.7409 93.4882 57.8671 93.1384 58.1195 92.85C58.3792 92.5615 58.7109 92.3415 59.1148 92.1901C59.5259 92.0386 59.9514 91.9629 60.3913 91.9629C60.7303 91.9629 61.0621 92.0134 61.3866 92.1143C61.7184 92.2081 62.0141 92.3559 62.2737 92.5579C62.5406 92.7526 62.7497 93.005 62.9012 93.3151L61.9708 93.5856C61.8338 93.3332 61.6102 93.1421 61.3001 93.0122C60.9972 92.8824 60.6798 92.8175 60.3481 92.8175C60.0884 92.8175 59.8396 92.8608 59.6016 92.9473C59.3636 93.0267 59.1689 93.1493 59.0174 93.3151C58.866 93.481 58.7903 93.6902 58.7903 93.9426C58.7903 94.1806 58.8588 94.3717 58.9958 94.516C59.14 94.6602 59.3276 94.7756 59.5583 94.8621C59.7963 94.9415 60.056 95.0136 60.3373 95.0785L61.127 95.2516C61.4948 95.3381 61.841 95.4571 62.1655 95.6086C62.4901 95.7601 62.7533 95.9728 62.9553 96.2469C63.1572 96.5209 63.2582 96.8888 63.2582 97.3503C63.2582 97.6821 63.1788 97.9814 63.0202 98.2482C62.8615 98.5079 62.6487 98.7278 62.3819 98.9081C62.115 99.0812 61.8121 99.2147 61.4732 99.3084C61.1414 99.4022 60.7988 99.4491 60.4454 99.4491ZM67.6147 99.4491C66.9223 99.4491 66.3237 99.2904 65.8189 98.9731C65.314 98.6485 64.9209 98.205 64.6397 97.6424C64.3656 97.0727 64.2286 96.4236 64.2286 95.6951C64.2286 94.9667 64.3656 94.3248 64.6397 93.7695C64.9209 93.207 65.314 92.767 65.8189 92.4497C66.3237 92.1251 66.9223 91.9629 67.6147 91.9629C68.3143 91.9629 68.9165 92.1251 69.4213 92.4497C69.9262 92.767 70.3156 93.207 70.5897 93.7695C70.8709 94.3248 71.0116 94.9667 71.0116 95.6951C71.0116 96.4236 70.8709 97.0727 70.5897 97.6424C70.3156 98.205 69.9262 98.6485 69.4213 98.9731C68.9165 99.2904 68.3143 99.4491 67.6147 99.4491ZM67.6147 98.5944C68.0546 98.5944 68.4513 98.4826 68.8047 98.2591C69.1653 98.0355 69.4502 97.7109 69.6593 97.2854C69.8685 96.8527 69.973 96.3226 69.973 95.6951C69.973 95.0749 69.8685 94.552 69.6593 94.1265C69.4502 93.6938 69.1653 93.3692 68.8047 93.1529C68.4513 92.9293 68.0546 92.8175 67.6147 92.8175C67.1819 92.8175 66.7853 92.9293 66.4247 93.1529C66.0713 93.3692 65.79 93.6938 65.5809 94.1265C65.3717 94.552 65.2671 95.0749 65.2671 95.6951C65.2671 96.3226 65.3717 96.8527 65.5809 97.2854C65.79 97.7109 66.0713 98.0355 66.4247 98.2591C66.7853 98.4826 67.1819 98.5944 67.6147 98.5944ZM72.3699 99.3192V92.0927H74.6634C75.2548 92.0927 75.7741 92.1468 76.2212 92.255C76.6756 92.3559 77.029 92.5579 77.2814 92.8608C77.541 93.1565 77.6709 93.5928 77.6709 94.1698C77.6709 94.4943 77.6204 94.7972 77.5194 95.0785C77.4184 95.3598 77.2237 95.5978 76.9352 95.7925C76.6539 95.9872 76.232 96.1243 75.6695 96.2036L77.9089 99.3192H76.6648L74.4687 96.2793H73.3869V99.3192H72.3699ZM73.3869 95.4247H74.7391C75.0925 95.4247 75.4099 95.3994 75.6911 95.349C75.9796 95.2985 76.2068 95.1867 76.3727 95.0136C76.5458 94.8333 76.6323 94.5592 76.6323 94.1914C76.6323 93.8164 76.5458 93.5423 76.3727 93.3692C76.2068 93.1961 75.9796 93.0844 75.6911 93.0339C75.4099 92.9762 75.0925 92.9473 74.7391 92.9473H73.3869V95.4247ZM78.9492 99.3192V98.5187H79.9661V92.8932H78.9492V92.0927H81.9999V92.8932H80.983V98.5187H81.9999V99.3192H78.9492ZM82.8228 99.3192L85.5381 92.0819H86.674L89.3786 99.3192H88.2968L87.745 97.7398H84.4563L83.9046 99.3192H82.8228ZM84.77 96.8635H87.4313L86.1007 93.1096L84.77 96.8635ZM93.3407 99.3192V92.0927H98.2414V92.969H94.3576V95.1651H97.2245V96.0413H94.3576V98.443H98.2414V99.3192H93.3407ZM99.4788 99.3192V92.0927H101.166L103.092 97.9994L105.018 92.0927H106.705V99.3192H105.688V93.1529L103.601 99.3192H102.594L100.496 93.1529V99.3192H99.4788ZM111.277 99.3192V98.5187H112.294V92.8932H111.277V92.0927H114.328V92.8932H113.311V98.5187H114.328V99.3192H111.277ZM115.865 99.3192V92.0927H117.368L120.657 98.2374V92.0927H121.674V99.3192H120.181L116.881 93.1421V99.3192H115.865ZM125.087 99.3192L122.609 92.0927H123.723L125.682 98.1292L127.65 92.0927H128.765L126.277 99.3192H125.087ZM129.694 99.3192V92.0927H134.594V92.969H130.711V95.1651H133.577V96.0413H130.711V98.443H134.594V99.3192H129.694ZM138.212 99.4491C137.815 99.4491 137.429 99.3878 137.054 99.2651C136.679 99.1425 136.347 98.955 136.059 98.7026C135.778 98.4502 135.572 98.1292 135.442 97.7398L136.383 97.4585C136.47 97.7181 136.611 97.9345 136.805 98.1076C137 98.2735 137.224 98.3961 137.476 98.4754C137.736 98.5548 137.995 98.5944 138.255 98.5944C138.543 98.5944 138.817 98.5475 139.077 98.4538C139.337 98.36 139.546 98.2194 139.705 98.0319C139.87 97.8371 139.953 97.5955 139.953 97.3071C139.953 97.0114 139.845 96.777 139.629 96.6039C139.412 96.4308 139.037 96.2757 138.504 96.1387L137.584 95.9331C137.252 95.8466 136.924 95.7312 136.6 95.587C136.282 95.4427 136.019 95.2372 135.81 94.9703C135.608 94.7035 135.507 94.3465 135.507 93.8993C135.507 93.4882 135.633 93.1384 135.886 92.85C136.145 92.5615 136.477 92.3415 136.881 92.1901C137.292 92.0386 137.718 91.9629 138.158 91.9629C138.497 91.9629 138.828 92.0134 139.153 92.1143C139.485 92.2081 139.78 92.3559 140.04 92.5579C140.307 92.7526 140.516 93.005 140.667 93.3151L139.737 93.5856C139.6 93.3332 139.376 93.1421 139.066 93.0122C138.763 92.8824 138.446 92.8175 138.114 92.8175C137.855 92.8175 137.606 92.8608 137.368 92.9473C137.13 93.0267 136.935 93.1493 136.784 93.3151C136.632 93.481 136.556 93.6902 136.556 93.9426C136.556 94.1806 136.625 94.3717 136.762 94.516C136.906 94.6602 137.094 94.7756 137.325 94.8621C137.563 94.9415 137.822 95.0136 138.103 95.0785L138.893 95.2516C139.261 95.3381 139.607 95.4571 139.932 95.6086C140.256 95.7601 140.52 95.9728 140.721 96.2469C140.923 96.5209 141.024 96.8888 141.024 97.3503C141.024 97.6821 140.945 97.9814 140.786 98.2482C140.628 98.5079 140.415 98.7278 140.148 98.9081C139.881 99.0812 139.578 99.2147 139.239 99.3084C138.908 99.4022 138.565 99.4491 138.212 99.4491ZM143.964 99.3192V92.969H141.562V92.0927H147.382V92.969H144.981V99.3192H143.964ZM148.2 99.3192V98.5187H149.217V92.8932H148.2V92.0927H151.251V92.8932H150.234V98.5187H151.251V99.3192H148.2ZM152.788 99.3192V92.0927H154.476L156.401 97.9994L158.327 92.0927H160.014V99.3192H158.998V93.1529L156.91 99.3192H155.904L153.805 93.1529V99.3192H152.788ZM161.662 99.3192V92.0927H166.563V92.969H162.679V95.1651H165.546V96.0413H162.679V98.443H166.563V99.3192H161.662ZM167.8 99.3192V92.0927H169.304L172.593 98.2374V92.0927H173.61V99.3192H172.117L168.817 93.1421V99.3192H167.8ZM176.947 99.3192V92.969H174.545V92.0927H180.365V92.969H177.963V99.3192H176.947ZM183.984 99.4491C183.292 99.4491 182.693 99.2904 182.188 98.9731C181.683 98.6485 181.29 98.205 181.009 97.6424C180.735 97.0727 180.598 96.4236 180.598 95.6951C180.598 94.9667 180.735 94.3248 181.009 93.7695C181.29 93.207 181.683 92.767 182.188 92.4497C182.693 92.1251 183.292 91.9629 183.984 91.9629C184.684 91.9629 185.286 92.1251 185.791 92.4497C186.296 92.767 186.685 93.207 186.959 93.7695C187.24 94.3248 187.381 94.9667 187.381 95.6951C187.381 96.4236 187.24 97.0727 186.959 97.6424C186.685 98.205 186.296 98.6485 185.791 98.9731C185.286 99.2904 184.684 99.4491 183.984 99.4491ZM183.984 98.5944C184.424 98.5944 184.821 98.4826 185.174 98.2591C185.535 98.0355 185.82 97.7109 186.029 97.2854C186.238 96.8527 186.342 96.3226 186.342 95.6951C186.342 95.0749 186.238 94.552 186.029 94.1265C185.82 93.6938 185.535 93.3692 185.174 93.1529C184.821 92.9293 184.424 92.8175 183.984 92.8175C183.551 92.8175 183.155 92.9293 182.794 93.1529C182.441 93.3692 182.159 93.6938 181.95 94.1265C181.741 94.552 181.637 95.0749 181.637 95.6951C181.637 96.3226 181.741 96.8527 181.95 97.2854C182.159 97.7109 182.441 98.0355 182.794 98.2591C183.155 98.4826 183.551 98.5944 183.984 98.5944ZM191.119 99.4491C190.723 99.4491 190.337 99.3878 189.962 99.2651C189.587 99.1425 189.255 98.955 188.967 98.7026C188.685 98.4502 188.48 98.1292 188.35 97.7398L189.291 97.4585C189.378 97.7181 189.518 97.9345 189.713 98.1076C189.908 98.2735 190.131 98.3961 190.384 98.4754C190.643 98.5548 190.903 98.5944 191.163 98.5944C191.451 98.5944 191.725 98.5475 191.985 98.4538C192.244 98.36 192.454 98.2194 192.612 98.0319C192.778 97.8371 192.861 97.5955 192.861 97.3071C192.861 97.0114 192.753 96.777 192.537 96.6039C192.32 96.4308 191.945 96.2757 191.411 96.1387L190.492 95.9331C190.16 95.8466 189.832 95.7312 189.507 95.587C189.19 95.4427 188.927 95.2372 188.718 94.9703C188.516 94.7035 188.415 94.3465 188.415 93.8993C188.415 93.4882 188.541 93.1384 188.793 92.85C189.053 92.5615 189.385 92.3415 189.789 92.1901C190.2 92.0386 190.625 91.9629 191.065 91.9629C191.404 91.9629 191.736 92.0134 192.061 92.1143C192.392 92.2081 192.688 92.3559 192.948 92.5579C193.214 92.7526 193.424 93.005 193.575 93.3151L192.645 93.5856C192.508 93.3332 192.284 93.1421 191.974 93.0122C191.671 92.8824 191.354 92.8175 191.022 92.8175C190.762 92.8175 190.514 92.8608 190.276 92.9473C190.038 93.0267 189.843 93.1493 189.691 93.3151C189.54 93.481 189.464 93.6902 189.464 93.9426C189.464 94.1806 189.533 94.3717 189.67 94.516C189.814 94.6602 190.001 94.7756 190.232 94.8621C190.47 94.9415 190.73 95.0136 191.011 95.0785L191.801 95.2516C192.169 95.3381 192.515 95.4571 192.839 95.6086C193.164 95.7601 193.427 95.9728 193.629 96.2469C193.831 96.5209 193.932 96.8888 193.932 97.3503C193.932 97.6821 193.853 97.9814 193.694 98.2482C193.535 98.5079 193.323 98.7278 193.056 98.9081C192.789 99.0812 192.486 99.2147 192.147 99.3084C191.815 99.4022 191.473 99.4491 191.119 99.4491Z" fill="white"/>
<path d="M-0.161786 66.906H5.06562L12.0457 74.9985C16.6584 69.6035 18.9749 66.906 18.9952 66.906H24.2378C24.2785 66.9161 24.2988 66.9415 24.2988 66.9822V83.1825C24.2988 83.2333 24.2785 83.2587 24.2378 83.2587H19.1476C19.0968 83.2587 19.0714 83.2333 19.0714 83.1825V73.5355L12.0914 81.6433H12.0152C11.9745 81.6331 9.63261 78.9305 4.98942 73.5355V83.1825C4.98942 83.2333 4.96402 83.2587 4.91322 83.2587H-0.161786C-0.212587 83.2587 -0.237988 83.2333 -0.237988 83.1825V66.9822C-0.227828 66.9314 -0.202427 66.906 -0.161786 66.906ZM25.899 66.906H48.2108C48.2616 66.9161 48.287 66.9415 48.287 66.9822V70.716C48.287 70.7668 48.2616 70.7922 48.2108 70.7922H25.899C25.8482 70.7922 25.8228 70.7668 25.8228 70.716V66.9822C25.833 66.9314 25.8584 66.906 25.899 66.906ZM25.899 73.3069H48.2108C48.2616 73.317 48.287 73.3424 48.287 73.3831V76.7816C48.287 76.8324 48.2616 76.8578 48.2108 76.8578H25.899C25.8482 76.8578 25.8228 76.8324 25.8228 76.7816V73.3831C25.833 73.3323 25.8584 73.3069 25.899 73.3069ZM25.899 79.3877H48.2108C48.2616 79.3877 48.287 79.408 48.287 79.4487V83.1825C48.287 83.2333 48.2616 83.2587 48.2108 83.2587H25.899C25.8482 83.2587 25.8228 83.2333 25.8228 83.1825V79.4487C25.833 79.408 25.8584 79.3877 25.899 79.3877ZM49.8872 66.906H72.1989C72.2497 66.9161 72.2751 66.9415 72.2751 66.9822V70.716C72.2751 70.7668 72.2497 70.7922 72.1989 70.7922H63.6796V83.1825C63.6796 83.2333 63.6542 83.2587 63.6034 83.2587H58.5132C58.4624 83.2587 58.437 83.2333 58.437 83.1825V70.7922H49.8872C49.8364 70.7922 49.811 70.7668 49.811 70.716V66.9822C49.8211 66.9314 49.8465 66.906 49.8872 66.906ZM83.4157 66.906H88.6126C88.7143 66.9974 89.7861 68.7805 91.8283 72.2553C95.9534 79.2556 98.1022 82.9133 98.275 83.2283V83.2587H92.2703C92.1281 83.1165 90.2738 79.9973 86.7076 73.9012C86.2707 73.1697 86.0421 72.8039 86.0218 72.8039C82.0085 79.6214 79.946 83.1063 79.8343 83.2587H73.7991V83.1825C79.9765 72.6871 83.182 67.2616 83.4157 66.906ZM99.799 66.906H105.804C105.987 67.1092 106.657 68.2319 107.815 70.274C107.907 70.3858 109.309 72.7531 112.022 77.376H112.052C116.106 70.4874 118.169 66.9974 118.24 66.906H124.275C124.275 67.0076 122.736 69.6289 119.657 74.7699C117.259 78.8746 115.588 81.7042 114.643 83.2587H109.416C109.162 82.893 106.007 77.5386 99.9514 67.1955C99.9108 67.1955 99.86 67.099 99.799 66.906ZM125.875 66.906H148.187C148.238 66.9161 148.263 66.9415 148.263 66.9822V70.716C148.263 70.7668 148.238 70.7922 148.187 70.7922H125.875C125.824 70.7922 125.799 70.7668 125.799 70.716V66.9822C125.809 66.9314 125.834 66.906 125.875 66.906ZM125.875 73.3069H148.187C148.238 73.317 148.263 73.3424 148.263 73.3831V76.7816C148.263 76.8324 148.238 76.8578 148.187 76.8578H125.875C125.824 76.8578 125.799 76.8324 125.799 76.7816V73.3831C125.809 73.3323 125.834 73.3069 125.875 73.3069ZM125.875 79.3877H148.187C148.238 79.3877 148.263 79.408 148.263 79.4487V83.1825C148.263 83.2333 148.238 83.2587 148.187 83.2587H125.875C125.824 83.2587 125.799 83.2333 125.799 83.1825V79.4487C125.809 79.408 125.834 79.3877 125.875 79.3877ZM149.863 66.906H167.085C168.649 66.906 170.016 67.5054 171.184 68.7043C171.896 69.5273 172.251 70.4163 172.251 71.3713V74.328C172.251 75.8621 171.408 77.1322 169.721 78.138L169.066 78.4276L172.251 83.2283L172.175 83.2587H165.987C165.835 83.086 164.824 81.5874 162.955 78.7629H155.014V83.1825C155.014 83.2333 154.989 83.2587 154.938 83.2587H149.863C149.812 83.2587 149.787 83.2333 149.787 83.1825V66.9822C149.797 66.9314 149.823 66.906 149.863 66.906ZM155.014 70.7922V74.8766H164.936C165.992 74.8766 166.663 74.4143 166.948 73.4897C166.988 73.2764 167.008 73.0681 167.008 72.8649C167.008 71.8794 166.597 71.224 165.774 70.8989C165.52 70.8278 165.261 70.7922 164.997 70.7922H155.014ZM178.865 66.906H196.163C196.214 66.9161 196.239 66.9415 196.239 66.9822V70.716C196.239 70.7668 196.214 70.7922 196.163 70.7922H180.328C179.445 70.904 179.003 71.3307 179.003 72.0724C179.003 72.5702 179.272 72.9462 179.81 73.2002C179.973 73.2713 180.166 73.3069 180.389 73.3069H191.149C192.663 73.3069 194.004 73.9063 195.172 75.1052C195.884 75.9282 196.239 76.807 196.239 77.7418V78.8695C196.239 80.4647 195.31 81.755 193.45 82.7406C192.678 83.086 191.886 83.2587 191.073 83.2587H173.851C173.801 83.2587 173.775 83.2333 173.775 83.1825V79.4487C173.785 79.408 173.811 79.3877 173.851 79.3877H189.61C190.25 79.3877 190.692 79.1032 190.936 78.5343C190.976 78.2904 190.997 78.1482 190.997 78.1075C190.997 77.5995 190.732 77.2185 190.204 76.9645C190.042 76.8934 189.843 76.8578 189.61 76.8578H179.003C177.255 76.8578 175.792 76.1771 174.613 74.8156C174.055 74.0739 173.775 73.2916 173.775 72.4686V71.3409C173.775 69.8473 174.603 68.6129 176.259 67.6375C177.204 67.2006 178.073 66.9568 178.865 66.906ZM202.808 66.906H214.954C216.783 66.906 218.272 67.6121 219.42 69.0243C219.958 69.7762 220.227 70.5687 220.227 71.4018V78.7933C220.227 80.4494 219.298 81.755 217.438 82.7101C216.656 83.0759 215.828 83.2587 214.954 83.2587H202.96C201.182 83.2587 199.704 82.5374 198.525 81.0946C198.017 80.3732 197.763 79.6214 197.763 78.8391V71.3713C197.763 69.634 198.789 68.2827 200.842 67.3174C201.655 67.0431 202.31 66.906 202.808 66.906ZM202.991 73.4593V76.6749C202.991 77.9958 203.677 78.8746 205.048 79.3115C205.241 79.3623 205.444 79.3877 205.658 79.3877H212.363C213.562 79.3877 214.401 78.7527 214.878 77.4827C214.949 77.2998 214.985 77.056 214.985 76.7511V73.6421C214.985 72.2502 214.34 71.3205 213.049 70.8532C212.673 70.8125 212.343 70.7922 212.059 70.7922H205.658C204.428 70.7922 203.575 71.4221 203.097 72.682C203.026 72.936 202.991 73.1951 202.991 73.4593Z" fill="white"/>
<path d="M5.06562 66.906L5.08715 66.8874L5.07864 66.8775H5.06562V66.906ZM12.0457 74.9985L12.0241 75.0171L12.0457 75.0422L12.0673 75.017L12.0457 74.9985ZM24.2378 66.906L24.245 66.8775H24.2378V66.906ZM19.0714 73.5355H19.0998V73.4589L19.0499 73.5169L19.0714 73.5355ZM12.0914 81.6433V81.6717H12.1044L12.1129 81.6618L12.0914 81.6433ZM12.0152 81.6433L12.0081 81.6717H12.0152V81.6433ZM4.98942 73.5355L5.01096 73.5169L4.96099 73.4588V73.5355H4.98942ZM-0.237988 66.9822L-0.266416 66.9765V66.9822H-0.237988ZM-0.161786 66.9344H5.06562V66.8775H-0.161786V66.9344ZM5.04409 66.9245L12.0241 75.0171L12.0672 74.98L5.08715 66.8874L5.04409 66.9245ZM12.0673 75.017C14.3736 72.3195 16.1059 70.2964 17.2641 68.9476C17.8433 68.2732 18.2789 67.7675 18.5709 67.4304C18.717 67.2618 18.8271 67.1354 18.9013 67.0512C18.9384 67.0091 18.9665 66.9776 18.9855 66.9567C18.995 66.9462 19.0022 66.9386 19.007 66.9337C19.0094 66.9311 19.0109 66.9296 19.0118 66.9289C19.0122 66.9285 19.012 66.9287 19.0114 66.9292C19.0111 66.9294 19.0101 66.9302 19.0086 66.931C19.0083 66.9311 19.0029 66.9344 18.9952 66.9344V66.8775C18.9873 66.8775 18.9817 66.8809 18.9811 66.8812C18.9794 66.8822 18.978 66.8832 18.9772 66.8837C18.9757 66.8849 18.9743 66.8861 18.9734 66.887C18.9713 66.8888 18.9689 66.8913 18.9662 66.894C18.9607 66.8996 18.9531 66.9078 18.9435 66.9184C18.9241 66.9397 18.8958 66.9714 18.8586 67.0136C18.7842 67.098 18.674 67.2245 18.5279 67.3931C18.2358 67.7304 17.8001 68.2362 17.221 68.9106C16.0627 70.2594 14.3304 72.2825 12.024 74.98L12.0673 75.017ZM18.9952 66.9344H24.2378V66.8775H18.9952V66.9344ZM24.231 66.9335C24.247 66.9375 24.2561 66.9438 24.2614 66.9504C24.2666 66.9569 24.2704 66.9666 24.2704 66.9822H24.3272C24.3272 66.957 24.3209 66.9338 24.3058 66.9149C24.2907 66.8961 24.2694 66.8845 24.2447 66.8784L24.231 66.9335ZM24.2704 66.9822V83.1825H24.3272V66.9822H24.2704ZM24.2704 83.1825C24.2704 83.2049 24.2658 83.2164 24.2614 83.2219C24.2579 83.2262 24.2519 83.2303 24.2378 83.2303V83.2872C24.2644 83.2872 24.2889 83.2785 24.3058 83.2574C24.3217 83.2376 24.3272 83.211 24.3272 83.1825H24.2704ZM24.2378 83.2303H19.1476V83.2872H24.2378V83.2303ZM19.1476 83.2303C19.1266 83.2303 19.116 83.2251 19.1106 83.2196C19.1051 83.2141 19.0998 83.2036 19.0998 83.1825H19.043C19.043 83.2123 19.0504 83.2399 19.0704 83.2598C19.0903 83.2797 19.1178 83.2872 19.1476 83.2872V83.2303ZM19.0998 83.1825V73.5355H19.043V83.1825H19.0998ZM19.0499 73.5169L12.0698 81.6247L12.1129 81.6618L19.0929 73.554L19.0499 73.5169ZM12.0914 81.6148H12.0152V81.6717H12.0914V81.6148ZM12.0221 81.6157C12.0251 81.6164 12.0272 81.6175 12.0279 81.6179C12.0289 81.6184 12.0296 81.6189 12.0298 81.619C12.0303 81.6194 12.0304 81.6195 12.0298 81.619C12.0288 81.6182 12.0271 81.6166 12.0244 81.614C12.0191 81.6089 12.0114 81.601 12.0012 81.5903C11.981 81.5689 11.9516 81.5369 11.9132 81.4942C11.8363 81.4089 11.7235 81.2816 11.5746 81.1121C11.2768 80.773 10.8352 80.2657 10.2497 79.5901C9.07881 78.2388 7.33256 76.2144 5.01096 73.5169L4.96787 73.554C7.28947 76.2515 9.03578 78.276 10.2068 79.6273C10.7923 80.303 11.234 80.8104 11.5318 81.1496C11.6808 81.3191 11.7938 81.4467 11.8709 81.5323C11.9095 81.575 11.9392 81.6074 11.9599 81.6294C11.9703 81.6403 11.9786 81.6488 11.9849 81.6549C11.9879 81.6578 11.9908 81.6605 11.9933 81.6626C11.9946 81.6636 11.9961 81.6649 11.9978 81.666C11.9986 81.6666 12.0027 81.6694 12.0083 81.6708L12.0221 81.6157ZM4.96099 73.5355V83.1825H5.01785V73.5355H4.96099ZM4.96099 83.1825C4.96099 83.2036 4.95575 83.2141 4.95026 83.2196C4.94478 83.2251 4.93423 83.2303 4.91322 83.2303V83.2872C4.943 83.2872 4.97056 83.2797 4.99047 83.2598C5.01038 83.2399 5.01785 83.2123 5.01785 83.1825H4.96099ZM4.91322 83.2303H-0.161786V83.2872H4.91322V83.2303ZM-0.161786 83.2303C-0.182805 83.2303 -0.193347 83.2251 -0.198835 83.2196C-0.204324 83.2141 -0.209559 83.2036 -0.209559 83.1825H-0.266416C-0.266416 83.2123 -0.258951 83.2399 -0.239039 83.2598C-0.219127 83.2797 -0.191569 83.2872 -0.161786 83.2872V83.2303ZM-0.209559 83.1825V66.9822H-0.266416V83.1825H-0.209559ZM-0.210111 66.9877C-0.205668 66.9655 -0.198553 66.9524 -0.191215 66.9451C-0.184564 66.9385 -0.175646 66.9344 -0.161786 66.9344V66.8775C-0.188567 66.8775 -0.21267 66.8861 -0.231419 66.9049C-0.249482 66.923 -0.260147 66.948 -0.265864 66.9766L-0.210111 66.9877ZM48.2108 66.906L48.2164 66.8775H48.2108V66.906ZM25.8228 66.9822L25.7944 66.9765V66.9822H25.8228ZM48.2108 73.3069L48.2164 73.2784H48.2108V73.3069ZM25.8228 73.3831L25.7944 73.3774V73.3831H25.8228ZM25.8228 79.4487L25.7944 79.4416V79.4487H25.8228ZM25.899 66.9344H48.2108V66.8775H25.899V66.9344ZM48.2052 66.9338C48.2274 66.9383 48.2405 66.9454 48.2478 66.9527C48.2545 66.9594 48.2585 66.9683 48.2585 66.9822H48.3154C48.3154 66.9554 48.3068 66.9313 48.288 66.9125C48.2699 66.8945 48.2449 66.8838 48.2163 66.8781L48.2052 66.9338ZM48.2585 66.9822V70.716H48.3154V66.9822H48.2585ZM48.2585 70.716C48.2585 70.737 48.2533 70.7476 48.2478 70.7531C48.2423 70.7585 48.2318 70.7638 48.2108 70.7638V70.8206C48.2405 70.8206 48.2681 70.8132 48.288 70.7933C48.3079 70.7734 48.3154 70.7458 48.3154 70.716H48.2585ZM48.2108 70.7638H25.899V70.8206H48.2108V70.7638ZM25.899 70.7638C25.878 70.7638 25.8675 70.7585 25.862 70.7531C25.8565 70.7476 25.8513 70.737 25.8513 70.716H25.7944C25.7944 70.7458 25.8019 70.7734 25.8218 70.7933C25.8417 70.8132 25.8693 70.8206 25.899 70.8206V70.7638ZM25.8513 70.716V66.9822H25.7944V70.716H25.8513ZM25.8507 66.9877C25.8552 66.9655 25.8623 66.9524 25.8696 66.9451C25.8763 66.9385 25.8852 66.9344 25.899 66.9344V66.8775C25.8723 66.8775 25.8482 66.8861 25.8294 66.9049C25.8113 66.923 25.8007 66.948 25.795 66.9766L25.8507 66.9877ZM25.899 73.3353H48.2108V73.2784H25.899V73.3353ZM48.2052 73.3347C48.2274 73.3392 48.2405 73.3463 48.2478 73.3536C48.2545 73.3603 48.2585 73.3692 48.2585 73.3831H48.3154C48.3154 73.3563 48.3068 73.3322 48.288 73.3134C48.2699 73.2954 48.2449 73.2847 48.2163 73.279L48.2052 73.3347ZM48.2585 73.3831V76.7816H48.3154V73.3831H48.2585ZM48.2585 76.7816C48.2585 76.8026 48.2533 76.8132 48.2478 76.8187C48.2423 76.8242 48.2318 76.8294 48.2108 76.8294V76.8863C48.2405 76.8863 48.2681 76.8788 48.288 76.8589C48.3079 76.839 48.3154 76.8114 48.3154 76.7816H48.2585ZM48.2108 76.8294H25.899V76.8863H48.2108V76.8294ZM25.899 76.8294C25.878 76.8294 25.8675 76.8242 25.862 76.8187C25.8565 76.8132 25.8513 76.8026 25.8513 76.7816H25.7944C25.7944 76.8114 25.8019 76.839 25.8218 76.8589C25.8417 76.8788 25.8693 76.8863 25.899 76.8863V76.8294ZM25.8513 76.7816V73.3831H25.7944V76.7816H25.8513ZM25.8507 73.3886C25.8552 73.3664 25.8623 73.3533 25.8696 73.346C25.8763 73.3394 25.8852 73.3353 25.899 73.3353V73.2784C25.8723 73.2784 25.8482 73.2871 25.8294 73.3058C25.8113 73.3239 25.8007 73.3489 25.795 73.3775L25.8507 73.3886ZM25.899 79.4161H48.2108V79.3593H25.899V79.4161ZM48.2108 79.4161C48.2331 79.4161 48.2446 79.4207 48.2501 79.4252C48.2545 79.4286 48.2585 79.4346 48.2585 79.4487H48.3154C48.3154 79.4221 48.3068 79.3976 48.2857 79.3808C48.2658 79.3648 48.2392 79.3593 48.2108 79.3593V79.4161ZM48.2585 79.4487V83.1825H48.3154V79.4487H48.2585ZM48.2585 83.1825C48.2585 83.2036 48.2533 83.2141 48.2478 83.2196C48.2423 83.2251 48.2318 83.2303 48.2108 83.2303V83.2872C48.2405 83.2872 48.2681 83.2797 48.288 83.2598C48.3079 83.2399 48.3154 83.2123 48.3154 83.1825H48.2585ZM48.2108 83.2303H25.899V83.2872H48.2108V83.2303ZM25.899 83.2303C25.878 83.2303 25.8675 83.2251 25.862 83.2196C25.8565 83.2141 25.8513 83.2036 25.8513 83.1825H25.7944C25.7944 83.2123 25.8019 83.2399 25.8218 83.2598C25.8417 83.2797 25.8693 83.2872 25.899 83.2872V83.2303ZM25.8513 83.1825V79.4487H25.7944V83.1825H25.8513ZM25.8504 79.4556C25.8544 79.4395 25.8607 79.4304 25.8673 79.4252C25.8738 79.4199 25.8835 79.4161 25.899 79.4161V79.3593C25.8739 79.3593 25.8506 79.3656 25.8317 79.3808C25.8129 79.3958 25.8014 79.4172 25.7953 79.4418L25.8504 79.4556ZM72.1989 66.906L72.2046 66.8775H72.1989V66.906ZM63.6796 70.7922V70.7638H63.6512V70.7922H63.6796ZM58.437 70.7922H58.4654V70.7638H58.437V70.7922ZM49.811 66.9822L49.7826 66.9765V66.9822H49.811ZM49.8872 66.9344H72.1989V66.8775H49.8872V66.9344ZM72.1933 66.9338C72.2155 66.9383 72.2286 66.9454 72.236 66.9527C72.2426 66.9594 72.2467 66.9683 72.2467 66.9822H72.3035C72.3035 66.9554 72.2949 66.9313 72.2762 66.9125C72.2581 66.8945 72.2331 66.8838 72.2045 66.8781L72.1933 66.9338ZM72.2467 66.9822V70.716H72.3035V66.9822H72.2467ZM72.2467 70.716C72.2467 70.737 72.2414 70.7476 72.236 70.7531C72.2305 70.7585 72.2199 70.7638 72.1989 70.7638V70.8206C72.2287 70.8206 72.2562 70.8132 72.2762 70.7933C72.2961 70.7734 72.3035 70.7458 72.3035 70.716H72.2467ZM72.1989 70.7638H63.6796V70.8206H72.1989V70.7638ZM63.6512 70.7922V83.1825H63.708V70.7922H63.6512ZM63.6512 83.1825C63.6512 83.2036 63.6459 83.2141 63.6405 83.2196C63.635 83.2251 63.6244 83.2303 63.6034 83.2303V83.2872C63.6332 83.2872 63.6607 83.2797 63.6807 83.2598C63.7006 83.2399 63.708 83.2123 63.708 83.1825H63.6512ZM63.6034 83.2303H58.5132V83.2872H63.6034V83.2303ZM58.5132 83.2303C58.4921 83.2303 58.4816 83.2251 58.4761 83.2196C58.4706 83.2141 58.4654 83.2036 58.4654 83.1825H58.4085C58.4085 83.2123 58.416 83.2399 58.4359 83.2598C58.4558 83.2797 58.4834 83.2872 58.5132 83.2872V83.2303ZM58.4654 83.1825V70.7922H58.4085V83.1825H58.4654ZM58.437 70.7638H49.8872V70.8206H58.437V70.7638ZM49.8872 70.7638C49.8662 70.7638 49.8556 70.7585 49.8501 70.7531C49.8446 70.7476 49.8394 70.737 49.8394 70.716H49.7826C49.7826 70.7458 49.79 70.7734 49.8099 70.7933C49.8298 70.8132 49.8574 70.8206 49.8872 70.8206V70.7638ZM49.8394 70.716V66.9822H49.7826V70.716H49.8394ZM49.8389 66.9877C49.8433 66.9655 49.8504 66.9524 49.8578 66.9451C49.8644 66.9385 49.8733 66.9344 49.8872 66.9344V66.8775C49.8604 66.8775 49.8363 66.8861 49.8176 66.9049C49.7995 66.923 49.7888 66.948 49.7831 66.9766L49.8389 66.9877ZM83.4157 66.906V66.8775H83.4004L83.392 66.8903L83.4157 66.906ZM88.6126 66.906L88.6317 66.8848L88.6236 66.8775H88.6126V66.906ZM91.8283 72.2553L91.8038 72.2697L91.8038 72.2697L91.8283 72.2553ZM98.275 83.2283H98.3074L98.2999 83.2146L98.275 83.2283ZM98.275 83.2587V83.2872H98.3034V83.2587H98.275ZM92.2703 83.2587L92.2502 83.2788L92.2585 83.2872H92.2703V83.2587ZM86.7076 73.9012L86.7322 73.8869L86.732 73.8866L86.7076 73.9012ZM86.0218 72.8039V72.7755H86.0056L85.9973 72.7895L86.0218 72.8039ZM79.8343 83.2587V83.2872H79.8487L79.8572 83.2755L79.8343 83.2587ZM73.7991 83.2587H73.7707V83.2872H73.7991V83.2587ZM73.7991 83.1825L73.7746 83.1681L73.7707 83.1748V83.1825H73.7991ZM83.4157 66.9344H88.6126V66.8775H83.4157V66.9344ZM88.5936 66.9271C88.5975 66.9306 88.6061 66.9406 88.6202 66.9598C88.6337 66.9782 88.6512 67.0034 88.6726 67.0353C88.7154 67.0993 88.7734 67.1897 88.8467 67.3068C88.9932 67.5409 89.2005 67.8808 89.4684 68.3265C90.0043 69.2179 90.7827 70.5323 91.8038 72.2697L91.8529 72.2409C90.8317 70.5035 90.0532 69.1889 89.5171 68.2972C89.2491 67.8514 89.0417 67.5112 88.8949 67.2766C88.8215 67.1594 88.7631 67.0684 88.7199 67.0037C88.6982 66.9714 88.6803 66.9455 88.666 66.9261C88.6522 66.9074 88.6405 66.8928 88.6317 66.8848L88.5936 66.9271ZM91.8038 72.2697C95.9291 79.2705 98.0776 82.9275 98.25 83.2419L98.2999 83.2146C98.1269 82.8991 95.9776 79.2408 91.8528 72.2408L91.8038 72.2697ZM98.2465 83.2283V83.2587H98.3034V83.2283H98.2465ZM98.275 83.2303H92.2703V83.2872H98.275V83.2303ZM92.2904 83.2386C92.2836 83.2319 92.2695 83.2136 92.2469 83.181C92.2249 83.1492 92.1962 83.1058 92.1606 83.0505C92.0895 82.9399 91.9916 82.7828 91.8669 82.579C91.6174 82.1715 91.2609 81.5779 90.7974 80.7981C89.8703 79.2387 88.5153 76.9349 86.7322 73.8869L86.6831 73.9156C88.4662 76.9636 89.8214 79.2675 90.7485 80.8272C91.2121 81.607 91.5687 82.2009 91.8184 82.6087C91.9432 82.8126 92.0414 82.9702 92.1128 83.0812C92.1485 83.1368 92.1777 83.1808 92.2002 83.2134C92.2222 83.2451 92.2392 83.2678 92.2502 83.2788L92.2904 83.2386ZM86.732 73.8866C86.5136 73.5208 86.3471 73.2463 86.2326 73.0632C86.1754 72.9717 86.131 72.9027 86.0996 72.8565C86.0839 72.8335 86.0712 72.8157 86.0615 72.8034C86.0567 72.7974 86.0521 72.792 86.048 72.788C86.046 72.786 86.0434 72.7836 86.0404 72.7816C86.0385 72.7803 86.0316 72.7755 86.0218 72.7755V72.8324C86.017 72.8324 86.0135 72.8311 86.0118 72.8303C86.0099 72.8296 86.0087 72.8288 86.0082 72.8284C86.0073 72.8278 86.0072 72.8276 86.0081 72.8285C86.0098 72.8301 86.0126 72.8333 86.0169 72.8387C86.0253 72.8493 86.0371 72.8658 86.0526 72.8885C86.0834 72.9338 86.1273 73.002 86.1844 73.0933C86.2985 73.2759 86.4648 73.5501 86.6832 73.9158L86.732 73.8866ZM85.9973 72.7895C83.9907 76.1982 82.4717 78.7738 81.4405 80.5163C80.9249 81.3875 80.5312 82.0504 80.2595 82.505C79.987 82.9607 79.8382 83.2052 79.8113 83.2419L79.8572 83.2755C79.8862 83.236 80.0371 82.9878 80.3083 82.5342C80.5801 82.0794 80.9738 81.4165 81.4894 80.5452C82.5207 78.8027 84.0397 76.2271 86.0463 72.8183L85.9973 72.7895ZM79.8343 83.2303H73.7991V83.2872H79.8343V83.2303ZM73.8276 83.2587V83.1825H73.7707V83.2587H73.8276ZM73.8236 83.197C80.0014 72.7008 83.2063 67.2764 83.4395 66.9216L83.392 66.8903C83.1578 67.2467 79.9516 72.6734 73.7746 83.1681L73.8236 83.197ZM99.799 66.906V66.8775H99.7602L99.7719 66.9145L99.799 66.906ZM105.804 66.906L105.825 66.8869L105.816 66.8775H105.804V66.906ZM107.815 70.274L107.79 70.2883L107.793 70.292L107.815 70.274ZM112.022 77.376L111.997 77.3904L112.005 77.4044H112.022V77.376ZM112.052 77.376V77.4044H112.068L112.077 77.3904L112.052 77.376ZM118.24 66.906V66.8775H118.226L118.217 66.8885L118.24 66.906ZM124.275 66.906H124.303V66.8775H124.275V66.906ZM119.657 74.7699L119.633 74.7553L119.632 74.7556L119.657 74.7699ZM114.643 83.2587V83.2872H114.659L114.667 83.2735L114.643 83.2587ZM109.416 83.2587L109.392 83.275L109.401 83.2872H109.416V83.2587ZM99.9514 67.1955L99.9759 67.1812L99.9677 67.1671H99.9514V67.1955ZM99.799 66.9344H105.804V66.8775H99.799V66.9344ZM105.783 66.925C105.826 66.9738 105.901 67.0801 106.008 67.2461C106.115 67.4115 106.252 67.6344 106.419 67.915C106.754 68.476 107.212 69.267 107.791 70.2881L107.84 70.26C107.261 69.2389 106.804 68.4474 106.468 67.8858C106.3 67.605 106.163 67.3815 106.056 67.2154C105.95 67.0499 105.872 66.9397 105.825 66.8869L105.783 66.925ZM107.793 70.292C107.803 70.3042 107.834 70.3513 107.887 70.4367C107.939 70.521 108.012 70.6405 108.105 70.7955C108.292 71.1052 108.561 71.556 108.911 72.1478C109.612 73.3315 110.641 75.079 111.997 77.3904L112.046 77.3616C110.69 75.0502 109.661 73.3026 108.96 72.1189C108.609 71.527 108.341 71.0761 108.154 70.7661C108.061 70.6111 107.988 70.4913 107.935 70.4067C107.883 70.3232 107.85 70.2718 107.837 70.256L107.793 70.292ZM112.022 77.4044H112.052V77.3476H112.022V77.4044ZM112.077 77.3904C114.104 73.9461 115.633 71.3515 116.664 69.6065C117.18 68.734 117.571 68.074 117.837 67.6263C117.971 67.4025 118.073 67.2318 118.144 67.1143C118.18 67.0555 118.207 67.01 118.227 66.9779C118.248 66.9449 118.259 66.9276 118.262 66.9234L118.217 66.8885C118.212 66.8957 118.198 66.9164 118.179 66.9479C118.159 66.9803 118.131 67.026 118.095 67.0848C118.024 67.2026 117.922 67.3734 117.789 67.5972C117.522 68.0449 117.131 68.7051 116.615 69.5776C115.584 71.3226 114.055 73.9173 112.028 77.3616L112.077 77.3904ZM118.24 66.9344H124.275V66.8775H118.24V66.9344ZM124.246 66.906C124.246 66.9038 124.247 66.9032 124.246 66.9052C124.246 66.9069 124.245 66.9094 124.244 66.913C124.241 66.9201 124.237 66.9299 124.231 66.9426C124.219 66.968 124.201 67.0034 124.178 67.0489C124.13 67.14 124.058 67.2705 123.961 67.4406C123.769 67.7808 123.481 68.2785 123.096 68.9337C122.326 70.2443 121.172 72.1848 119.633 74.7553L119.681 74.7845C121.221 72.214 122.375 70.2733 123.145 68.9625C123.53 68.3072 123.818 67.8092 124.011 67.4686C124.107 67.2983 124.18 67.1672 124.228 67.0754C124.252 67.0295 124.27 66.9931 124.283 66.9664C124.289 66.9531 124.294 66.9418 124.297 66.9328C124.299 66.9282 124.3 66.9239 124.301 66.9199C124.302 66.9163 124.303 66.9113 124.303 66.906H124.246ZM119.632 74.7556C117.235 78.8603 115.563 81.6897 114.619 83.244L114.667 83.2735C115.612 81.7188 117.284 78.889 119.682 74.7843L119.632 74.7556ZM114.643 83.2303H109.416V83.2872H114.643V83.2303ZM109.439 83.2425C109.313 83.0608 108.461 81.6323 106.884 78.9542C105.306 76.277 103.004 72.3527 99.9759 67.1812L99.9269 67.2099C102.955 72.3814 105.257 76.3058 106.835 78.983C108.411 81.6593 109.264 83.0909 109.392 83.275L109.439 83.2425ZM99.9514 67.1671C99.9528 67.1671 99.949 67.1677 99.9396 67.1579C99.9308 67.1485 99.9201 67.133 99.908 67.1099C99.8838 67.0639 99.8564 66.9934 99.8261 66.8974L99.7719 66.9145C99.8025 67.0115 99.8311 67.0858 99.8577 67.1364C99.8709 67.1615 99.8844 67.1822 99.8984 67.197C99.9119 67.2112 99.9297 67.2239 99.9514 67.2239V67.1671ZM148.187 66.906L148.192 66.8775H148.187V66.906ZM125.799 66.9822L125.77 66.9765V66.9822H125.799ZM148.187 73.3069L148.192 73.2784H148.187V73.3069ZM125.799 73.3831L125.77 73.3774V73.3831H125.799ZM125.799 79.4487L125.77 79.4416V79.4487H125.799ZM125.875 66.9344H148.187V66.8775H125.875V66.9344ZM148.181 66.9338C148.203 66.9383 148.216 66.9454 148.224 66.9527C148.23 66.9594 148.235 66.9683 148.235 66.9822H148.291C148.291 66.9554 148.283 66.9313 148.264 66.9125C148.246 66.8945 148.221 66.8838 148.192 66.8781L148.181 66.9338ZM148.235 66.9822V70.716H148.291V66.9822H148.235ZM148.235 70.716C148.235 70.737 148.229 70.7476 148.224 70.7531C148.218 70.7585 148.208 70.7638 148.187 70.7638V70.8206C148.217 70.8206 148.244 70.8132 148.264 70.7933C148.284 70.7734 148.291 70.7458 148.291 70.716H148.235ZM148.187 70.7638H125.875V70.8206H148.187V70.7638ZM125.875 70.7638C125.854 70.7638 125.843 70.7585 125.838 70.7531C125.833 70.7476 125.827 70.737 125.827 70.716H125.77C125.77 70.7458 125.778 70.7734 125.798 70.7933C125.818 70.8132 125.845 70.8206 125.875 70.8206V70.7638ZM125.827 70.716V66.9822H125.77V70.716H125.827ZM125.827 66.9877C125.831 66.9655 125.838 66.9524 125.846 66.9451C125.852 66.9385 125.861 66.9344 125.875 66.9344V66.8775C125.848 66.8775 125.824 66.8861 125.805 66.9049C125.787 66.923 125.777 66.948 125.771 66.9766L125.827 66.9877ZM125.875 73.3353H148.187V73.2784H125.875V73.3353ZM148.181 73.3347C148.203 73.3392 148.216 73.3463 148.224 73.3536C148.23 73.3603 148.235 73.3692 148.235 73.3831H148.291C148.291 73.3563 148.283 73.3322 148.264 73.3134C148.246 73.2954 148.221 73.2847 148.192 73.279L148.181 73.3347ZM148.235 73.3831V76.7816H148.291V73.3831H148.235ZM148.235 76.7816C148.235 76.8026 148.229 76.8132 148.224 76.8187C148.218 76.8242 148.208 76.8294 148.187 76.8294V76.8863C148.217 76.8863 148.244 76.8788 148.264 76.8589C148.284 76.839 148.291 76.8114 148.291 76.7816H148.235ZM148.187 76.8294H125.875V76.8863H148.187V76.8294ZM125.875 76.8294C125.854 76.8294 125.843 76.8242 125.838 76.8187C125.833 76.8132 125.827 76.8026 125.827 76.7816H125.77C125.77 76.8114 125.778 76.839 125.798 76.8589C125.818 76.8788 125.845 76.8863 125.875 76.8863V76.8294ZM125.827 76.7816V73.3831H125.77V76.7816H125.827ZM125.827 73.3886C125.831 73.3664 125.838 73.3533 125.846 73.346C125.852 73.3394 125.861 73.3353 125.875 73.3353V73.2784C125.848 73.2784 125.824 73.2871 125.805 73.3058C125.787 73.3239 125.777 73.3489 125.771 73.3775L125.827 73.3886ZM125.875 79.4161H148.187V79.3593H125.875V79.4161ZM148.187 79.4161C148.209 79.4161 148.221 79.4207 148.226 79.4252C148.23 79.4286 148.235 79.4346 148.235 79.4487H148.291C148.291 79.4221 148.283 79.3976 148.262 79.3808C148.242 79.3648 148.215 79.3593 148.187 79.3593V79.4161ZM148.235 79.4487V83.1825H148.291V79.4487H148.235ZM148.235 83.1825C148.235 83.2036 148.229 83.2141 148.224 83.2196C148.218 83.2251 148.208 83.2303 148.187 83.2303V83.2872C148.217 83.2872 148.244 83.2797 148.264 83.2598C148.284 83.2399 148.291 83.2123 148.291 83.1825H148.235ZM148.187 83.2303H125.875V83.2872H148.187V83.2303ZM125.875 83.2303C125.854 83.2303 125.843 83.2251 125.838 83.2196C125.833 83.2141 125.827 83.2036 125.827 83.1825H125.77C125.77 83.2123 125.778 83.2399 125.798 83.2598C125.818 83.2797 125.845 83.2872 125.875 83.2872V83.2303ZM125.827 83.1825V79.4487H125.77V83.1825H125.827ZM125.826 79.4556C125.83 79.4395 125.837 79.4304 125.843 79.4252C125.85 79.4199 125.86 79.4161 125.875 79.4161V79.3593C125.85 79.3593 125.827 79.3656 125.808 79.3808C125.789 79.3958 125.777 79.4172 125.771 79.4418L125.826 79.4556ZM171.184 68.7043L171.206 68.6857L171.205 68.6845L171.184 68.7043ZM169.721 78.138L169.733 78.1642L169.736 78.1624L169.721 78.138ZM169.066 78.4276L169.054 78.4016L169.024 78.4152L169.042 78.4433L169.066 78.4276ZM172.251 83.2283L172.262 83.2547L172.294 83.2417L172.275 83.2125L172.251 83.2283ZM172.175 83.2587V83.2894L172.185 83.2851L172.175 83.2587ZM165.987 83.2587L165.966 83.2775L165.975 83.2872H165.987V83.2587ZM162.955 78.7629L162.978 78.7472L162.97 78.7344H162.955V78.7629ZM155.014 78.7629V78.7344H154.986V78.7629H155.014ZM149.787 66.9822L149.759 66.9765V66.9822H149.787ZM155.014 70.7922V70.7638H154.986V70.7922H155.014ZM155.014 74.8766H154.986V74.905H155.014V74.8766ZM166.948 73.4897L166.975 73.4981L166.975 73.4951L166.948 73.4897ZM165.774 70.8989L165.785 70.8723L165.782 70.8715L165.774 70.8989ZM149.863 66.9344H167.085V66.8775H149.863V66.9344ZM167.085 66.9344C168.641 66.9344 170 67.5303 171.164 68.7241L171.205 68.6845C170.031 67.4805 168.658 66.8775 167.085 66.8775V66.9344ZM171.163 68.7229C171.87 69.5415 172.223 70.4241 172.223 71.3713H172.28C172.28 70.4085 171.921 69.5131 171.206 68.6857L171.163 68.7229ZM172.223 71.3713V74.328H172.28V71.3713H172.223ZM172.223 74.328C172.223 75.8493 171.387 77.1112 169.707 78.1136L169.736 78.1624C171.428 77.1531 172.28 75.875 172.28 74.328H172.223ZM169.71 78.112L169.054 78.4016L169.077 78.4536L169.733 78.164L169.71 78.112ZM169.042 78.4433L172.227 83.244L172.275 83.2125L169.09 78.4119L169.042 78.4433ZM172.241 83.2019L172.164 83.2323L172.185 83.2851L172.262 83.2547L172.241 83.2019ZM172.175 83.2303H165.987V83.2872H172.175V83.2303ZM166.009 83.2399C165.972 83.1983 165.881 83.0739 165.735 82.8643C165.59 82.6556 165.391 82.3639 165.138 81.9893C164.633 81.2401 163.913 80.1594 162.978 78.7472L162.931 78.7786C163.866 80.1908 164.586 81.2717 165.091 82.0211C165.344 82.3958 165.543 82.6877 165.689 82.8968C165.834 83.1052 165.927 83.2328 165.966 83.2775L166.009 83.2399ZM162.955 78.7344H155.014V78.7913H162.955V78.7344ZM154.986 78.7629V83.1825H155.043V78.7629H154.986ZM154.986 83.1825C154.986 83.2036 154.981 83.2141 154.975 83.2196C154.97 83.2251 154.959 83.2303 154.938 83.2303V83.2872C154.968 83.2872 154.996 83.2797 155.015 83.2598C155.035 83.2399 155.043 83.2123 155.043 83.1825H154.986ZM154.938 83.2303H149.863V83.2872H154.938V83.2303ZM149.863 83.2303C149.842 83.2303 149.832 83.2251 149.826 83.2196C149.821 83.2141 149.815 83.2036 149.815 83.1825H149.759C149.759 83.2123 149.766 83.2399 149.786 83.2598C149.806 83.2797 149.833 83.2872 149.863 83.2872V83.2303ZM149.815 83.1825V66.9822H149.759V83.1825H149.815ZM149.815 66.9877C149.819 66.9655 149.826 66.9524 149.834 66.9451C149.84 66.9385 149.849 66.9344 149.863 66.9344V66.8775C149.836 66.8775 149.812 66.8861 149.794 66.9049C149.776 66.923 149.765 66.948 149.759 66.9766L149.815 66.9877ZM154.986 70.7922V74.8766H155.043V70.7922H154.986ZM155.014 74.905H164.936V74.8482H155.014V74.905ZM164.936 74.905C165.468 74.905 165.906 74.7886 166.247 74.5533C166.589 74.3179 166.831 73.9653 166.975 73.4981L166.92 73.4814C166.78 73.9387 166.544 74.2796 166.215 74.5065C165.886 74.7335 165.46 74.8482 164.936 74.8482V74.905ZM166.975 73.4951C167.016 73.2801 167.037 73.07 167.037 72.8649H166.98C166.98 73.0662 166.96 73.2727 166.92 73.4844L166.975 73.4951ZM167.037 72.8649C167.037 72.3682 166.933 71.9524 166.724 71.6191C166.515 71.2856 166.201 71.0369 165.784 70.8725L165.764 70.9253C166.17 71.086 166.474 71.3275 166.676 71.6494C166.878 71.9714 166.98 72.376 166.98 72.8649H167.037ZM165.782 70.8715C165.525 70.7997 165.264 70.7638 164.997 70.7638V70.8206C165.258 70.8206 165.515 70.8558 165.766 70.9263L165.782 70.8715ZM164.997 70.7638H155.014V70.8206H164.997V70.7638ZM178.865 66.906V66.8775L178.864 66.8776L178.865 66.906ZM196.163 66.906L196.169 66.8775H196.163V66.906ZM180.328 70.7922V70.7636L180.325 70.764L180.328 70.7922ZM179.81 73.2002L179.798 73.2259L179.799 73.2262L179.81 73.2002ZM195.172 75.1052L195.194 75.0866L195.193 75.0854L195.172 75.1052ZM193.45 82.7406L193.462 82.7666L193.464 82.7657L193.45 82.7406ZM173.775 79.4487L173.747 79.4416V79.4487H173.775ZM190.936 78.5343L190.963 78.5458L190.964 78.5389L190.936 78.5343ZM190.204 76.9645L190.216 76.9389L190.216 76.9385L190.204 76.9645ZM174.613 74.8156L174.591 74.8328L174.592 74.8342L174.613 74.8156ZM176.259 67.6375L176.247 67.6116L176.245 67.613L176.259 67.6375ZM178.865 66.9344H196.163V66.8775H178.865V66.9344ZM196.158 66.9338C196.18 66.9383 196.193 66.9454 196.2 66.9527C196.207 66.9594 196.211 66.9683 196.211 66.9822H196.268C196.268 66.9554 196.259 66.9313 196.24 66.9125C196.222 66.8945 196.197 66.8838 196.169 66.8781L196.158 66.9338ZM196.211 66.9822V70.716H196.268V66.9822H196.211ZM196.211 70.716C196.211 70.737 196.206 70.7476 196.2 70.7531C196.195 70.7585 196.184 70.7638 196.163 70.7638V70.8206C196.193 70.8206 196.22 70.8132 196.24 70.7933C196.26 70.7734 196.268 70.7458 196.268 70.716H196.211ZM196.163 70.7638H180.328V70.8206H196.163V70.7638ZM180.325 70.764C179.879 70.8203 179.541 70.9565 179.314 71.1756C179.087 71.3954 178.974 71.6956 178.974 72.0724H179.031C179.031 71.7075 179.139 71.4235 179.354 71.2165C179.569 71.009 179.894 70.8759 180.332 70.8204L180.325 70.764ZM178.974 72.0724C178.974 72.3268 179.043 72.5511 179.181 72.7443C179.32 72.9372 179.526 73.0974 179.798 73.2259L179.822 73.1745C179.556 73.0489 179.359 72.8942 179.228 72.7112C179.097 72.5284 179.031 72.3159 179.031 72.0724H178.974ZM179.799 73.2262C179.966 73.2993 180.163 73.3353 180.389 73.3353V73.2784C180.169 73.2784 179.98 73.2433 179.822 73.1741L179.799 73.2262ZM180.389 73.3353H191.149V73.2784H180.389V73.3353ZM191.149 73.3353C192.654 73.3353 193.988 73.931 195.152 75.125L195.193 75.0854C194.02 73.8816 192.671 73.2784 191.149 73.2784V73.3353ZM195.151 75.1238C195.858 75.9425 196.211 76.815 196.211 77.7418H196.268C196.268 76.7991 195.909 75.9139 195.194 75.0866L195.151 75.1238ZM196.211 77.7418V78.8695H196.268V77.7418H196.211ZM196.211 78.8695C196.211 80.4508 195.29 81.733 193.437 82.7154L193.464 82.7657C195.329 81.777 196.268 80.4786 196.268 78.8695H196.211ZM193.439 82.7146C192.67 83.0585 191.881 83.2303 191.073 83.2303V83.2872C191.89 83.2872 192.686 83.1135 193.462 82.7665L193.439 82.7146ZM191.073 83.2303H173.851V83.2872H191.073V83.2303ZM173.851 83.2303C173.83 83.2303 173.82 83.2251 173.814 83.2196C173.809 83.2141 173.804 83.2036 173.804 83.1825H173.747C173.747 83.2123 173.754 83.2399 173.774 83.2598C173.794 83.2797 173.822 83.2872 173.851 83.2872V83.2303ZM173.804 83.1825V79.4487H173.747V83.1825H173.804ZM173.803 79.4556C173.807 79.4395 173.813 79.4304 173.82 79.4252C173.826 79.4199 173.836 79.4161 173.851 79.4161V79.3593C173.826 79.3593 173.803 79.3656 173.784 79.3808C173.765 79.3958 173.754 79.4172 173.748 79.4418L173.803 79.4556ZM173.851 79.4161H189.61V79.3593H173.851V79.4161ZM189.61 79.4161C189.934 79.4161 190.21 79.344 190.437 79.1983C190.663 79.0524 190.838 78.8342 190.962 78.5455L190.91 78.5231C190.789 78.8033 190.621 79.0118 190.406 79.1504C190.19 79.2891 189.926 79.3593 189.61 79.3593V79.4161ZM190.964 78.5389C190.984 78.4169 190.999 78.3202 191.01 78.2487C191.02 78.1782 191.025 78.1303 191.025 78.1075H190.968C190.968 78.1254 190.963 78.169 190.953 78.2407C190.943 78.3115 190.928 78.4077 190.908 78.5296L190.964 78.5389ZM191.025 78.1075C191.025 77.8483 190.958 77.6203 190.822 77.4246C190.686 77.2291 190.484 77.0675 190.216 76.9389L190.192 76.9901C190.453 77.1156 190.647 77.2714 190.775 77.457C190.904 77.6423 190.968 77.8587 190.968 78.1075H191.025ZM190.216 76.9385C190.048 76.8654 189.846 76.8294 189.61 76.8294V76.8863C189.841 76.8863 190.035 76.9214 190.193 76.9906L190.216 76.9385ZM189.61 76.8294H179.003V76.8863H189.61V76.8294ZM179.003 76.8294C177.264 76.8294 175.808 76.1525 174.635 74.797L174.592 74.8342C175.776 76.2017 177.246 76.8863 179.003 76.8863V76.8294ZM174.636 74.7985C174.08 74.0611 173.804 73.2847 173.804 72.4686H173.747C173.747 73.2986 174.029 74.0868 174.591 74.8327L174.636 74.7985ZM173.804 72.4686V71.3409H173.747V72.4686H173.804ZM173.804 71.3409C173.804 69.8603 174.623 68.6339 176.274 67.662L176.245 67.613C174.583 68.5918 173.747 69.8343 173.747 71.3409H173.804ZM176.271 67.6633C177.214 67.2274 178.079 66.9848 178.867 66.9343L178.864 66.8776C178.067 66.9287 177.195 67.1738 176.247 67.6117L176.271 67.6633ZM219.42 69.0243L219.443 69.0078L219.442 69.0064L219.42 69.0243ZM217.438 82.7101L217.451 82.7359L217.451 82.7354L217.438 82.7101ZM198.525 81.0946L198.502 81.111L198.503 81.1126L198.525 81.0946ZM200.842 67.3174L200.833 67.2903L200.83 67.2917L200.842 67.3174ZM205.048 79.3115L205.039 79.3386L205.041 79.339L205.048 79.3115ZM214.878 77.4827L214.852 77.4724L214.851 77.4727L214.878 77.4827ZM213.049 70.8532L213.059 70.8257L213.052 70.8249L213.049 70.8532ZM203.097 72.682L203.071 72.6719L203.07 72.6743L203.097 72.682ZM202.808 66.9344H214.954V66.8775H202.808V66.9344ZM214.954 66.9344C216.775 66.9344 218.255 67.6367 219.398 69.0423L219.442 69.0064C218.288 67.5875 216.792 66.8775 214.954 66.8775V66.9344ZM219.397 69.0409C219.932 69.7885 220.199 70.5753 220.199 71.4018H220.256C220.256 70.5621 219.984 69.7639 219.443 69.0078L219.397 69.0409ZM220.199 71.4018V78.7933H220.256V71.4018H220.199ZM220.199 78.7933C220.199 80.4358 219.278 81.7331 217.425 82.6848L217.451 82.7354C219.317 81.777 220.256 80.4631 220.256 78.7933H220.199ZM217.426 82.6843C216.648 83.0483 215.824 83.2303 214.954 83.2303V83.2872C215.832 83.2872 216.664 83.1034 217.45 82.7358L217.426 82.6843ZM214.954 83.2303H202.96V83.2872H214.954V83.2303ZM202.96 83.2303C201.191 83.2303 199.721 82.5131 198.547 81.0766L198.503 81.1126C199.687 82.5616 201.173 83.2872 202.96 83.2872V83.2303ZM198.549 81.0783C198.043 80.361 197.792 79.6148 197.792 78.8391H197.735C197.735 79.628 197.991 80.3855 198.502 81.111L198.549 81.0783ZM197.792 78.8391V71.3713H197.735V78.8391H197.792ZM197.792 71.3713C197.792 69.6485 198.808 68.3054 200.854 67.3432L200.83 67.2917C198.771 68.2599 197.735 69.6194 197.735 71.3713H197.792ZM200.851 67.3444C201.663 67.0704 202.315 66.9344 202.808 66.9344V66.8775C202.305 66.8775 201.647 67.0158 200.833 67.2905L200.851 67.3444ZM202.962 73.4593V76.6749H203.019V73.4593H202.962ZM202.962 76.6749C202.962 77.3405 203.135 77.8969 203.483 78.3422C203.83 78.7873 204.35 79.1189 205.04 79.3386L205.057 79.2844C204.375 79.0672 203.866 78.741 203.527 78.3072C203.189 77.8737 203.019 77.3302 203.019 76.6749H202.962ZM205.041 79.339C205.236 79.3905 205.442 79.4161 205.658 79.4161V79.3593C205.447 79.3593 205.246 79.3342 205.055 79.284L205.041 79.339ZM205.658 79.4161H212.363V79.3593H205.658V79.4161ZM212.363 79.4161C212.968 79.4161 213.484 79.2559 213.908 78.9341C214.333 78.6126 214.665 78.1313 214.905 77.4927L214.851 77.4727C214.614 78.1041 214.288 78.5753 213.874 78.8888C213.461 79.202 212.958 79.3593 212.363 79.3593V79.4161ZM214.905 77.493C214.977 77.3055 215.013 77.0577 215.013 76.7512H214.956C214.956 77.0542 214.921 77.2941 214.852 77.4724L214.905 77.493ZM215.013 76.7512V73.6421H214.956V76.7512H215.013ZM215.013 73.6421C215.013 72.9417 214.851 72.3553 214.524 71.8847C214.198 71.4141 213.708 71.0617 213.059 70.8264L213.04 70.8799C213.68 71.112 214.159 71.4581 214.478 71.9171C214.796 72.3762 214.956 72.9506 214.956 73.6421H215.013ZM213.052 70.8249C212.676 70.7842 212.344 70.7638 212.059 70.7638V70.8206C212.342 70.8206 212.671 70.8409 213.046 70.8814L213.052 70.8249ZM212.059 70.7638H205.658V70.8206H212.059V70.7638ZM205.658 70.7638C205.038 70.7638 204.511 70.9227 204.079 71.2418C203.647 71.5608 203.311 72.0383 203.071 72.6719L203.124 72.6921C203.361 72.0659 203.691 71.5985 204.113 71.2875C204.534 70.9767 205.048 70.8206 205.658 70.8206V70.7638ZM203.07 72.6743C202.998 72.9308 202.962 73.1925 202.962 73.4593H203.019C203.019 73.1977 203.054 72.9412 203.125 72.6897L203.07 72.6743Z" fill="#D8D8D8"/>
<path fill-rule="evenodd" clip-rule="evenodd" d="M77.4604 0.574768H140.675V11.732L150.53 9.75513L144.338 23.2507L137.177 25.5895L105.339 52.6548L100.967 56.9457L100.649 56.6417L100.198 57.0247L88.5149 46.2285L77.4604 54.9691V54.5047L69 61.546L77.4604 46.559V0.574768Z" fill="white" stroke="#D8D8D8" stroke-width="0.149218" stroke-miterlimit="22.9256"/>
<path fill-rule="evenodd" clip-rule="evenodd" d="M77.6069 60.2314H140.822V20.7833L101.569 58.1542L89.0914 47.8724L77.6069 54.0082V60.2314Z" fill="white" stroke="#D8D8D8" stroke-width="0.149218" stroke-miterlimit="22.9256"/>
<path fill-rule="evenodd" clip-rule="evenodd" d="M93.6556 18.7291H103.563V45.7809L100.607 48.4376L93.6556 40.1307V18.7291Z" fill="black" stroke="#D8D8D8" stroke-width="0.149218" stroke-miterlimit="22.9256"/>
<path fill-rule="evenodd" clip-rule="evenodd" d="M104.964 13.7673H114.872V35.6174L104.964 44.5219V13.7673Z" fill="black" stroke="#D8D8D8" stroke-width="0.149218" stroke-miterlimit="22.9256"/>
<path fill-rule="evenodd" clip-rule="evenodd" d="M115.99 8.62184H125.898V25.708L115.99 34.6125V8.62184Z" fill="black" stroke="#D8D8D8" stroke-width="0.149218" stroke-miterlimit="22.9256"/>
<path fill-rule="evenodd" clip-rule="evenodd" d="M69 61.5461L89.3366 38.5142L100.362 50.2751L132.215 21.6079L128.264 19.2113L148.938 11.2252L140.117 34.2876L138.279 28.7134L101.036 64.5476L88.6013 50.5201L69 61.5461Z" fill="black"/>
</svg>
