<?xml version="1.0" encoding="UTF-8"?>
<svg id="Camada_2" data-name="Camada 2" xmlns="http://www.w3.org/2000/svg" viewBox="0 0 723.77 394.28">
  <defs>
    <style>
      .cls-1 {
        fill: #070909;
      }

      .cls-1, .cls-2, .cls-3, .cls-4, .cls-5 {
        stroke-width: 0px;
      }

      .cls-2 {
        fill: #323232;
      }

      .cls-3 {
        fill: #fff;
      }

      .cls-4 {
        fill: #4dc2ef;
      }

      .cls-5 {
        fill: #22a8e1;
      }
    </style>
  </defs>
  <g id="Camada_16" data-name="Camada 16">
    <polygon class="cls-4" points="218.53 213.21 218.53 0 494.97 0 494.97 57.56 432.96 79.85 447.55 93.64 317.84 205.51 266.76 155.25 218.53 213.21"/>
  </g>
  <g id="Camada_15" data-name="Camada 15">
    <polygon class="cls-3" points="331.48 195.51 315.54 201.73 287.44 175.88 287.44 72.56 331.48 72.56 331.48 195.51"/>
  </g>
  <g id="Camada_14" data-name="Camada 14">
    <polygon class="cls-3" points="380.36 152.49 336.31 189.06 336.31 51.79 380.36 51.79 380.36 152.49"/>
  </g>
  <g id="Camada_13" data-name="Camada 13">
    <polygon class="cls-3" points="429.24 110.66 385.19 146.33 385.19 29.86 429.24 29.86 429.24 110.66"/>
  </g>
  <g id="Camada_12" data-name="Camada 12">
    <g>
      <polygon class="cls-1" points="40.08 325.85 17.29 288.74 0 288.74 0 343.15 15.4 343.15 15.4 311.89 34.95 343.15 45.4 343.15 64.77 311.89 64.77 343.15 80.26 343.15 80.26 288.74 62.96 288.74 40.08 325.85"/>
      <rect class="cls-1" x="92.51" y="288.74" width="67.29" height="13.33"/>
      <polygon class="cls-1" points="195.29 288.74 166.01 288.74 166.01 302.07 195.29 302.07 195.29 343.15 210.42 343.15 210.42 302.07 239.07 302.07 239.07 288.74 210.42 288.74 195.29 288.74"/>
      <rect class="cls-1" x="92.51" y="329.82" width="67.29" height="13.33"/>
      <rect class="cls-1" x="92.51" y="309.28" width="65.67" height="13.33"/>
      <rect class="cls-1" x="409.36" y="288.74" width="67.29" height="13.33"/>
      <rect class="cls-1" x="409.36" y="329.82" width="67.29" height="13.33"/>
      <rect class="cls-1" x="409.36" y="309.28" width="65.67" height="13.33"/>
      <polygon class="cls-1" points="276.63 288.74 242.17 343.15 260.55 343.15 284.46 303.2 308.78 343.15 326.76 343.15 292.57 288.74 276.63 288.74"/>
      <polygon class="cls-1" points="354.33 328.69 330.01 288.74 312.04 288.74 346.22 343.15 362.16 343.15 396.62 288.74 378.24 288.74 354.33 328.69"/>
      <path class="cls-1" d="m558.93,306.85c0-16.57-16.03-18.11-16.03-18.11h-55.22v54.41h15.58v-17.02h25.85l13.42,17.02h17.38l-14.59-18.2s13.6-1.53,13.6-18.11Zm-20.09,6.13h-35.85v-10.9h35.85s4.77-.54,4.77,5.45-4.77,5.45-4.77,5.45Z"/>
      <path class="cls-1" d="m626.08,309.37h-43.42c-.82,0-1.49-.67-1.49-1.49v-3.96c0-.82.67-1.49,1.49-1.49h52.38v-13.69h-56.16c-7.09,0-12.84,5.75-12.84,12.84v7.93c0,7.09,5.75,12.84,12.84,12.84h43.6c.82,0,1.49.67,1.49,1.49v4.32c0,.82-.67,1.49-1.49,1.49h-54.27v13.51h57.87c7.09,0,12.84-5.75,12.84-12.84v-8.11c0-7.09-5.75-12.84-12.84-12.84Z"/>
      <path class="cls-1" d="m708.55,288.74h-45.76c-8.41,0-15.22,6.82-15.22,15.22v23.96c0,8.41,6.82,15.22,15.22,15.22h45.76c8.41,0,15.22-6.82,15.22-15.22v-23.96c0-8.41-6.82-15.22-15.22-15.22Zm-.09,36.71c0,2.26-1.84,4.1-4.1,4.1h-37.38c-2.26,0-4.1-1.83-4.1-4.1v-19.01c0-2.26,1.84-4.1,4.1-4.1h37.38c2.26,0,4.1,1.84,4.1,4.1v19.01Z"/>
    </g>
  </g>
  <g id="Camada_11" data-name="Camada 11">
    <polygon class="cls-1" points="218.53 266.31 218.53 234.43 266.36 209.56 318.24 266.31 218.53 266.31"/>
  </g>
  <g id="Camada_10" data-name="Camada 10">
    <polygon class="cls-1" points="322.39 266.31 478.58 121.65 486.51 147.23 494.97 134.26 494.97 266.31 322.39 266.31"/>
  </g>
  <g id="Camada_9" data-name="Camada 9">
    <polygon class="cls-5" points="180.29 252.8 267.71 151.33 317.3 201.19 443.23 94.58 425.8 79.58 534.16 42.16 507.81 107.28 524.29 51.21 436.47 80.26 452.55 93.23 317.3 210.65 268.39 159.71 180.29 252.8"/>
  </g>
  <g id="Camada_8" data-name="Camada 8">
    <g>
      <path class="cls-2" d="m93.7,393.86l9.51-24.92h3.37l9.52,24.92h-3.51l-2.43-6.53h-10.64l-2.31,6.53h-3.51Zm6.81-9.31h8.65l-3.91-10.72c-.08-.18-.15-.42-.21-.7-.06-.28-.12-.61-.19-.99h-.07c-.06.35-.12.66-.18.94s-.14.52-.22.73l-3.88,10.74Z"/>
      <path class="cls-2" d="m120.35,391.92l1.53-2.42c1.03.7,2.06,1.2,3.08,1.51,1.02.31,2.18.47,3.49.47,1.49,0,2.72-.35,3.67-1.04.95-.69,1.43-1.7,1.43-3.02,0-1.18-.4-2.13-1.2-2.83-.8-.71-2.12-1.38-3.96-2.03-2.39-.82-4.15-1.77-5.28-2.84-1.14-1.07-1.7-2.49-1.7-4.27,0-2.04.74-3.7,2.22-4.99s3.44-1.93,5.88-1.93c1.14,0,2.25.13,3.34.39s2.19.67,3.3,1.23l-1.29,2.52c-.92-.46-1.82-.8-2.71-1.03-.89-.22-1.84-.33-2.85-.33-1.46,0-2.61.34-3.46,1.02-.85.68-1.27,1.62-1.27,2.82,0,1.05.39,1.89,1.16,2.52.78.63,2.08,1.26,3.91,1.91,2.53.87,4.34,1.87,5.43,2.99,1.09,1.12,1.64,2.64,1.64,4.55,0,2.05-.74,3.76-2.22,5.12-1.48,1.36-3.56,2.04-6.25,2.04-1.48,0-2.86-.19-4.15-.57-1.28-.38-2.53-.98-3.74-1.79Z"/>
      <path class="cls-2" d="m142.14,391.92l1.53-2.42c1.03.7,2.06,1.2,3.08,1.51,1.02.31,2.18.47,3.49.47,1.49,0,2.72-.35,3.67-1.04.95-.69,1.43-1.7,1.43-3.02,0-1.18-.4-2.13-1.2-2.83-.8-.71-2.12-1.38-3.96-2.03-2.39-.82-4.15-1.77-5.28-2.84-1.14-1.07-1.7-2.49-1.7-4.27,0-2.04.74-3.7,2.22-4.99s3.44-1.93,5.88-1.93c1.14,0,2.25.13,3.34.39s2.19.67,3.3,1.23l-1.29,2.52c-.92-.46-1.82-.8-2.71-1.03-.89-.22-1.84-.33-2.85-.33-1.46,0-2.61.34-3.46,1.02-.85.68-1.27,1.62-1.27,2.82,0,1.05.39,1.89,1.16,2.52.78.63,2.08,1.26,3.91,1.91,2.53.87,4.34,1.87,5.43,2.99,1.09,1.12,1.64,2.64,1.64,4.55,0,2.05-.74,3.76-2.22,5.12-1.48,1.36-3.56,2.04-6.25,2.04-1.48,0-2.86-.19-4.15-.57-1.28-.38-2.53-.98-3.74-1.79Z"/>
      <path class="cls-2" d="m179.33,393.86h-13.36v-24.92h12.81v2.82h-9.65v8.03h8.93v2.82h-8.93v8.45h10.2v2.82Z"/>
      <path class="cls-2" d="m184.69,391.92l1.53-2.42c1.03.7,2.06,1.2,3.08,1.51,1.02.31,2.18.47,3.49.47,1.49,0,2.72-.35,3.67-1.04.95-.69,1.43-1.7,1.43-3.02,0-1.18-.4-2.13-1.2-2.83-.8-.71-2.12-1.38-3.96-2.03-2.39-.82-4.15-1.77-5.28-2.84-1.14-1.07-1.7-2.49-1.7-4.27,0-2.04.74-3.7,2.22-4.99s3.44-1.93,5.88-1.93c1.14,0,2.25.13,3.34.39s2.19.67,3.3,1.23l-1.29,2.52c-.92-.46-1.82-.8-2.71-1.03-.89-.22-1.84-.33-2.85-.33-1.46,0-2.61.34-3.46,1.02-.85.68-1.27,1.62-1.27,2.82,0,1.05.39,1.89,1.16,2.52.78.63,2.08,1.26,3.91,1.91,2.53.87,4.34,1.87,5.43,2.99,1.09,1.12,1.64,2.64,1.64,4.55,0,2.05-.74,3.76-2.22,5.12-1.48,1.36-3.56,2.04-6.25,2.04-1.48,0-2.86-.19-4.15-.57-1.28-.38-2.53-.98-3.74-1.79Z"/>
      <path class="cls-2" d="m206.48,391.92l1.53-2.42c1.03.7,2.06,1.2,3.08,1.51,1.02.31,2.18.47,3.49.47,1.49,0,2.72-.35,3.67-1.04.95-.69,1.43-1.7,1.43-3.02,0-1.18-.4-2.13-1.2-2.83-.8-.71-2.12-1.38-3.96-2.03-2.39-.82-4.15-1.77-5.28-2.84-1.14-1.07-1.7-2.49-1.7-4.27,0-2.04.74-3.7,2.22-4.99s3.44-1.93,5.88-1.93c1.14,0,2.25.13,3.34.39s2.19.67,3.3,1.23l-1.29,2.52c-.92-.46-1.82-.8-2.71-1.03-.89-.22-1.84-.33-2.85-.33-1.46,0-2.61.34-3.46,1.02-.85.68-1.27,1.62-1.27,2.82,0,1.05.39,1.89,1.16,2.52.78.63,2.08,1.26,3.91,1.91,2.53.87,4.34,1.87,5.43,2.99,1.09,1.12,1.64,2.64,1.64,4.55,0,2.05-.74,3.76-2.22,5.12-1.48,1.36-3.56,2.04-6.25,2.04-1.48,0-2.86-.19-4.15-.57-1.28-.38-2.53-.98-3.74-1.79Z"/>
      <path class="cls-2" d="m240.39,394.28c-3.53,0-6.37-1.16-8.51-3.49-2.14-2.33-3.21-5.36-3.21-9.09,0-4,1.09-7.19,3.27-9.58,2.18-2.39,5.13-3.59,8.86-3.59,3.45,0,6.24,1.16,8.35,3.48s3.17,5.35,3.17,9.11c0,4.06-1.09,7.26-3.26,9.63-2.17,2.36-5.07,3.54-8.68,3.54Zm.02-2.83c2.66,0,4.76-.87,6.29-2.62,1.53-1.74,2.29-4.19,2.29-7.34s-.74-5.71-2.23-7.47c-1.49-1.76-3.54-2.64-6.16-2.64s-4.62.92-6.2,2.77c-1.59,1.85-2.38,4.28-2.38,7.29s.77,5.43,2.32,7.26c1.55,1.83,3.57,2.75,6.07,2.75Z"/>
      <path class="cls-2" d="m277.7,393.86h-3.75l-4.19-6.99c-.76-1.29-1.43-2.12-2-2.52-.57-.39-1.25-.59-2.05-.59h-2.75v10.1h-3.16v-24.92h7.56c2.25,0,4.1.57,5.55,1.72,1.45,1.15,2.18,2.84,2.18,5.09,0,1.75-.46,3.22-1.38,4.41-.92,1.19-2.19,2.06-3.8,2.61v.07c.54.3,1.03.65,1.44,1.06.42.41.85.97,1.29,1.7l5.06,8.25Zm-14.74-22.12v9.23h3.82c1.42,0,2.61-.46,3.55-1.37s1.42-2.1,1.42-3.56c0-1.31-.42-2.35-1.26-3.13-.84-.78-2.06-1.16-3.66-1.16h-3.88Z"/>
      <path class="cls-2" d="m287.05,393.86h-3.16v-24.92h3.16v24.92Z"/>
      <path class="cls-2" d="m293.33,393.86l9.51-24.92h3.37l9.52,24.92h-3.51l-2.43-6.53h-10.64l-2.31,6.53h-3.51Zm6.81-9.31h8.65l-3.91-10.72c-.08-.18-.15-.42-.21-.7-.06-.28-.12-.61-.19-.99h-.07c-.06.35-.12.66-.18.94s-.14.52-.22.73l-3.88,10.74Z"/>
      <path class="cls-2" d="m347.43,393.86h-13.36v-24.92h12.81v2.82h-9.65v8.03h8.93v2.82h-8.93v8.45h10.2v2.82Z"/>
      <path class="cls-2" d="m370.04,393.86h-3.16v-24.92h3.16v24.92Z"/>
      <path class="cls-2" d="m399.48,393.86h-3.77l-12.58-19.46c-.17-.28-.33-.55-.48-.82s-.27-.53-.37-.8h-.1c.05.28.08.71.1,1.29.02.58.04,1.31.04,2.19v17.6h-3.13v-24.92h4l12.23,19.13c.25.41.47.75.64,1.03s.3.51.38.67h.07c-.06-.35-.1-.83-.13-1.43s-.04-1.34-.04-2.2v-17.2h3.15v24.92Z"/>
      <path class="cls-2" d="m427.34,368.94l-9.18,24.92h-3.51l-8.99-24.92h3.51l6.74,19.53c.12.32.21.67.29,1.05.08.38.15.77.21,1.19h.07c.05-.36.12-.73.22-1.11.1-.38.22-.77.36-1.16l6.86-19.5h3.41Z"/>
      <path class="cls-2" d="m446.89,393.86h-13.36v-24.92h12.81v2.82h-9.64v8.03h8.93v2.82h-8.93v8.45h10.2v2.82Z"/>
      <path class="cls-2" d="m452.25,391.92l1.53-2.42c1.03.7,2.06,1.2,3.08,1.51,1.02.31,2.18.47,3.49.47,1.5,0,2.72-.35,3.67-1.04.95-.69,1.42-1.7,1.42-3.02,0-1.18-.4-2.13-1.2-2.83-.8-.71-2.12-1.38-3.96-2.03-2.39-.82-4.15-1.77-5.28-2.84-1.13-1.07-1.7-2.49-1.7-4.27,0-2.04.74-3.7,2.21-4.99,1.48-1.29,3.44-1.93,5.88-1.93,1.14,0,2.25.13,3.34.39,1.09.26,2.19.67,3.3,1.23l-1.29,2.52c-.92-.46-1.82-.8-2.71-1.03-.89-.22-1.84-.33-2.85-.33-1.46,0-2.61.34-3.46,1.02s-1.27,1.62-1.27,2.82c0,1.05.39,1.89,1.17,2.52.78.63,2.08,1.26,3.91,1.91,2.53.87,4.34,1.87,5.43,2.99,1.09,1.12,1.64,2.64,1.64,4.55,0,2.05-.74,3.76-2.22,5.12-1.48,1.36-3.56,2.04-6.25,2.04-1.48,0-2.87-.19-4.14-.57-1.28-.38-2.53-.98-3.75-1.79Z"/>
      <path class="cls-2" d="m491.04,371.76h-7.19v22.1h-3.16v-22.1h-7.18v-2.82h17.53v2.82Z"/>
      <path class="cls-2" d="m500.76,393.86h-3.16v-24.92h3.16v24.92Z"/>
      <path class="cls-2" d="m535.58,393.86h-3.15v-16.54c0-.67.02-1.42.06-2.24.04-.82.1-1.71.18-2.66h-.09c-.14.58-.27,1.08-.39,1.49-.12.42-.24.75-.36,1.01l-8.27,18.94h-1.72l-8.25-18.8c-.12-.28-.24-.64-.36-1.08-.13-.44-.26-.96-.38-1.56h-.09c.06.57.1,1.27.12,2.1.02.83.03,1.81.03,2.92v16.42h-3.02v-24.92h4.26l7.4,17.13c.3.65.54,1.22.73,1.73.18.5.32.94.4,1.29h.1c.24-.68.46-1.28.66-1.8.2-.51.37-.95.52-1.29l7.54-17.07h4.07v24.92Z"/>
      <path class="cls-2" d="m558.07,393.86h-13.36v-24.92h12.81v2.82h-9.64v8.03h8.93v2.82h-8.93v8.45h10.2v2.82Z"/>
      <path class="cls-2" d="m585.76,393.86h-3.77l-12.58-19.46c-.17-.28-.33-.55-.48-.82s-.27-.53-.37-.8h-.1c.05.28.08.71.1,1.29.02.58.04,1.31.04,2.19v17.6h-3.13v-24.92h4l12.23,19.13c.25.41.47.75.64,1.03s.3.51.38.67h.07c-.06-.35-.1-.83-.13-1.43s-.04-1.34-.04-2.2v-17.2h3.15v24.92Z"/>
      <path class="cls-2" d="m609.85,371.76h-7.19v22.1h-3.16v-22.1h-7.18v-2.82h17.53v2.82Z"/>
      <path class="cls-2" d="m624.83,394.28c-3.53,0-6.37-1.16-8.51-3.49-2.14-2.33-3.21-5.36-3.21-9.09,0-4,1.09-7.19,3.27-9.58,2.18-2.39,5.13-3.59,8.86-3.59,3.45,0,6.24,1.16,8.35,3.48s3.17,5.35,3.17,9.11c0,4.06-1.09,7.26-3.26,9.63-2.17,2.36-5.07,3.54-8.68,3.54Zm.02-2.83c2.66,0,4.76-.87,6.29-2.62,1.53-1.74,2.29-4.19,2.29-7.34s-.75-5.71-2.23-7.47c-1.49-1.76-3.54-2.64-6.16-2.64s-4.62.92-6.2,2.77c-1.59,1.85-2.38,4.28-2.38,7.29s.77,5.43,2.32,7.26c1.55,1.83,3.57,2.75,6.07,2.75Z"/>
      <path class="cls-2" d="m642.21,391.92l1.53-2.42c1.03.7,2.06,1.2,3.08,1.51,1.02.31,2.18.47,3.49.47,1.5,0,2.72-.35,3.67-1.04.95-.69,1.42-1.7,1.42-3.02,0-1.18-.4-2.13-1.2-2.83-.8-.71-2.12-1.38-3.96-2.03-2.39-.82-4.15-1.77-5.28-2.84-1.13-1.07-1.7-2.49-1.7-4.27,0-2.04.74-3.7,2.21-4.99,1.48-1.29,3.44-1.93,5.88-1.93,1.14,0,2.25.13,3.34.39,1.09.26,2.19.67,3.3,1.23l-1.29,2.52c-.92-.46-1.82-.8-2.71-1.03-.89-.22-1.84-.33-2.85-.33-1.46,0-2.61.34-3.46,1.02s-1.27,1.62-1.27,2.82c0,1.05.39,1.89,1.17,2.52.78.63,2.08,1.26,3.91,1.91,2.53.87,4.34,1.87,5.43,2.99,1.09,1.12,1.64,2.64,1.64,4.55,0,2.05-.74,3.76-2.22,5.12-1.48,1.36-3.56,2.04-6.25,2.04-1.48,0-2.87-.19-4.14-.57-1.28-.38-2.53-.98-3.75-1.79Z"/>
    </g>
  </g>
</svg>