<svg width="347" height="72" viewBox="0 0 347 72" fill="none" xmlns="http://www.w3.org/2000/svg">
<g clip-path="url(#clip0_258_43)">
<path d="M100.936 23.0366H106.772L114.565 32.0719C119.715 26.0484 122.302 23.0366 122.325 23.0366H128.178C128.223 23.0479 128.246 23.0763 128.246 23.1217V41.2093C128.246 41.266 128.223 41.2944 128.178 41.2944H122.495C122.438 41.2944 122.41 41.266 122.41 41.2093V30.4384L114.616 39.4907H114.531C114.486 39.4794 111.871 36.4619 106.687 30.4384V41.2093C106.687 41.266 106.659 41.2944 106.602 41.2944H100.936C100.879 41.2944 100.851 41.266 100.851 41.2093V23.1217C100.862 23.065 100.89 23.0366 100.936 23.0366ZM130.033 23.0366H154.943C155 23.0479 155.029 23.0763 155.029 23.1217V27.2905C155.029 27.3472 155 27.3756 154.943 27.3756H130.033C129.976 27.3756 129.948 27.3472 129.948 27.2905V23.1217C129.959 23.065 129.987 23.0366 130.033 23.0366ZM130.033 30.1832H154.943C155 30.1945 155.029 30.2229 155.029 30.2682V34.0627C155.029 34.1195 155 34.1478 154.943 34.1478H130.033C129.976 34.1478 129.948 34.1195 129.948 34.0627V30.2682C129.959 30.2115 129.987 30.1832 130.033 30.1832ZM130.033 36.9724H154.943C155 36.9724 155.029 36.9951 155.029 37.0405V41.2093C155.029 41.266 155 41.2944 154.943 41.2944H130.033C129.976 41.2944 129.948 41.266 129.948 41.2093V37.0405C129.959 36.9951 129.987 36.9724 130.033 36.9724ZM156.815 23.0366H181.726C181.783 23.0479 181.811 23.0763 181.811 23.1217V27.2905C181.811 27.3472 181.783 27.3756 181.726 27.3756H172.214V41.2093C172.214 41.266 172.186 41.2944 172.129 41.2944H166.446C166.389 41.2944 166.361 41.266 166.361 41.2093V27.3756H156.815C156.758 27.3756 156.73 27.3472 156.73 27.2905V23.1217C156.741 23.065 156.77 23.0366 156.815 23.0366ZM194.25 23.0366H200.052C200.165 23.1387 201.362 25.1295 203.642 29.0091C208.248 36.8249 210.647 40.9087 210.84 41.2603V41.2944H204.136C203.977 41.1356 201.907 37.653 197.925 30.8468C197.437 30.03 197.182 29.6217 197.159 29.6217C192.678 37.2333 190.376 41.1242 190.251 41.2944H183.513V41.2093C190.41 29.4912 193.989 23.4336 194.25 23.0366ZM212.541 23.0366H219.246C219.45 23.2635 220.198 24.517 221.492 26.7971C221.594 26.9218 223.159 29.5649 226.188 34.7263H226.222C230.748 27.0353 233.051 23.1387 233.13 23.0366H239.869C239.869 23.15 238.15 26.0767 234.713 31.8167C232.036 36.3995 230.17 39.5588 229.115 41.2944H223.278C222.995 40.886 219.472 34.9078 212.712 23.3599C212.666 23.3599 212.609 23.2521 212.541 23.0366ZM241.655 23.0366H266.566C266.623 23.0479 266.651 23.0763 266.651 23.1217V27.2905C266.651 27.3472 266.623 27.3756 266.566 27.3756H241.655C241.598 27.3756 241.57 27.3472 241.57 27.2905V23.1217C241.581 23.065 241.61 23.0366 241.655 23.0366ZM241.655 30.1832H266.566C266.623 30.1945 266.651 30.2229 266.651 30.2682V34.0627C266.651 34.1195 266.623 34.1478 266.566 34.1478H241.655C241.598 34.1478 241.57 34.1195 241.57 34.0627V30.2682C241.581 30.2115 241.61 30.1832 241.655 30.1832ZM241.655 36.9724H266.566C266.623 36.9724 266.651 36.9951 266.651 37.0405V41.2093C266.651 41.266 266.623 41.2944 266.566 41.2944H241.655C241.598 41.2944 241.57 41.266 241.57 41.2093V37.0405C241.581 36.9951 241.61 36.9724 241.655 36.9724ZM268.438 23.0366H287.665C289.412 23.0366 290.938 23.7059 292.243 25.0444C293.037 25.9633 293.434 26.9559 293.434 28.0222V31.3232C293.434 33.0361 292.492 34.4541 290.609 35.5771L289.877 35.9004L293.434 41.2603L293.349 41.2944H286.44C286.27 41.1015 285.141 39.4283 283.054 36.2748H274.189V41.2093C274.189 41.266 274.161 41.2944 274.104 41.2944H268.438C268.381 41.2944 268.353 41.266 268.353 41.2093V23.1217C268.364 23.065 268.392 23.0366 268.438 23.0366ZM274.189 27.3756V31.9358H285.266C286.446 31.9358 287.195 31.4196 287.512 30.3874C287.558 30.1491 287.58 29.9166 287.58 29.6897C287.58 28.5894 287.121 27.8577 286.202 27.4947C285.919 27.4153 285.629 27.3756 285.334 27.3756H274.189ZM300.819 23.0366H320.131C320.188 23.0479 320.216 23.0763 320.216 23.1217V27.2905C320.216 27.3472 320.188 27.3756 320.131 27.3756H302.452C301.465 27.5004 300.972 27.9768 300.972 28.8049C300.972 29.3607 301.272 29.7805 301.874 30.0641C302.055 30.1435 302.271 30.1832 302.52 30.1832H314.533C316.223 30.1832 317.721 30.8525 319.025 32.191C319.819 33.1099 320.216 34.0911 320.216 35.1347V36.3939C320.216 38.1748 319.178 39.6155 317.102 40.7158C316.24 41.1015 315.356 41.2944 314.448 41.2944H295.22C295.164 41.2944 295.135 41.266 295.135 41.2093V37.0405C295.147 36.9951 295.175 36.9724 295.22 36.9724H312.815C313.529 36.9724 314.023 36.6548 314.295 36.0195C314.34 35.7473 314.363 35.5885 314.363 35.5431C314.363 34.9759 314.068 34.5505 313.478 34.2669C313.297 34.1875 313.075 34.1478 312.815 34.1478H300.972C299.021 34.1478 297.387 33.3878 296.071 31.8677C295.447 31.0396 295.135 30.1662 295.135 29.2473V27.9882C295.135 26.3206 296.06 24.9424 297.909 23.8534C298.964 23.3656 299.934 23.0933 300.819 23.0366ZM327.55 23.0366H341.112C343.153 23.0366 344.815 23.825 346.097 25.4018C346.698 26.2412 346.999 27.126 346.999 28.0562V36.3088C346.999 38.1578 345.961 39.6155 343.885 40.6818C343.012 41.0902 342.087 41.2944 341.112 41.2944H327.72C325.735 41.2944 324.085 40.489 322.769 38.8782C322.202 38.0728 321.918 37.2333 321.918 36.3598V28.0222C321.918 26.0824 323.064 24.5737 325.355 23.496C326.263 23.1897 326.994 23.0366 327.55 23.0366ZM327.754 30.3533V33.9436C327.754 35.4183 328.52 36.3995 330.051 36.8873C330.267 36.9441 330.494 36.9724 330.732 36.9724H338.219C339.557 36.9724 340.493 36.2634 341.026 34.8455C341.106 34.6413 341.146 34.369 341.146 34.0287V30.5575C341.146 29.0034 340.425 27.9655 338.985 27.4437C338.565 27.3983 338.196 27.3756 337.879 27.3756H330.732C329.359 27.3756 328.407 28.0789 327.873 29.4855C327.794 29.7691 327.754 30.0584 327.754 30.3533Z" fill="black"/>
<path d="M106.772 23.0366L106.796 23.0159L106.787 23.0049H106.772V23.0366ZM114.565 32.0719L114.541 32.0926L114.565 32.1206L114.59 32.0925L114.565 32.0719ZM128.178 23.0366L128.186 23.0049H128.178V23.0366ZM122.41 30.4384H122.441V30.3529L122.386 30.4177L122.41 30.4384ZM114.616 39.4907V39.5225H114.631L114.64 39.5114L114.616 39.4907ZM114.531 39.4907L114.523 39.5225H114.531V39.4907ZM106.687 30.4384L106.711 30.4177L106.655 30.3529V30.4384H106.687ZM100.851 23.1217L100.819 23.1153V23.1217H100.851ZM100.936 23.0683H106.772V23.0049H100.936V23.0683ZM106.748 23.0573L114.541 32.0926L114.589 32.0512L106.796 23.0159L106.748 23.0573ZM114.59 32.0925C117.165 29.0808 119.099 26.822 120.392 25.3161C121.038 24.5632 121.525 23.9985 121.851 23.6221C122.014 23.4339 122.137 23.2928 122.22 23.1988C122.261 23.1517 122.292 23.1166 122.314 23.0933C122.324 23.0816 122.332 23.0731 122.338 23.0675C122.34 23.0647 122.342 23.0631 122.343 23.0622C122.344 23.0617 122.343 23.062 122.343 23.0625C122.342 23.0628 122.341 23.0636 122.339 23.0645C122.339 23.0647 122.333 23.0683 122.325 23.0683V23.0049C122.316 23.0049 122.309 23.0086 122.309 23.0089C122.307 23.01 122.305 23.0112 122.304 23.0118C122.303 23.0131 122.301 23.0144 122.3 23.0154C122.298 23.0175 122.295 23.0202 122.292 23.0233C122.286 23.0296 122.278 23.0387 122.267 23.0505C122.245 23.0743 122.214 23.1097 122.172 23.1568C122.089 23.251 121.966 23.3923 121.803 23.5805C121.477 23.9571 120.99 24.5218 120.344 25.2748C119.05 26.7807 117.116 29.0395 114.541 32.0513L114.59 32.0925ZM122.325 23.0683H128.178V23.0049H122.325V23.0683ZM128.17 23.0674C128.188 23.0719 128.198 23.0788 128.204 23.0862C128.21 23.0935 128.214 23.1044 128.214 23.1217H128.278C128.278 23.0936 128.271 23.0676 128.254 23.0466C128.237 23.0256 128.213 23.0127 128.186 23.0058L128.17 23.0674ZM128.214 23.1217V41.2093H128.278V23.1217H128.214ZM128.214 41.2093C128.214 41.2343 128.209 41.2471 128.204 41.2533C128.2 41.2581 128.194 41.2626 128.178 41.2626V41.3261C128.208 41.3261 128.235 41.3165 128.254 41.2929C128.271 41.2707 128.278 41.2411 128.278 41.2093H128.214ZM128.178 41.2626H122.495V41.3261H128.178V41.2626ZM122.495 41.2626C122.471 41.2626 122.459 41.2568 122.453 41.2507C122.447 41.2445 122.441 41.2328 122.441 41.2093H122.378C122.378 41.2426 122.386 41.2733 122.408 41.2956C122.431 41.3178 122.461 41.3261 122.495 41.3261V41.2626ZM122.441 41.2093V30.4384H122.378V41.2093H122.441ZM122.386 30.4177L114.592 39.47L114.64 39.5114L122.434 30.4591L122.386 30.4177ZM114.616 39.459H114.531V39.5225H114.616V39.459ZM114.539 39.4599C114.542 39.4608 114.545 39.462 114.546 39.4624C114.547 39.463 114.547 39.4635 114.548 39.4637C114.548 39.4641 114.548 39.4642 114.548 39.4637C114.547 39.4627 114.545 39.461 114.542 39.458C114.536 39.4523 114.527 39.4435 114.516 39.4315C114.493 39.4076 114.46 39.3719 114.417 39.3243C114.332 39.2291 114.206 39.0869 114.039 38.8976C113.707 38.5191 113.214 37.9527 112.56 37.1984C111.253 35.6897 109.303 33.4295 106.711 30.4177L106.663 30.4591C109.255 33.4709 111.205 35.7312 112.512 37.2399C113.166 37.9943 113.659 38.5608 113.992 38.9395C114.158 39.1288 114.284 39.2713 114.37 39.3668C114.413 39.4145 114.447 39.4507 114.47 39.4752C114.481 39.4874 114.491 39.497 114.498 39.5037C114.501 39.507 114.504 39.51 114.507 39.5123C114.508 39.5135 114.51 39.5148 114.512 39.5161C114.513 39.5168 114.517 39.5199 114.524 39.5215L114.539 39.4599ZM106.655 30.4384V41.2093H106.719V30.4384H106.655ZM106.655 41.2093C106.655 41.2328 106.65 41.2445 106.643 41.2507C106.637 41.2568 106.626 41.2626 106.602 41.2626V41.3261C106.635 41.3261 106.666 41.3178 106.688 41.2956C106.711 41.2733 106.719 41.2426 106.719 41.2093H106.655ZM106.602 41.2626H100.936V41.3261H106.602V41.2626ZM100.936 41.2626C100.912 41.2626 100.901 41.2568 100.894 41.2507C100.888 41.2445 100.883 41.2328 100.883 41.2093H100.819C100.819 41.2426 100.827 41.2733 100.85 41.2956C100.872 41.3178 100.903 41.3261 100.936 41.3261V41.2626ZM100.883 41.2093V23.1217H100.819V41.2093H100.883ZM100.882 23.1279C100.887 23.1031 100.895 23.0885 100.903 23.0803C100.91 23.0729 100.92 23.0683 100.936 23.0683V23.0049C100.906 23.0049 100.879 23.0145 100.858 23.0354C100.838 23.0556 100.826 23.0835 100.82 23.1155L100.882 23.1279ZM154.943 23.0366L154.95 23.0049H154.943V23.0366ZM129.948 23.1217L129.916 23.1153V23.1217H129.948ZM154.943 30.1832L154.95 30.1514H154.943V30.1832ZM129.948 30.2682L129.916 30.2619V30.2682H129.948ZM129.948 37.0405L129.916 37.0325V37.0405H129.948ZM130.033 23.0683H154.943V23.0049H130.033V23.0683ZM154.937 23.0677C154.962 23.0727 154.977 23.0806 154.985 23.0888C154.992 23.0962 154.997 23.1062 154.997 23.1217H155.06C155.06 23.0918 155.051 23.0649 155.03 23.0439C155.01 23.0238 154.982 23.0119 154.95 23.0055L154.937 23.0677ZM154.997 23.1217V27.2905H155.06V23.1217H154.997ZM154.997 27.2905C154.997 27.314 154.991 27.3258 154.985 27.3319C154.979 27.338 154.967 27.3439 154.943 27.3439V27.4073C154.977 27.4073 155.008 27.399 155.03 27.3768C155.052 27.3545 155.06 27.3238 155.06 27.2905H154.997ZM154.943 27.3439H130.033V27.4073H154.943V27.3439ZM130.033 27.3439C130.009 27.3439 129.997 27.338 129.991 27.3319C129.985 27.3258 129.979 27.314 129.979 27.2905H129.916C129.916 27.3238 129.924 27.3545 129.946 27.3768C129.969 27.399 129.999 27.4073 130.033 27.4073V27.3439ZM129.979 27.2905V23.1217H129.916V27.2905H129.979ZM129.979 23.1279C129.984 23.1031 129.992 23.0885 130 23.0803C130.007 23.0729 130.017 23.0683 130.033 23.0683V23.0049C130.003 23.0049 129.976 23.0145 129.955 23.0354C129.935 23.0556 129.923 23.0835 129.916 23.1155L129.979 23.1279ZM130.033 30.2149H154.943V30.1514H130.033V30.2149ZM154.937 30.2143C154.962 30.2193 154.977 30.2272 154.985 30.2354C154.992 30.2428 154.997 30.2528 154.997 30.2682H155.06C155.06 30.2383 155.051 30.2114 155.03 30.1905C155.01 30.1703 154.982 30.1584 154.95 30.1521L154.937 30.2143ZM154.997 30.2682V34.0627H155.06V30.2682H154.997ZM154.997 34.0627C154.997 34.0862 154.991 34.098 154.985 34.1041C154.979 34.1102 154.967 34.1161 154.943 34.1161V34.1796C154.977 34.1796 155.008 34.1712 155.03 34.149C155.052 34.1268 155.06 34.096 155.06 34.0627H154.997ZM154.943 34.1161H130.033V34.1796H154.943V34.1161ZM130.033 34.1161C130.009 34.1161 129.997 34.1102 129.991 34.1041C129.985 34.098 129.979 34.0862 129.979 34.0627H129.916C129.916 34.096 129.924 34.1268 129.946 34.149C129.969 34.1712 129.999 34.1796 130.033 34.1796V34.1161ZM129.979 34.0627V30.2682H129.916V34.0627H129.979ZM129.979 30.2745C129.984 30.2497 129.992 30.2351 130 30.2269C130.007 30.2195 130.017 30.2149 130.033 30.2149V30.1514C130.003 30.1514 129.976 30.1611 129.955 30.182C129.935 30.2022 129.923 30.2301 129.916 30.262L129.979 30.2745ZM130.033 37.0041H154.943V36.9407H130.033V37.0041ZM154.943 37.0041C154.968 37.0041 154.981 37.0093 154.987 37.0142C154.992 37.0181 154.997 37.0248 154.997 37.0405H155.06C155.06 37.0108 155.051 36.9835 155.027 36.9646C155.005 36.9469 154.975 36.9407 154.943 36.9407V37.0041ZM154.997 37.0405V41.2093H155.06V37.0405H154.997ZM154.997 41.2093C154.997 41.2328 154.991 41.2445 154.985 41.2507C154.979 41.2568 154.967 41.2626 154.943 41.2626V41.3261C154.977 41.3261 155.008 41.3178 155.03 41.2956C155.052 41.2733 155.06 41.2426 155.06 41.2093H154.997ZM154.943 41.2626H130.033V41.3261H154.943V41.2626ZM130.033 41.2626C130.009 41.2626 129.997 41.2568 129.991 41.2507C129.985 41.2445 129.979 41.2328 129.979 41.2093H129.916C129.916 41.2426 129.924 41.2733 129.946 41.2956C129.969 41.3178 129.999 41.3261 130.033 41.3261V41.2626ZM129.979 41.2093V37.0405H129.916V41.2093H129.979ZM129.978 37.0482C129.983 37.0303 129.99 37.0201 129.997 37.0142C130.004 37.0084 130.015 37.0041 130.033 37.0041V36.9407C130.005 36.9407 129.979 36.9478 129.957 36.9646C129.936 36.9814 129.924 37.0053 129.917 37.0328L129.978 37.0482ZM181.726 23.0366L181.732 23.0049H181.726V23.0366ZM172.214 27.3756V27.3439H172.183V27.3756H172.214ZM166.361 27.3756H166.393V27.3439H166.361V27.3756ZM156.73 23.1217L156.698 23.1153V23.1217H156.73ZM156.815 23.0683H181.726V23.0049H156.815V23.0683ZM181.72 23.0677C181.745 23.0727 181.759 23.0806 181.767 23.0888C181.775 23.0962 181.779 23.1062 181.779 23.1217H181.843C181.843 23.0918 181.833 23.0649 181.812 23.0439C181.792 23.0238 181.764 23.0119 181.732 23.0055L181.72 23.0677ZM181.779 23.1217V27.2905H181.843V23.1217H181.779ZM181.779 27.2905C181.779 27.314 181.774 27.3258 181.767 27.3319C181.761 27.338 181.75 27.3439 181.726 27.3439V27.4073C181.759 27.4073 181.79 27.399 181.812 27.3768C181.835 27.3545 181.843 27.3238 181.843 27.2905H181.779ZM181.726 27.3439H172.214V27.4073H181.726V27.3439ZM172.183 27.3756V41.2093H172.246V27.3756H172.183ZM172.183 41.2093C172.183 41.2328 172.177 41.2445 172.171 41.2507C172.165 41.2568 172.153 41.2626 172.129 41.2626V41.3261C172.163 41.3261 172.193 41.3178 172.216 41.2956C172.238 41.2733 172.246 41.2426 172.246 41.2093H172.183ZM172.129 41.2626H166.446V41.3261H172.129V41.2626ZM166.446 41.2626C166.423 41.2626 166.411 41.2568 166.405 41.2507C166.399 41.2445 166.393 41.2328 166.393 41.2093H166.329C166.329 41.2426 166.338 41.2733 166.36 41.2956C166.382 41.3178 166.413 41.3261 166.446 41.3261V41.2626ZM166.393 41.2093V27.3756H166.329V41.2093H166.393ZM166.361 27.3439H156.815V27.4073H166.361V27.3439ZM156.815 27.3439C156.792 27.3439 156.78 27.338 156.774 27.3319C156.768 27.3258 156.762 27.314 156.762 27.2905H156.698C156.698 27.3238 156.707 27.3545 156.729 27.3768C156.751 27.399 156.782 27.4073 156.815 27.4073V27.3439ZM156.762 27.2905V23.1217H156.698V27.2905H156.762ZM156.761 23.1279C156.766 23.1031 156.774 23.0885 156.782 23.0803C156.79 23.0729 156.8 23.0683 156.815 23.0683V23.0049C156.785 23.0049 156.758 23.0145 156.737 23.0354C156.717 23.0556 156.705 23.0835 156.699 23.1155L156.761 23.1279ZM194.25 23.0366V23.0049H194.232L194.223 23.0192L194.25 23.0366ZM200.052 23.0366L200.073 23.013L200.064 23.0049H200.052V23.0366ZM203.642 29.0091L203.615 29.0252L203.615 29.0252L203.642 29.0091ZM210.84 41.2603H210.872V41.2522L210.868 41.2451L210.84 41.2603ZM210.84 41.2944V41.3261H210.872V41.2944H210.84ZM204.136 41.2944L204.113 41.3168L204.123 41.3261H204.136V41.2944ZM197.925 30.8468L197.952 30.8308L197.952 30.8305L197.925 30.8468ZM197.159 29.6217V29.5899H197.141L197.132 29.6056L197.159 29.6217ZM190.251 41.2944V41.3261H190.267L190.277 41.3131L190.251 41.2944ZM183.513 41.2944H183.481V41.3261H183.513V41.2944ZM183.513 41.2093L183.485 41.1932L183.481 41.2007V41.2093H183.513ZM194.25 23.0683H200.052V23.0049H194.25V23.0683ZM200.031 23.0602C200.035 23.0641 200.045 23.0753 200.06 23.0967C200.075 23.1173 200.095 23.1454 200.119 23.1811C200.167 23.2525 200.231 23.3534 200.313 23.4842C200.477 23.7455 200.708 24.125 201.007 24.6226C201.606 25.6179 202.475 27.0854 203.615 29.0252L203.67 28.993C202.53 27.0532 201.66 25.5855 201.062 24.5899C200.763 24.0922 200.531 23.7123 200.367 23.4505C200.285 23.3196 200.22 23.218 200.172 23.1458C200.147 23.1097 200.127 23.0808 200.111 23.0591C200.096 23.0382 200.083 23.0219 200.073 23.013L200.031 23.0602ZM203.615 29.0252C208.221 36.8415 210.619 40.9245 210.812 41.2756L210.868 41.2451C210.675 40.8929 208.275 36.8084 203.67 28.993L203.615 29.0252ZM210.808 41.2603V41.2944H210.872V41.2603H210.808ZM210.84 41.2626H204.136V41.3261H210.84V41.2626ZM204.158 41.2719C204.151 41.2644 204.135 41.2439 204.11 41.2076C204.085 41.1721 204.053 41.1236 204.013 41.0619C203.934 40.9384 203.825 40.763 203.685 40.5355C203.407 40.0805 203.009 39.4178 202.491 38.5472C201.456 36.806 199.943 34.2339 197.952 30.8308L197.898 30.8628C199.888 34.2659 201.401 36.8382 202.437 38.5796C202.954 39.4503 203.352 40.1133 203.631 40.5686C203.77 40.7963 203.88 40.9722 203.96 41.0962C204 41.1582 204.032 41.2074 204.057 41.2437C204.082 41.2792 204.101 41.3045 204.113 41.3168L204.158 41.2719ZM197.952 30.8305C197.708 30.4221 197.522 30.1156 197.395 29.9111C197.331 29.8089 197.281 29.7319 197.246 29.6804C197.229 29.6547 197.214 29.6348 197.204 29.6211C197.198 29.6144 197.193 29.6084 197.189 29.6038C197.186 29.6016 197.183 29.599 197.18 29.5967C197.178 29.5952 197.17 29.5899 197.159 29.5899V29.6534C197.154 29.6534 197.15 29.652 197.148 29.6512C197.146 29.6503 197.145 29.6494 197.144 29.649C197.143 29.6483 197.143 29.6481 197.144 29.649C197.146 29.6509 197.149 29.6545 197.154 29.6605C197.163 29.6723 197.176 29.6907 197.194 29.7161C197.228 29.7666 197.277 29.8428 197.341 29.9448C197.468 30.1487 197.654 30.4547 197.898 30.8631L197.952 30.8305ZM197.132 29.6056C194.892 33.4114 193.196 36.287 192.044 38.2324C191.469 39.2051 191.029 39.9453 190.726 40.4528C190.422 40.9616 190.255 41.2347 190.225 41.2756L190.277 41.3131C190.309 41.269 190.477 40.9919 190.78 40.4854C191.084 39.9777 191.523 39.2375 192.099 38.2647C193.25 36.3193 194.946 33.4436 197.187 29.6378L197.132 29.6056ZM190.251 41.2626H183.513V41.3261H190.251V41.2626ZM183.544 41.2944V41.2093H183.481V41.2944H183.544ZM183.54 41.2254C190.438 29.5065 194.016 23.4502 194.276 23.054L194.223 23.0192C193.962 23.4171 190.382 29.4759 183.485 41.1932L183.54 41.2254ZM212.541 23.0366V23.0049H212.498L212.511 23.0462L212.541 23.0366ZM219.246 23.0366L219.269 23.0154L219.26 23.0049H219.246V23.0366ZM221.492 26.7971L221.464 26.8129L221.467 26.8172L221.492 26.7971ZM226.188 34.7263L226.161 34.7424L226.17 34.7581H226.188V34.7263ZM226.222 34.7263V34.7581H226.24L226.249 34.7424L226.222 34.7263ZM233.13 23.0366V23.0049H233.115L233.105 23.0171L233.13 23.0366ZM239.869 23.0366H239.9V23.0049H239.869V23.0366ZM234.713 31.8167L234.686 31.8004L234.685 31.8007L234.713 31.8167ZM229.115 41.2944V41.3261H229.132L229.142 41.3109L229.115 41.2944ZM223.278 41.2944L223.252 41.3125L223.262 41.3261H223.278V41.2944ZM212.712 23.3599L212.739 23.3439L212.73 23.3282H212.712V23.3599ZM212.541 23.0683H219.246V23.0049H212.541V23.0683ZM219.222 23.0578C219.271 23.1124 219.355 23.2311 219.474 23.4164C219.593 23.601 219.746 23.8499 219.933 24.1631C220.307 24.7896 220.817 25.6727 221.464 26.8127L221.519 26.7814C220.873 25.6413 220.362 24.7576 219.987 24.1306C219.8 23.8171 219.647 23.5675 219.527 23.3821C219.409 23.1973 219.322 23.0743 219.269 23.0154L219.222 23.0578ZM221.467 26.8172C221.478 26.8307 221.512 26.8833 221.572 26.9786C221.63 27.0727 221.711 27.2063 221.815 27.3792C222.024 27.7251 222.324 28.2284 222.715 28.8891C223.498 30.2106 224.646 32.1617 226.161 34.7424L226.215 34.7103C224.701 32.1296 223.552 30.1784 222.77 28.8568C222.378 28.196 222.078 27.6925 221.87 27.3465C221.766 27.1734 221.684 27.0396 221.625 26.9452C221.568 26.8519 221.531 26.7946 221.516 26.777L221.467 26.8172ZM226.188 34.7581H226.222V34.6946H226.188V34.7581ZM226.249 34.7424C228.512 30.8969 230.22 28 231.371 26.0518C231.947 25.0776 232.383 24.3407 232.681 23.8409C232.83 23.591 232.944 23.4004 233.023 23.2692C233.063 23.2035 233.094 23.1528 233.116 23.1169C233.139 23.0801 233.152 23.0608 233.155 23.0561L233.105 23.0171C233.099 23.0252 233.084 23.0483 233.062 23.0835C233.04 23.1197 233.009 23.1706 232.969 23.2363C232.89 23.3678 232.776 23.5585 232.627 23.8084C232.329 24.3083 231.892 25.0453 231.316 26.0195C230.165 27.9678 228.458 30.8647 226.195 34.7102L226.249 34.7424ZM233.13 23.0683H239.869V23.0049H233.13V23.0683ZM239.837 23.0366C239.837 23.0342 239.837 23.0335 239.837 23.0358C239.836 23.0376 239.835 23.0405 239.834 23.0444C239.831 23.0524 239.826 23.0633 239.82 23.0775C239.806 23.1059 239.787 23.1454 239.76 23.1962C239.706 23.2979 239.626 23.4436 239.519 23.6335C239.304 24.0133 238.982 24.569 238.552 25.3006C237.693 26.7639 236.404 28.9304 234.686 31.8004L234.74 31.833C236.459 28.963 237.748 26.7962 238.607 25.3328C239.037 24.6011 239.359 24.045 239.574 23.6648C239.681 23.4747 239.762 23.3283 239.816 23.2258C239.843 23.1746 239.863 23.134 239.877 23.1041C239.884 23.0893 239.889 23.0767 239.893 23.0665C239.895 23.0615 239.897 23.0566 239.898 23.0522C239.899 23.0482 239.9 23.0425 239.9 23.0366H239.837ZM234.685 31.8007C232.008 36.3836 230.142 39.5426 229.088 41.2779L229.142 41.3109C230.197 39.575 232.063 36.4155 234.74 31.8327L234.685 31.8007ZM229.115 41.2626H223.278V41.3261H229.115V41.2626ZM223.304 41.2763C223.163 41.0734 222.213 39.4785 220.451 36.4884C218.69 33.4993 216.119 29.1178 212.739 23.3439L212.684 23.3759C216.065 29.1499 218.635 33.5315 220.397 36.5206C222.157 39.5087 223.11 41.107 223.252 41.3125L223.304 41.2763ZM212.712 23.3282C212.713 23.3282 212.709 23.3289 212.698 23.3179C212.689 23.3074 212.677 23.2901 212.663 23.2643C212.636 23.2129 212.606 23.1343 212.572 23.027L212.511 23.0462C212.545 23.1545 212.577 23.2374 212.607 23.2939C212.622 23.322 212.637 23.345 212.652 23.3615C212.667 23.3775 212.687 23.3916 212.712 23.3916V23.3282ZM266.566 23.0366L266.572 23.0049H266.566V23.0366ZM241.57 23.1217L241.538 23.1153V23.1217H241.57ZM266.566 30.1832L266.572 30.1514H266.566V30.1832ZM241.57 30.2682L241.538 30.2619V30.2682H241.57ZM241.57 37.0405L241.538 37.0325V37.0405H241.57ZM241.655 23.0683H266.566V23.0049H241.655V23.0683ZM266.56 23.0677C266.585 23.0727 266.599 23.0806 266.607 23.0888C266.615 23.0962 266.619 23.1062 266.619 23.1217H266.683C266.683 23.0918 266.673 23.0649 266.652 23.0439C266.632 23.0238 266.604 23.0119 266.572 23.0055L266.56 23.0677ZM266.619 23.1217V27.2905H266.683V23.1217H266.619ZM266.619 27.2905C266.619 27.314 266.614 27.3258 266.607 27.3319C266.601 27.338 266.59 27.3439 266.566 27.3439V27.4073C266.599 27.4073 266.63 27.399 266.652 27.3768C266.675 27.3545 266.683 27.3238 266.683 27.2905H266.619ZM266.566 27.3439H241.655V27.4073H266.566V27.3439ZM241.655 27.3439C241.632 27.3439 241.62 27.338 241.614 27.3319C241.608 27.3258 241.602 27.314 241.602 27.2905H241.538C241.538 27.3238 241.547 27.3545 241.569 27.3768C241.591 27.399 241.622 27.4073 241.655 27.4073V27.3439ZM241.602 27.2905V23.1217H241.538V27.2905H241.602ZM241.601 23.1279C241.606 23.1031 241.614 23.0885 241.622 23.0803C241.63 23.0729 241.64 23.0683 241.655 23.0683V23.0049C241.625 23.0049 241.598 23.0145 241.577 23.0354C241.557 23.0556 241.545 23.0835 241.539 23.1155L241.601 23.1279ZM241.655 30.2149H266.566V30.1514H241.655V30.2149ZM266.56 30.2143C266.585 30.2193 266.599 30.2272 266.607 30.2354C266.615 30.2428 266.619 30.2528 266.619 30.2682H266.683C266.683 30.2383 266.673 30.2114 266.652 30.1905C266.632 30.1703 266.604 30.1584 266.572 30.1521L266.56 30.2143ZM266.619 30.2682V34.0627H266.683V30.2682H266.619ZM266.619 34.0627C266.619 34.0862 266.614 34.098 266.607 34.1041C266.601 34.1102 266.59 34.1161 266.566 34.1161V34.1796C266.599 34.1796 266.63 34.1712 266.652 34.149C266.675 34.1268 266.683 34.096 266.683 34.0627H266.619ZM266.566 34.1161H241.655V34.1796H266.566V34.1161ZM241.655 34.1161C241.632 34.1161 241.62 34.1102 241.614 34.1041C241.608 34.098 241.602 34.0862 241.602 34.0627H241.538C241.538 34.096 241.547 34.1268 241.569 34.149C241.591 34.1712 241.622 34.1796 241.655 34.1796V34.1161ZM241.602 34.0627V30.2682H241.538V34.0627H241.602ZM241.601 30.2745C241.606 30.2497 241.614 30.2351 241.622 30.2269C241.63 30.2195 241.64 30.2149 241.655 30.2149V30.1514C241.625 30.1514 241.598 30.1611 241.577 30.182C241.557 30.2022 241.545 30.2301 241.539 30.262L241.601 30.2745ZM241.655 37.0041H266.566V36.9407H241.655V37.0041ZM266.566 37.0041C266.591 37.0041 266.604 37.0093 266.61 37.0142C266.615 37.0181 266.619 37.0248 266.619 37.0405H266.683C266.683 37.0108 266.673 36.9835 266.65 36.9646C266.628 36.9469 266.598 36.9407 266.566 36.9407V37.0041ZM266.619 37.0405V41.2093H266.683V37.0405H266.619ZM266.619 41.2093C266.619 41.2328 266.614 41.2445 266.607 41.2507C266.601 41.2568 266.59 41.2626 266.566 41.2626V41.3261C266.599 41.3261 266.63 41.3178 266.652 41.2956C266.675 41.2733 266.683 41.2426 266.683 41.2093H266.619ZM266.566 41.2626H241.655V41.3261H266.566V41.2626ZM241.655 41.2626C241.632 41.2626 241.62 41.2568 241.614 41.2507C241.608 41.2445 241.602 41.2328 241.602 41.2093H241.538C241.538 41.2426 241.547 41.2733 241.569 41.2956C241.591 41.3178 241.622 41.3261 241.655 41.3261V41.2626ZM241.602 41.2093V37.0405H241.538V41.2093H241.602ZM241.601 37.0482C241.605 37.0303 241.612 37.0201 241.62 37.0142C241.627 37.0084 241.638 37.0041 241.655 37.0041V36.9407C241.627 36.9407 241.601 36.9478 241.58 36.9646C241.559 36.9814 241.546 37.0053 241.539 37.0328L241.601 37.0482ZM292.243 25.0444L292.267 25.0237L292.265 25.0223L292.243 25.0444ZM290.609 35.5771L290.622 35.6064L290.625 35.6044L290.609 35.5771ZM289.877 35.9004L289.865 35.8714L289.83 35.8866L289.851 35.918L289.877 35.9004ZM293.434 41.2603L293.446 41.2898L293.482 41.2753L293.46 41.2428L293.434 41.2603ZM293.349 41.2944V41.3286L293.36 41.3238L293.349 41.2944ZM286.44 41.2944L286.417 41.3154L286.426 41.3261H286.44V41.2944ZM283.054 36.2748L283.081 36.2573L283.071 36.243H283.054V36.2748ZM274.189 36.2748V36.243H274.157V36.2748H274.189ZM268.353 23.1217L268.321 23.1153V23.1217H268.353ZM274.189 27.3756V27.3439H274.157V27.3756H274.189ZM274.189 31.9358H274.157V31.9675H274.189V31.9358ZM287.512 30.3874L287.543 30.3967L287.543 30.3933L287.512 30.3874ZM286.202 27.4947L286.214 27.465L286.211 27.4641L286.202 27.4947ZM268.438 23.0683H287.665V23.0049H268.438V23.0683ZM287.665 23.0683C289.403 23.0683 290.921 23.7337 292.22 25.0666L292.265 25.0223C290.955 23.6781 289.422 23.0049 287.665 23.0049V23.0683ZM292.219 25.0652C293.008 25.9791 293.402 26.9645 293.402 28.0222H293.465C293.465 26.9472 293.065 25.9475 292.267 25.0237L292.219 25.0652ZM293.402 28.0222V31.3232H293.465V28.0222H293.402ZM293.402 31.3232C293.402 33.0218 292.469 34.4307 290.593 35.5499L290.625 35.6044C292.515 34.4775 293.465 33.0505 293.465 31.3232H293.402ZM290.596 35.5481L289.865 35.8714L289.89 35.9295L290.622 35.6062L290.596 35.5481ZM289.851 35.918L293.407 41.2779L293.46 41.2428L289.904 35.8829L289.851 35.918ZM293.422 41.2309L293.337 41.2649L293.36 41.3238L293.446 41.2898L293.422 41.2309ZM293.349 41.2626H286.44V41.3261H293.349V41.2626ZM286.464 41.2734C286.423 41.2269 286.322 41.088 286.159 40.8541C285.997 40.621 285.775 40.2954 285.492 39.8771C284.928 39.0406 284.124 37.834 283.081 36.2573L283.028 36.2923C284.071 37.8691 284.875 39.0759 285.44 39.9126C285.722 40.3309 285.944 40.6569 286.107 40.8903C286.269 41.1229 286.372 41.2655 286.417 41.3154L286.464 41.2734ZM283.054 36.243H274.189V36.3065H283.054V36.243ZM274.157 36.2748V41.2093H274.221V36.2748H274.157ZM274.157 41.2093C274.157 41.2328 274.151 41.2445 274.145 41.2507C274.139 41.2568 274.127 41.2626 274.104 41.2626V41.3261C274.137 41.3261 274.168 41.3178 274.19 41.2956C274.212 41.2733 274.221 41.2426 274.221 41.2093H274.157ZM274.104 41.2626H268.438V41.3261H274.104V41.2626ZM268.438 41.2626C268.414 41.2626 268.403 41.2568 268.396 41.2507C268.39 41.2445 268.384 41.2328 268.384 41.2093H268.321C268.321 41.2426 268.329 41.2733 268.352 41.2956C268.374 41.3178 268.405 41.3261 268.438 41.3261V41.2626ZM268.384 41.2093V23.1217H268.321V41.2093H268.384ZM268.384 23.1279C268.389 23.1031 268.397 23.0885 268.405 23.0803C268.412 23.0729 268.422 23.0683 268.438 23.0683V23.0049C268.408 23.0049 268.381 23.0145 268.36 23.0354C268.34 23.0556 268.328 23.0835 268.322 23.1155L268.384 23.1279ZM274.157 27.3756V31.9358H274.221V27.3756H274.157ZM274.189 31.9675H285.266V31.904H274.189V31.9675ZM285.266 31.9675C285.861 31.9675 286.35 31.8375 286.731 31.5748C287.112 31.312 287.382 30.9183 287.543 30.3967L287.482 30.378C287.325 30.8887 287.062 31.2693 286.695 31.5225C286.327 31.776 285.852 31.904 285.266 31.904V31.9675ZM287.543 30.3933C287.589 30.1533 287.612 29.9187 287.612 29.6897H287.549C287.549 29.9145 287.526 30.145 287.481 30.3814L287.543 30.3933ZM287.612 29.6897C287.612 29.1352 287.496 28.6709 287.263 28.2988C287.029 27.9265 286.679 27.6488 286.214 27.4652L286.19 27.5242C286.645 27.7036 286.983 27.9733 287.209 28.3326C287.435 28.6921 287.549 29.1439 287.549 29.6897H287.612ZM286.211 27.4641C285.924 27.384 285.632 27.3439 285.334 27.3439V27.4073C285.626 27.4073 285.913 27.4466 286.194 27.5253L286.211 27.4641ZM285.334 27.3439H274.189V27.4073H285.334V27.3439ZM300.819 23.0366V23.0048L300.817 23.0049L300.819 23.0366ZM320.131 23.0366L320.138 23.0049H320.131V23.0366ZM302.452 27.3756V27.3436L302.448 27.3441L302.452 27.3756ZM301.874 30.0641L301.86 30.0928L301.861 30.0931L301.874 30.0641ZM319.025 32.191L319.049 32.1702L319.048 32.1689L319.025 32.191ZM317.102 40.7158L317.115 40.7449L317.117 40.7439L317.102 40.7158ZM295.135 37.0405L295.104 37.0325V37.0405H295.135ZM314.295 36.0195L314.325 36.0324L314.326 36.0248L314.295 36.0195ZM313.478 34.2669L313.492 34.2383L313.491 34.2378L313.478 34.2669ZM296.071 31.8677L296.046 31.8869L296.047 31.8885L296.071 31.8677ZM297.909 23.8534L297.895 23.8244L297.893 23.826L297.909 23.8534ZM300.819 23.0683H320.131V23.0049H300.819V23.0683ZM320.125 23.0677C320.15 23.0727 320.164 23.0806 320.173 23.0888C320.18 23.0962 320.185 23.1062 320.185 23.1217H320.248C320.248 23.0918 320.238 23.0649 320.218 23.0439C320.197 23.0238 320.169 23.0119 320.138 23.0055L320.125 23.0677ZM320.185 23.1217V27.2905H320.248V23.1217H320.185ZM320.185 27.2905C320.185 27.314 320.179 27.3258 320.173 27.3319C320.167 27.338 320.155 27.3439 320.131 27.3439V27.4073C320.165 27.4073 320.195 27.399 320.218 27.3768C320.24 27.3545 320.248 27.3238 320.248 27.2905H320.185ZM320.131 27.3439H302.452V27.4073H320.131V27.3439ZM302.448 27.3441C301.951 27.407 301.573 27.559 301.32 27.8037C301.066 28.0491 300.94 28.3842 300.94 28.8049H301.003C301.003 28.3976 301.125 28.0804 301.364 27.8493C301.604 27.6176 301.966 27.469 302.456 27.4071L302.448 27.3441ZM300.94 28.8049C300.94 29.0889 301.017 29.3394 301.171 29.5551C301.326 29.7704 301.556 29.9493 301.86 30.0928L301.887 30.0354C301.59 29.8952 301.369 29.7225 301.223 29.5181C301.077 29.314 301.003 29.0767 301.003 28.8049H300.94ZM301.861 30.0931C302.047 30.1747 302.267 30.2149 302.52 30.2149V30.1514C302.274 30.1514 302.063 30.1122 301.886 30.035L301.861 30.0931ZM302.52 30.2149H314.533V30.1514H302.52V30.2149ZM314.533 30.2149C316.214 30.2149 317.703 30.88 319.003 32.2132L319.048 32.1689C317.738 30.8249 316.233 30.1514 314.533 30.1514V30.2149ZM319.001 32.2118C319.791 33.1258 320.185 34.0999 320.185 35.1347H320.248C320.248 34.0823 319.847 33.0939 319.049 32.1703L319.001 32.2118ZM320.185 35.1347V36.3939H320.248V35.1347H320.185ZM320.185 36.3939C320.185 38.1593 319.157 39.5909 317.088 40.6878L317.117 40.7439C319.2 39.6401 320.248 38.1904 320.248 36.3939H320.185ZM317.09 40.6869C316.231 41.0708 315.351 41.2626 314.448 41.2626V41.3261C315.36 41.3261 316.249 41.1323 317.115 40.7448L317.09 40.6869ZM314.448 41.2626H295.22V41.3261H314.448V41.2626ZM295.22 41.2626C295.197 41.2626 295.185 41.2568 295.179 41.2507C295.173 41.2445 295.167 41.2328 295.167 41.2093H295.104C295.104 41.2426 295.112 41.2733 295.134 41.2956C295.156 41.3178 295.187 41.3261 295.22 41.3261V41.2626ZM295.167 41.2093V37.0405H295.104V41.2093H295.167ZM295.166 37.0482C295.171 37.0303 295.178 37.0201 295.185 37.0142C295.192 37.0084 295.203 37.0041 295.22 37.0041V36.9407C295.192 36.9407 295.166 36.9478 295.145 36.9646C295.124 36.9814 295.111 37.0053 295.105 37.0328L295.166 37.0482ZM295.22 37.0041H312.815V36.9407H295.22V37.0041ZM312.815 37.0041C313.177 37.0041 313.485 36.9236 313.738 36.7609C313.991 36.5981 314.186 36.3544 314.324 36.032L314.266 36.007C314.132 36.3199 313.944 36.5527 313.703 36.7075C313.463 36.8624 313.167 36.9407 312.815 36.9407V37.0041ZM314.326 36.0248C314.349 35.8885 314.366 35.7805 314.377 35.7007C314.389 35.622 314.395 35.5685 314.395 35.5431H314.331C314.331 35.5631 314.326 35.6117 314.315 35.6917C314.303 35.7708 314.286 35.8783 314.264 36.0143L314.326 36.0248ZM314.395 35.5431C314.395 35.2537 314.319 34.9991 314.168 34.7806C314.017 34.5623 313.791 34.3819 313.492 34.2383L313.464 34.2955C313.756 34.4356 313.972 34.6096 314.116 34.8167C314.259 35.0236 314.331 35.2653 314.331 35.5431H314.395ZM313.491 34.2378C313.304 34.1562 313.079 34.1161 312.815 34.1161V34.1796C313.072 34.1796 313.289 34.2188 313.465 34.296L313.491 34.2378ZM312.815 34.1161H300.972V34.1796H312.815V34.1161ZM300.972 34.1161C299.03 34.1161 297.405 33.3603 296.095 31.8469L296.047 31.8885C297.369 33.4153 299.011 34.1796 300.972 34.1796V34.1161ZM296.097 31.8486C295.476 31.0253 295.167 30.1584 295.167 29.2473H295.104C295.104 30.1739 295.418 31.054 296.046 31.8868L296.097 31.8486ZM295.167 29.2473V27.9882H295.104V29.2473H295.167ZM295.167 27.9882C295.167 26.3351 296.082 24.9659 297.925 23.8807L297.893 23.826C296.037 24.9188 295.104 26.3061 295.104 27.9882H295.167ZM297.922 23.8822C298.975 23.3955 299.941 23.1247 300.821 23.0683L300.817 23.0049C299.927 23.062 298.953 23.3356 297.896 23.8245L297.922 23.8822ZM346.097 25.4018L346.123 25.3833L346.122 25.3818L346.097 25.4018ZM343.885 40.6818L343.899 40.7106L343.9 40.71L343.885 40.6818ZM322.769 38.8782L322.743 38.8965L322.744 38.8982L322.769 38.8782ZM325.355 23.496L325.345 23.4658L325.342 23.4673L325.355 23.496ZM330.051 36.8873L330.042 36.9176L330.043 36.918L330.051 36.8873ZM341.026 34.8455L340.997 34.834L340.997 34.8343L341.026 34.8455ZM338.985 27.4437L338.996 27.4129L338.988 27.4121L338.985 27.4437ZM327.873 29.4855L327.844 29.4742L327.843 29.477L327.873 29.4855ZM327.55 23.0683H341.112V23.0049H327.55V23.0683ZM341.112 23.0683C343.144 23.0683 344.797 23.8525 346.073 25.4218L346.122 25.3818C344.834 23.7975 343.163 23.0049 341.112 23.0049V23.0683ZM346.071 25.4203C346.669 26.2549 346.967 27.1334 346.967 28.0562H347.031C347.031 27.1187 346.728 26.2275 346.123 25.3833L346.071 25.4203ZM346.967 28.0562V36.3088H347.031V28.0562H346.967ZM346.967 36.3088C346.967 38.1426 345.939 39.591 343.871 40.6536L343.9 40.71C345.983 39.64 347.031 38.173 347.031 36.3088H346.967ZM343.872 40.6531C343.002 41.0595 342.083 41.2626 341.112 41.2626V41.3261C342.092 41.3261 343.021 41.1209 343.899 40.7106L343.872 40.6531ZM341.112 41.2626H327.72V41.3261H341.112V41.2626ZM327.72 41.2626C325.745 41.2626 324.103 40.4619 322.793 38.8581L322.744 38.8982C324.066 40.516 325.725 41.3261 327.72 41.3261V41.2626ZM322.795 38.8599C322.231 38.0591 321.95 37.226 321.95 36.3598H321.886C321.886 37.2407 322.172 38.0864 322.743 38.8964L322.795 38.8599ZM321.95 36.3598V28.0222H321.886V36.3598H321.95ZM321.95 28.0222C321.95 26.0986 323.084 24.5991 325.369 23.5247L325.342 23.4673C323.043 24.5483 321.886 26.0662 321.886 28.0222H321.95ZM325.365 23.5261C326.271 23.2202 326.999 23.0683 327.55 23.0683V23.0049C326.989 23.0049 326.254 23.1592 325.345 23.466L325.365 23.5261ZM327.723 30.3533V33.9436H327.786V30.3533H327.723ZM327.723 33.9436C327.723 34.6867 327.916 35.3079 328.304 35.8051C328.691 36.302 329.272 36.6723 330.042 36.9176L330.061 36.8571C329.3 36.6146 328.731 36.2503 328.354 35.766C327.976 35.282 327.786 34.6753 327.786 33.9436H327.723ZM330.043 36.918C330.262 36.9755 330.491 37.0041 330.732 37.0041V36.9407C330.496 36.9407 330.272 36.9126 330.059 36.8566L330.043 36.918ZM330.732 37.0041H338.219V36.9407H330.732V37.0041ZM338.219 37.0041C338.894 37.0041 339.47 36.8252 339.944 36.466C340.418 36.1069 340.788 35.5696 341.056 34.8566L340.997 34.8343C340.732 35.5393 340.368 36.0654 339.906 36.4154C339.444 36.7651 338.882 36.9407 338.219 36.9407V37.0041ZM341.056 34.857C341.137 34.6476 341.177 34.371 341.177 34.0287H341.114C341.114 34.367 341.074 34.6349 340.997 34.834L341.056 34.857ZM341.177 34.0287V30.5575H341.114V34.0287H341.177ZM341.177 30.5575C341.177 29.7755 340.996 29.1208 340.631 28.5954C340.267 28.0699 339.721 27.6765 338.995 27.4138L338.974 27.4735C339.689 27.7326 340.224 28.1191 340.579 28.6316C340.935 29.1441 341.114 29.7854 341.114 30.5575H341.177ZM338.988 27.4121C338.568 27.3666 338.198 27.3439 337.879 27.3439V27.4073C338.195 27.4073 338.562 27.4299 338.981 27.4752L338.988 27.4121ZM337.879 27.3439H330.732V27.4073H337.879V27.3439ZM330.732 27.3439C330.04 27.3439 329.452 27.5212 328.969 27.8775C328.487 28.2337 328.112 28.7668 327.844 29.4743L327.903 29.4968C328.168 28.7976 328.536 28.2758 329.007 27.9286C329.477 27.5816 330.051 27.4073 330.732 27.4073V27.3439ZM327.843 29.477C327.763 29.7634 327.723 30.0555 327.723 30.3533H327.786C327.786 30.0613 327.825 29.7749 327.904 29.4941L327.843 29.477Z" fill="#D8D8D8"/>
<path d="M129.121 59.5649L132.156 51.4761H133.425L136.448 59.5649H135.239L134.622 57.7997H130.947L130.33 59.5649H129.121ZM131.297 56.8203H134.272L132.784 52.6248L131.297 56.8203ZM140.148 59.71C139.704 59.71 139.273 59.6415 138.854 59.5045C138.435 59.3675 138.064 59.1579 137.741 58.8758C137.427 58.5936 137.197 58.2349 137.052 57.7997L138.104 57.4853C138.201 57.7755 138.358 58.0173 138.576 58.2108C138.793 58.3962 139.043 58.5332 139.325 58.6219C139.616 58.7105 139.906 58.7549 140.196 58.7549C140.518 58.7549 140.825 58.7025 141.115 58.5977C141.405 58.4929 141.639 58.3357 141.816 58.1261C142.001 57.9085 142.094 57.6385 142.094 57.316C142.094 56.9855 141.973 56.7236 141.731 56.5301C141.49 56.3367 141.07 56.1634 140.474 56.0102L139.446 55.7805C139.075 55.6838 138.709 55.5548 138.346 55.3936C137.991 55.2324 137.697 55.0026 137.463 54.7044C137.238 54.4062 137.125 54.0072 137.125 53.5074C137.125 53.0479 137.266 52.657 137.548 52.3346C137.838 52.0122 138.209 51.7663 138.66 51.597C139.12 51.4278 139.595 51.3431 140.087 51.3431C140.466 51.3431 140.837 51.3995 141.199 51.5124C141.57 51.6172 141.901 51.7824 142.191 52.0081C142.489 52.2258 142.723 52.5079 142.892 52.8545L141.852 53.1568C141.699 52.8746 141.449 52.661 141.103 52.5159C140.764 52.3709 140.41 52.2983 140.039 52.2983C139.749 52.2983 139.47 52.3467 139.204 52.4434C138.938 52.5321 138.721 52.6691 138.552 52.8545C138.382 53.0399 138.298 53.2736 138.298 53.5558C138.298 53.8218 138.374 54.0354 138.527 54.1966C138.689 54.3578 138.898 54.4868 139.156 54.5835C139.422 54.6722 139.712 54.7528 140.027 54.8253L140.909 55.0188C141.32 55.1155 141.707 55.2485 142.07 55.4178C142.433 55.587 142.727 55.8248 142.953 56.1311C143.178 56.4374 143.291 56.8485 143.291 57.3644C143.291 57.7352 143.203 58.0697 143.025 58.3679C142.848 58.6581 142.61 58.904 142.312 59.1055C142.014 59.2989 141.675 59.4481 141.296 59.5529C140.925 59.6576 140.543 59.71 140.148 59.71ZM147.35 59.71C146.907 59.71 146.476 59.6415 146.056 59.5045C145.637 59.3675 145.266 59.1579 144.944 58.8758C144.63 58.5936 144.4 58.2349 144.255 57.7997L145.307 57.4853C145.403 57.7755 145.561 58.0173 145.778 58.2108C145.996 58.3962 146.246 58.5332 146.528 58.6219C146.818 58.7105 147.108 58.7549 147.398 58.7549C147.721 58.7549 148.027 58.7025 148.317 58.5977C148.608 58.4929 148.841 58.3357 149.019 58.1261C149.204 57.9085 149.297 57.6385 149.297 57.316C149.297 56.9855 149.176 56.7236 148.934 56.5301C148.692 56.3367 148.273 56.1634 147.677 56.0102L146.649 55.7805C146.278 55.6838 145.911 55.5548 145.549 55.3936C145.194 55.2324 144.9 55.0026 144.666 54.7044C144.44 54.4062 144.327 54.0072 144.327 53.5074C144.327 53.0479 144.468 52.657 144.751 52.3346C145.041 52.0122 145.412 51.7663 145.863 51.597C146.322 51.4278 146.798 51.3431 147.29 51.3431C147.669 51.3431 148.039 51.3995 148.402 51.5124C148.773 51.6172 149.103 51.7824 149.393 52.0081C149.692 52.2258 149.925 52.5079 150.095 52.8545L149.055 53.1568C148.902 52.8746 148.652 52.661 148.305 52.5159C147.967 52.3709 147.612 52.2983 147.241 52.2983C146.951 52.2983 146.673 52.3467 146.407 52.4434C146.141 52.5321 145.923 52.6691 145.754 52.8545C145.585 53.0399 145.5 53.2736 145.5 53.5558C145.5 53.8218 145.577 54.0354 145.73 54.1966C145.891 54.3578 146.101 54.4868 146.359 54.5835C146.625 54.6722 146.915 54.7528 147.229 54.8253L148.112 55.0188C148.523 55.1155 148.91 55.2485 149.273 55.4178C149.635 55.587 149.93 55.8248 150.155 56.1311C150.381 56.4374 150.494 56.8485 150.494 57.3644C150.494 57.7352 150.405 58.0697 150.228 58.3679C150.05 58.6581 149.813 58.904 149.514 59.1055C149.216 59.2989 148.878 59.4481 148.499 59.5529C148.128 59.6576 147.745 59.71 147.35 59.71ZM151.893 59.5649V51.4882H157.37V52.4676H153.029V54.922H156.233V55.9014H153.029V58.5856H157.37V59.5649H151.893ZM161.413 59.71C160.97 59.71 160.538 59.6415 160.119 59.5045C159.7 59.3675 159.329 59.1579 159.007 58.8758C158.692 58.5936 158.463 58.2349 158.318 57.7997L159.37 57.4853C159.466 57.7755 159.623 58.0173 159.841 58.2108C160.059 58.3962 160.309 58.5332 160.591 58.6219C160.881 58.7105 161.171 58.7549 161.461 58.7549C161.784 58.7549 162.09 58.7025 162.38 58.5977C162.67 58.4929 162.904 58.3357 163.081 58.1261C163.267 57.9085 163.36 57.6385 163.36 57.316C163.36 56.9855 163.239 56.7236 162.997 56.5301C162.755 56.3367 162.336 56.1634 161.739 56.0102L160.712 55.7805C160.341 55.6838 159.974 55.5548 159.611 55.3936C159.257 55.2324 158.962 55.0026 158.729 54.7044C158.503 54.4062 158.39 54.0072 158.39 53.5074C158.39 53.0479 158.531 52.657 158.813 52.3346C159.104 52.0122 159.474 51.7663 159.926 51.597C160.385 51.4278 160.861 51.3431 161.352 51.3431C161.731 51.3431 162.102 51.3995 162.465 51.5124C162.836 51.6172 163.166 51.7824 163.456 52.0081C163.754 52.2258 163.988 52.5079 164.158 52.8545L163.118 53.1568C162.965 52.8746 162.715 52.661 162.368 52.5159C162.03 52.3709 161.675 52.2983 161.304 52.2983C161.014 52.2983 160.736 52.3467 160.47 52.4434C160.204 52.5321 159.986 52.6691 159.817 52.8545C159.648 53.0399 159.563 53.2736 159.563 53.5558C159.563 53.8218 159.64 54.0354 159.793 54.1966C159.954 54.3578 160.163 54.4868 160.421 54.5835C160.687 54.6722 160.978 54.7528 161.292 54.8253L162.175 55.0188C162.586 55.1155 162.973 55.2485 163.335 55.4178C163.698 55.587 163.992 55.8248 164.218 56.1311C164.444 56.4374 164.557 56.8485 164.557 57.3644C164.557 57.7352 164.468 58.0697 164.291 58.3679C164.113 58.6581 163.875 58.904 163.577 59.1055C163.279 59.2989 162.94 59.4481 162.562 59.5529C162.191 59.6576 161.808 59.71 161.413 59.71ZM168.615 59.71C168.172 59.71 167.741 59.6415 167.322 59.5045C166.903 59.3675 166.532 59.1579 166.209 58.8758C165.895 58.5936 165.665 58.2349 165.52 57.7997L166.572 57.4853C166.669 57.7755 166.826 58.0173 167.044 58.2108C167.261 58.3962 167.511 58.5332 167.793 58.6219C168.083 58.7105 168.374 58.7549 168.664 58.7549C168.986 58.7549 169.293 58.7025 169.583 58.5977C169.873 58.4929 170.107 58.3357 170.284 58.1261C170.469 57.9085 170.562 57.6385 170.562 57.316C170.562 56.9855 170.441 56.7236 170.199 56.5301C169.958 56.3367 169.538 56.1634 168.942 56.0102L167.914 55.7805C167.543 55.6838 167.177 55.5548 166.814 55.3936C166.459 55.2324 166.165 55.0026 165.931 54.7044C165.706 54.4062 165.593 54.0072 165.593 53.5074C165.593 53.0479 165.734 52.657 166.016 52.3346C166.306 52.0122 166.677 51.7663 167.128 51.597C167.588 51.4278 168.063 51.3431 168.555 51.3431C168.934 51.3431 169.305 51.3995 169.667 51.5124C170.038 51.6172 170.369 51.7824 170.659 52.0081C170.957 52.2258 171.191 52.5079 171.36 52.8545L170.32 53.1568C170.167 52.8746 169.917 52.661 169.571 52.5159C169.232 52.3709 168.877 52.2983 168.507 52.2983C168.216 52.2983 167.938 52.3467 167.672 52.4434C167.406 52.5321 167.189 52.6691 167.019 52.8545C166.85 53.0399 166.766 53.2736 166.766 53.5558C166.766 53.8218 166.842 54.0354 166.995 54.1966C167.157 54.3578 167.366 54.4868 167.624 54.5835C167.89 54.6722 168.18 54.7528 168.495 54.8253L169.377 55.0188C169.788 55.1155 170.175 55.2485 170.538 55.4178C170.901 55.587 171.195 55.8248 171.421 56.1311C171.646 56.4374 171.759 56.8485 171.759 57.3644C171.759 57.7352 171.67 58.0697 171.493 58.3679C171.316 58.6581 171.078 58.904 170.78 59.1055C170.482 59.2989 170.143 59.4481 169.764 59.5529C169.393 59.6576 169.01 59.71 168.615 59.71ZM176.628 59.71C175.854 59.71 175.185 59.5327 174.621 59.178C174.057 58.8153 173.618 58.3196 173.303 57.6909C172.997 57.0541 172.844 56.3286 172.844 55.5145C172.844 54.7004 172.997 53.983 173.303 53.3623C173.618 52.7336 174.057 52.2419 174.621 51.8872C175.185 51.5245 175.854 51.3431 176.628 51.3431C177.41 51.3431 178.083 51.5245 178.647 51.8872C179.212 52.2419 179.647 52.7336 179.953 53.3623C180.268 53.983 180.425 54.7004 180.425 55.5145C180.425 56.3286 180.268 57.0541 179.953 57.6909C179.647 58.3196 179.212 58.8153 178.647 59.178C178.083 59.5327 177.41 59.71 176.628 59.71ZM176.628 58.7549C177.12 58.7549 177.563 58.6299 177.958 58.38C178.361 58.1302 178.68 57.7674 178.913 57.2919C179.147 56.8082 179.264 56.2158 179.264 55.5145C179.264 54.8213 179.147 54.2369 178.913 53.7613C178.68 53.2777 178.361 52.9149 177.958 52.6731C177.563 52.4232 177.12 52.2983 176.628 52.2983C176.145 52.2983 175.701 52.4232 175.298 52.6731C174.903 52.9149 174.589 53.2777 174.355 53.7613C174.121 54.2369 174.004 54.8213 174.004 55.5145C174.004 56.2158 174.121 56.8082 174.355 57.2919C174.589 57.7674 174.903 58.1302 175.298 58.38C175.701 58.6299 176.145 58.7549 176.628 58.7549ZM181.943 59.5649V51.4882H184.506C185.167 51.4882 185.747 51.5487 186.247 51.6696C186.755 51.7824 187.15 52.0081 187.432 52.3467C187.722 52.6772 187.867 53.1648 187.867 53.8097C187.867 54.1724 187.811 54.5109 187.698 54.8253C187.585 55.1397 187.368 55.4057 187.045 55.6233C186.731 55.8409 186.259 55.9941 185.631 56.0828L188.133 59.5649H186.743L184.289 56.1674H183.079V59.5649H181.943ZM183.079 55.2122H184.591C184.986 55.2122 185.34 55.184 185.655 55.1276C185.977 55.0712 186.231 54.9462 186.417 54.7528C186.61 54.5512 186.707 54.2449 186.707 53.8339C186.707 53.4147 186.61 53.1084 186.417 52.9149C186.231 52.7215 185.977 52.5965 185.655 52.5401C185.34 52.4756 184.986 52.4434 184.591 52.4434H183.079V55.2122ZM189.296 59.5649V58.6702H190.433V52.3829H189.296V51.4882H192.706V52.3829H191.569V58.6702H192.706V59.5649H189.296ZM193.625 59.5649L196.66 51.4761H197.93L200.953 59.5649H199.743L199.127 57.7997H195.451L194.835 59.5649H193.625ZM195.802 56.8203H198.776L197.289 52.6248L195.802 56.8203ZM205.381 59.5649V51.4882H210.858V52.4676H206.517V54.922H209.721V55.9014H206.517V58.5856H210.858V59.5649H205.381ZM212.241 59.5649V51.4882H214.127L216.279 58.0899L218.432 51.4882H220.318V59.5649H219.181V52.6731L216.848 59.5649H215.723L213.378 52.6731V59.5649H212.241ZM225.427 59.5649V58.6702H226.564V52.3829H225.427V51.4882H228.837V52.3829H227.7V58.6702H228.837V59.5649H225.427ZM230.554 59.5649V51.4882H232.235L235.911 58.3559V51.4882H237.047V59.5649H235.379L231.691 52.661V59.5649H230.554ZM240.861 59.5649L238.093 51.4882H239.338L241.526 58.2349L243.727 51.4882H244.972L242.191 59.5649H240.861ZM246.011 59.5649V51.4882H251.488V52.4676H247.147V54.922H250.351V55.9014H247.147V58.5856H251.488V59.5649H246.011ZM255.531 59.71C255.087 59.71 254.656 59.6415 254.237 59.5045C253.818 59.3675 253.447 59.1579 253.125 58.8758C252.81 58.5936 252.581 58.2349 252.435 57.7997L253.487 57.4853C253.584 57.7755 253.741 58.0173 253.959 58.2108C254.177 58.3962 254.426 58.5332 254.709 58.6219C254.999 58.7105 255.289 58.7549 255.579 58.7549C255.901 58.7549 256.208 58.7025 256.498 58.5977C256.788 58.4929 257.022 58.3357 257.199 58.1261C257.385 57.9085 257.477 57.6385 257.477 57.316C257.477 56.9855 257.356 56.7236 257.115 56.5301C256.873 56.3367 256.454 56.1634 255.857 56.0102L254.829 55.7805C254.459 55.6838 254.092 55.5548 253.729 55.3936C253.374 55.2324 253.08 55.0026 252.847 54.7044C252.621 54.4062 252.508 54.0072 252.508 53.5074C252.508 53.0479 252.649 52.657 252.931 52.3346C253.221 52.0122 253.592 51.7663 254.044 51.597C254.503 51.4278 254.979 51.3431 255.47 51.3431C255.849 51.3431 256.22 51.3995 256.583 51.5124C256.953 51.6172 257.284 51.7824 257.574 52.0081C257.872 52.2258 258.106 52.5079 258.275 52.8545L257.236 53.1568C257.082 52.8746 256.832 52.661 256.486 52.5159C256.147 52.3709 255.793 52.2983 255.422 52.2983C255.132 52.2983 254.854 52.3467 254.588 52.4434C254.322 52.5321 254.104 52.6691 253.935 52.8545C253.765 53.0399 253.681 53.2736 253.681 53.5558C253.681 53.8218 253.757 54.0354 253.911 54.1966C254.072 54.3578 254.281 54.4868 254.539 54.5835C254.805 54.6722 255.095 54.7528 255.41 54.8253L256.292 55.0188C256.704 55.1155 257.09 55.2485 257.453 55.4178C257.816 55.587 258.11 55.8248 258.336 56.1311C258.561 56.4374 258.674 56.8485 258.674 57.3644C258.674 57.7352 258.586 58.0697 258.408 58.3679C258.231 58.6581 257.993 58.904 257.695 59.1055C257.397 59.2989 257.058 59.4481 256.679 59.5529C256.309 59.6576 255.926 59.71 255.531 59.71ZM261.959 59.5649V52.4676H259.275V51.4882H265.78V52.4676H263.096V59.5649H261.959ZM266.694 59.5649V58.6702H267.831V52.3829H266.694V51.4882H270.104V52.3829H268.968V58.6702H270.104V59.5649H266.694ZM271.822 59.5649V51.4882H273.708L275.86 58.0899L278.012 51.4882H279.898V59.5649H278.762V52.6731L276.428 59.5649H275.304L272.958 52.6731V59.5649H271.822ZM281.74 59.5649V51.4882H287.217V52.4676H282.877V54.922H286.081V55.9014H282.877V58.5856H287.217V59.5649H281.74ZM288.6 59.5649V51.4882H290.281L293.957 58.3559V51.4882H295.093V59.5649H293.425L289.737 52.661V59.5649H288.6ZM298.823 59.5649V52.4676H296.138V51.4882H302.643V52.4676H299.959V59.5649H298.823ZM306.688 59.71C305.914 59.71 305.245 59.5327 304.681 59.178C304.117 58.8153 303.677 58.3196 303.363 57.6909C303.057 57.0541 302.904 56.3286 302.904 55.5145C302.904 54.7004 303.057 53.983 303.363 53.3623C303.677 52.7336 304.117 52.2419 304.681 51.8872C305.245 51.5245 305.914 51.3431 306.688 51.3431C307.47 51.3431 308.143 51.5245 308.707 51.8872C309.271 52.2419 309.707 52.7336 310.013 53.3623C310.327 53.983 310.485 54.7004 310.485 55.5145C310.485 56.3286 310.327 57.0541 310.013 57.6909C309.707 58.3196 309.271 58.8153 308.707 59.178C308.143 59.5327 307.47 59.71 306.688 59.71ZM306.688 58.7549C307.18 58.7549 307.623 58.6299 308.018 58.38C308.421 58.1302 308.739 57.7674 308.973 57.2919C309.207 56.8082 309.324 56.2158 309.324 55.5145C309.324 54.8213 309.207 54.2369 308.973 53.7613C308.739 53.2777 308.421 52.9149 308.018 52.6731C307.623 52.4232 307.18 52.2983 306.688 52.2983C306.204 52.2983 305.761 52.4232 305.358 52.6731C304.963 52.9149 304.649 53.2777 304.415 53.7613C304.181 54.2369 304.064 54.8213 304.064 55.5145C304.064 56.2158 304.181 56.8082 304.415 57.2919C304.649 57.7674 304.963 58.1302 305.358 58.38C305.761 58.6299 306.204 58.7549 306.688 58.7549ZM314.663 59.71C314.219 59.71 313.788 59.6415 313.369 59.5045C312.95 59.3675 312.579 59.1579 312.257 58.8758C311.942 58.5936 311.713 58.2349 311.568 57.7997L312.619 57.4853C312.716 57.7755 312.873 58.0173 313.091 58.2108C313.309 58.3962 313.558 58.5332 313.841 58.6219C314.131 58.7105 314.421 58.7549 314.711 58.7549C315.034 58.7549 315.34 58.7025 315.63 58.5977C315.92 58.4929 316.154 58.3357 316.331 58.1261C316.517 57.9085 316.609 57.6385 316.609 57.316C316.609 56.9855 316.489 56.7236 316.247 56.5301C316.005 56.3367 315.586 56.1634 314.989 56.0102L313.962 55.7805C313.591 55.6838 313.224 55.5548 312.861 55.3936C312.507 55.2324 312.212 55.0026 311.979 54.7044C311.753 54.4062 311.64 54.0072 311.64 53.5074C311.64 53.0479 311.781 52.657 312.063 52.3346C312.353 52.0122 312.724 51.7663 313.176 51.597C313.635 51.4278 314.111 51.3431 314.602 51.3431C314.981 51.3431 315.352 51.3995 315.715 51.5124C316.085 51.6172 316.416 51.7824 316.706 52.0081C317.004 52.2258 317.238 52.5079 317.407 52.8545L316.368 53.1568C316.214 52.8746 315.965 52.661 315.618 52.5159C315.279 52.3709 314.925 52.2983 314.554 52.2983C314.264 52.2983 313.986 52.3467 313.72 52.4434C313.454 52.5321 313.236 52.6691 313.067 52.8545C312.898 53.0399 312.813 53.2736 312.813 53.5558C312.813 53.8218 312.889 54.0354 313.043 54.1966C313.204 54.3578 313.413 54.4868 313.671 54.5835C313.937 54.6722 314.228 54.7528 314.542 54.8253L315.425 55.0188C315.836 55.1155 316.223 55.2485 316.585 55.4178C316.948 55.587 317.242 55.8248 317.468 56.1311C317.694 56.4374 317.806 56.8485 317.806 57.3644C317.806 57.7352 317.718 58.0697 317.54 58.3679C317.363 58.6581 317.125 58.904 316.827 59.1055C316.529 59.2989 316.19 59.4481 315.811 59.5529C315.441 59.6576 315.058 59.71 314.663 59.71Z" fill="black"/>
<path fill-rule="evenodd" clip-rule="evenodd" d="M9.74196 0.300415H80.3211V12.7573L91.3237 10.5501L84.4104 25.6178L76.4147 28.229L40.8676 58.4472L35.9866 63.238L35.6313 62.8986L35.1284 63.3263L22.0842 51.2722L9.74196 61.031V60.5126L0.296082 68.3742L9.74196 51.6412V0.300415Z" fill="url(#paint0_linear_258_43)" stroke="#D8D8D8" stroke-width="0.166559" stroke-miterlimit="22.9256"/>
<path fill-rule="evenodd" clip-rule="evenodd" d="M9.90546 66.9067H80.4846V22.8632L36.6588 64.5876L22.7277 53.108L9.90546 59.9584V66.9067Z" fill="black" stroke="#D8D8D8" stroke-width="0.166559" stroke-miterlimit="22.9256"/>
<path fill-rule="evenodd" clip-rule="evenodd" d="M27.8238 20.5695H38.8857V50.7726L35.5853 53.7387L27.8238 44.4642V20.5695Z" fill="white" stroke="#D8D8D8" stroke-width="0.166559" stroke-miterlimit="22.9256"/>
<path fill-rule="evenodd" clip-rule="evenodd" d="M40.4498 15.0298H51.5117V39.4252L40.4498 49.367V15.0298Z" fill="white" stroke="#D8D8D8" stroke-width="0.166559" stroke-miterlimit="22.9256"/>
<path fill-rule="evenodd" clip-rule="evenodd" d="M52.7601 9.28503H63.8222V28.3617L52.7601 38.3033V9.28503Z" fill="white" stroke="#D8D8D8" stroke-width="0.166559" stroke-miterlimit="22.9256"/>
<path fill-rule="evenodd" clip-rule="evenodd" d="M0.296082 68.3745L23.0016 42.6596L35.3118 55.7906L70.875 23.7838L66.4638 21.1082L89.5455 12.1917L79.6975 37.9406L77.6457 31.7172L36.064 71.7256L22.1806 56.0642L0.296082 68.3745Z" fill="white"/>
</g>
<defs>
<linearGradient id="paint0_linear_258_43" x1="-11.7761" y1="52.8497" x2="115.701" y2="52.8497" gradientUnits="userSpaceOnUse">
<stop stop-color="#0B87EB"/>
<stop offset="1" stop-color="#07C0F6"/>
</linearGradient>
<clipPath id="clip0_258_43">
<rect width="347" height="71.5083" fill="white" transform="translate(0 0.217163)"/>
</clipPath>
</defs>
</svg>
