<?xml version="1.0" encoding="UTF-8"?>
<!DOCTYPE svg PUBLIC "-//W3C//DTD SVG 1.1//EN" "http://www.w3.org/Graphics/SVG/1.1/DTD/svg11.dtd">
<!-- Creator: CorelDRAW 2020 (64 Bit) -->
<svg xmlns="http://www.w3.org/2000/svg" xml:space="preserve" width="53.4502mm" height="53.4501mm" version="1.1" style="shape-rendering:geometricPrecision; text-rendering:geometricPrecision; image-rendering:optimizeQuality; fill-rule:evenodd; clip-rule:evenodd"
viewBox="0 0 4495.61 4495.6"
 xmlns:xlink="http://www.w3.org/1999/xlink"
 xmlns:xodm="http://www.corel.com/coreldraw/odm/2003">
 <defs>
  <style type="text/css">
   <![CDATA[
    .fil1 {fill:#0079AE;fill-rule:nonzero}
    .fil3 {fill:#9ECDE2;fill-rule:nonzero}
    .fil2 {fill:#C1DAEB;fill-rule:nonzero}
    .fil4 {fill:#EBF7FD;fill-rule:nonzero}
    .fil0 {fill:url(#id0);fill-rule:nonzero}
   ]]>
  </style>
  <linearGradient id="id0" gradientUnits="userSpaceOnUse" x1="-0" y1="0" x2="4495.61" y2="4495.61">
   <stop offset="0" style="stop-opacity:1; stop-color:#00AFE4"/>
   <stop offset="1" style="stop-opacity:1; stop-color:#0093D4"/>
  </linearGradient>
 </defs>
 <g id="OBJECTS">
  <metadata id="CorelCorpID_0Corel-Layer"/>
  <g id="_2215100131136">
   <path class="fil0" d="M4495.61 2247.8c0,1241.43 -1006.37,2247.8 -2247.8,2247.8 -1241.42,0 -2247.8,-1006.37 -2247.8,-2247.8 0,-1241.42 1006.38,-2247.8 2247.8,-2247.8 1241.43,0 2247.8,1006.37 2247.8,2247.8z"/>
   <path class="fil1" d="M3263.95 1278.67l-2370.11 969.76 2114.84 2114.84c792.43,-285.07 1378.22,-1002.54 1473.07,-1867.9l-1217.8 -1216.7z"/>
   <g>
    <polygon class="fil2" points="1503.82,2427.94 1762.43,3129.38 2910.24,1535.2 "/>
    <polygon class="fil3" points="1790.77,2583.82 1765.97,3136.47 2371.76,2622.79 "/>
    <path class="fil4" d="M3190.77 1265.92l-2262.29 859.61c-63.91,24.28 -62.21,115.28 2.56,137.16l583.41 197.13 1328.49 -857.32 -1052.17 981.31 819.09 621.58c85.21,64.66 208.77,21.19 234.72,-82.59l442.77 -1771.09c14.27,-57.12 -41.55,-106.72 -96.58,-85.81z"/>
   </g>
  </g>
 </g>
</svg>
